<?xml version="1.0" encoding="utf-8" standalone="no"?>
<!DOCTYPE svg PUBLIC "-//W3C//DTD SVG 1.1//EN"
  "http://www.w3.org/Graphics/SVG/1.1/DTD/svg11.dtd">
<svg xmlns:xlink="http://www.w3.org/1999/xlink" width="216pt" height="216pt" viewBox="0 0 216 216" xmlns="http://www.w3.org/2000/svg" version="1.1">
 <metadata>
  <rdf:RDF xmlns:dc="http://purl.org/dc/elements/1.1/" xmlns:cc="http://creativecommons.org/ns#" xmlns:rdf="http://www.w3.org/1999/02/22-rdf-syntax-ns#">
   <cc:Work>
    <dc:type rdf:resource="http://purl.org/dc/dcmitype/StillImage"/>
    <dc:date>2023-09-01T15:41:20.385438</dc:date>
    <dc:format>image/svg+xml</dc:format>
    <dc:creator>
     <cc:Agent>
      <dc:title>Matplotlib v3.6.0, https://matplotlib.org/</dc:title>
     </cc:Agent>
    </dc:creator>
   </cc:Work>
  </rdf:RDF>
 </metadata>
 <defs>
  <style type="text/css">*{stroke-linejoin: round; stroke-linecap: butt}</style>
 </defs>
 <g id="figure_1">
  <g id="patch_1">
   <path d="M 0 216 
L 216 216 
L 216 0 
L 0 0 
z
" style="fill: #ffffff"/>
  </g>
  <g id="axes_1">
   <g id="patch_2">
    <path d="M 27 192.24 
L 194.4 192.24 
L 194.4 25.92 
L 27 25.92 
z
" style="fill: #ffffff"/>
   </g>
   <g id="PathCollection_1">
    <defs>
     <path id="C0_0_a4814ddaf0" d="M 0 4.1833 
C 1.109424 4.1833 2.173559 3.742521 2.95804 2.95804 
C 3.742521 2.173559 4.1833 1.109424 4.1833 -0 
C 4.1833 -1.109424 3.742521 -2.173559 2.95804 -2.95804 
C 2.173559 -3.742521 1.109424 -4.1833 0 -4.1833 
C -1.109424 -4.1833 -2.173559 -3.742521 -2.95804 -2.95804 
C -3.742521 -2.173559 -4.1833 -1.109424 -4.1833 0 
C -4.1833 1.109424 -3.742521 2.173559 -2.95804 2.95804 
C -2.173559 3.742521 -1.109424 4.1833 0 4.1833 
z
"/>
    </defs>
    <g clip-path="url(#p2fcc4be139)">
     <use xlink:href="#C0_0_a4814ddaf0" x="77.556552" y="162.923934" style="fill: #1f77b4; fill-opacity: 0.5; stroke: #000000; stroke-opacity: 0.5; stroke-width: 0.669328"/>
    </g>
    <g clip-path="url(#p2fcc4be139)">
     <use xlink:href="#C0_0_a4814ddaf0" x="83.675596" y="152.998266" style="fill: #ff7f0e; fill-opacity: 0.5; stroke: #000000; stroke-opacity: 0.5; stroke-width: 0.669328"/>
    </g>
    <g clip-path="url(#p2fcc4be139)">
     <use xlink:href="#C0_0_a4814ddaf0" x="186.790909" y="55.236066" style="fill: #2ca02c; fill-opacity: 0.5; stroke: #000000; stroke-opacity: 0.5; stroke-width: 0.669328"/>
    </g>
    <g clip-path="url(#p2fcc4be139)">
     <use xlink:href="#C0_0_a4814ddaf0" x="167.862894" y="74.111177" style="fill: #8c564b; fill-opacity: 0.5; stroke: #000000; stroke-opacity: 0.5; stroke-width: 0.669328"/>
    </g>
   </g>
   <g id="PathCollection_2"/>
   <g id="PathCollection_3"/>
   <g id="PathCollection_4"/>
   <g id="PathCollection_5"/>
   <g id="PathCollection_6"/>
   <g id="PathCollection_7"/>
   <g id="PathCollection_8"/>
   <g id="matplotlib.axis_1">
    <g id="xtick_1">
     <g id="line2d_1">
      <defs>
       <path id="m9c88c66311" d="M 0 0 
L 0 3.5 
" style="stroke: #000000; stroke-width: 0.8"/>
      </defs>
      <g>
       <use xlink:href="#m9c88c66311" x="53.139006" y="192.24" style="stroke: #000000; stroke-width: 0.8"/>
      </g>
     </g>
     <g id="text_1">
      <!-- $\mathdefault{10^{1}}$ -->
      <g transform="translate(44.339006 206.838437)">
       <text>
        <tspan style="font: 10px 'DejaVu Sans'" x="0 6.362305" y="-0.06406250000000036">10</tspan>
        <tspan style="font: 7px 'DejaVu Sans'" x="12.820312" y="-3.8921875000000004">1</tspan>
       </text>
      </g>
     </g>
    </g>
    <g id="xtick_2">
     <g id="line2d_2">
      <g>
       <use xlink:href="#m9c88c66311" x="172.762506" y="192.24" style="stroke: #000000; stroke-width: 0.8"/>
      </g>
     </g>
     <g id="text_2">
      <!-- $\mathdefault{10^{2}}$ -->
      <g transform="translate(163.962506 206.838437)">
       <text>
        <tspan style="font: 10px 'DejaVu Sans'" x="0 6.362305" y="-0.9765625">10</tspan>
        <tspan style="font: 7px 'DejaVu Sans'" x="12.820312" y="-4.8046875">2</tspan>
       </text>
      </g>
     </g>
    </g>
    <g id="xtick_3">
     <g id="line2d_3">
      <defs>
       <path id="mf1518644bc" d="M 0 0 
L 0 2 
" style="stroke: #000000; stroke-width: 0.6"/>
      </defs>
      <g>
       <use xlink:href="#mf1518644bc" x="34.609091" y="192.24" style="stroke: #000000; stroke-width: 0.6"/>
      </g>
     </g>
    </g>
    <g id="xtick_4">
     <g id="line2d_4">
      <g>
       <use xlink:href="#mf1518644bc" x="41.546291" y="192.24" style="stroke: #000000; stroke-width: 0.6"/>
      </g>
     </g>
    </g>
    <g id="xtick_5">
     <g id="line2d_5">
      <g>
       <use xlink:href="#mf1518644bc" x="47.665334" y="192.24" style="stroke: #000000; stroke-width: 0.6"/>
      </g>
     </g>
    </g>
    <g id="xtick_6">
     <g id="line2d_6">
      <g>
       <use xlink:href="#mf1518644bc" x="89.149267" y="192.24" style="stroke: #000000; stroke-width: 0.6"/>
      </g>
     </g>
    </g>
    <g id="xtick_7">
     <g id="line2d_7">
      <g>
       <use xlink:href="#mf1518644bc" x="110.21392" y="192.24" style="stroke: #000000; stroke-width: 0.6"/>
      </g>
     </g>
    </g>
    <g id="xtick_8">
     <g id="line2d_8">
      <g>
       <use xlink:href="#mf1518644bc" x="125.159529" y="192.24" style="stroke: #000000; stroke-width: 0.6"/>
      </g>
     </g>
    </g>
    <g id="xtick_9">
     <g id="line2d_9">
      <g>
       <use xlink:href="#mf1518644bc" x="136.752244" y="192.24" style="stroke: #000000; stroke-width: 0.6"/>
      </g>
     </g>
    </g>
    <g id="xtick_10">
     <g id="line2d_10">
      <g>
       <use xlink:href="#mf1518644bc" x="146.224182" y="192.24" style="stroke: #000000; stroke-width: 0.6"/>
      </g>
     </g>
    </g>
    <g id="xtick_11">
     <g id="line2d_11">
      <g>
       <use xlink:href="#mf1518644bc" x="154.232591" y="192.24" style="stroke: #000000; stroke-width: 0.6"/>
      </g>
     </g>
    </g>
    <g id="xtick_12">
     <g id="line2d_12">
      <g>
       <use xlink:href="#mf1518644bc" x="161.169791" y="192.24" style="stroke: #000000; stroke-width: 0.6"/>
      </g>
     </g>
    </g>
    <g id="xtick_13">
     <g id="line2d_13">
      <g>
       <use xlink:href="#mf1518644bc" x="167.288835" y="192.24" style="stroke: #000000; stroke-width: 0.6"/>
      </g>
     </g>
    </g>
    <g id="text_3">
     <text style="font: 10px 'sans-serif'; text-anchor: middle" x="110.7" y="220.516562" transform="rotate(-0 110.7 220.516562)">MT reads without 16S/12S</text>
    </g>
   </g>
   <g id="matplotlib.axis_2">
    <g id="ytick_1">
     <g id="line2d_14">
      <defs>
       <path id="m5519e347af" d="M 0 0 
L -3.5 0 
" style="stroke: #000000; stroke-width: 0.8"/>
      </defs>
      <g>
       <use xlink:href="#m5519e347af" x="27" y="76.645915" style="stroke: #000000; stroke-width: 0.8"/>
      </g>
     </g>
     <g id="text_4">
      <!-- $\mathdefault{10^{2}}$ -->
      <g transform="translate(2.4 80.445134)">
       <text>
        <tspan style="font: 10px 'DejaVu Sans'" x="0 6.362305" y="-0.9765625">10</tspan>
        <tspan style="font: 7px 'DejaVu Sans'" x="12.820312" y="-4.8046875">2</tspan>
       </text>
      </g>
     </g>
    </g>
    <g id="ytick_2">
     <g id="line2d_15">
      <defs>
       <path id="m0451a7ef0e" d="M 0 0 
L -2 0 
" style="stroke: #000000; stroke-width: 0.6"/>
      </defs>
      <g>
       <use xlink:href="#m0451a7ef0e" x="27" y="160.259154" style="stroke: #000000; stroke-width: 0.6"/>
      </g>
     </g>
    </g>
    <g id="ytick_3">
     <g id="line2d_16">
      <g>
       <use xlink:href="#m0451a7ef0e" x="27" y="139.194501" style="stroke: #000000; stroke-width: 0.6"/>
      </g>
     </g>
    </g>
    <g id="ytick_4">
     <g id="line2d_17">
      <g>
       <use xlink:href="#m0451a7ef0e" x="27" y="124.248892" style="stroke: #000000; stroke-width: 0.6"/>
      </g>
     </g>
    </g>
    <g id="ytick_5">
     <g id="line2d_18">
      <g>
       <use xlink:href="#m0451a7ef0e" x="27" y="112.656177" style="stroke: #000000; stroke-width: 0.6"/>
      </g>
     </g>
    </g>
    <g id="ytick_6">
     <g id="line2d_19">
      <g>
       <use xlink:href="#m0451a7ef0e" x="27" y="103.184239" style="stroke: #000000; stroke-width: 0.6"/>
      </g>
     </g>
    </g>
    <g id="ytick_7">
     <g id="line2d_20">
      <g>
       <use xlink:href="#m0451a7ef0e" x="27" y="95.17583" style="stroke: #000000; stroke-width: 0.6"/>
      </g>
     </g>
    </g>
    <g id="ytick_8">
     <g id="line2d_21">
      <g>
       <use xlink:href="#m0451a7ef0e" x="27" y="88.23863" style="stroke: #000000; stroke-width: 0.6"/>
      </g>
     </g>
    </g>
    <g id="ytick_9">
     <g id="line2d_22">
      <g>
       <use xlink:href="#m0451a7ef0e" x="27" y="82.119586" style="stroke: #000000; stroke-width: 0.6"/>
      </g>
     </g>
    </g>
    <g id="ytick_10">
     <g id="line2d_23">
      <g>
       <use xlink:href="#m0451a7ef0e" x="27" y="40.635653" style="stroke: #000000; stroke-width: 0.6"/>
      </g>
     </g>
    </g>
    <g id="text_5">
     <text style="font: 10px 'sans-serif'; text-anchor: middle" x="-3.679688" y="109.08" transform="rotate(-90 -3.679688 109.08)">MT reads with 16S/12S</text>
    </g>
   </g>
   <g id="line2d_24">
    <path d="M 57.168421 192.24 
L 194.4 55.008421 
" clip-path="url(#p2fcc4be139)" style="fill: none; stroke: #1f77b4; stroke-width: 1.5; stroke-linecap: square"/>
   </g>
   <g id="patch_3">
    <path d="M 27 192.24 
L 27 25.92 
" style="fill: none; stroke: #000000; stroke-width: 0.8; stroke-linejoin: miter; stroke-linecap: square"/>
   </g>
   <g id="patch_4">
    <path d="M 194.4 192.24 
L 194.4 25.92 
" style="fill: none; stroke: #000000; stroke-width: 0.8; stroke-linejoin: miter; stroke-linecap: square"/>
   </g>
   <g id="patch_5">
    <path d="M 27 192.24 
L 194.4 192.24 
" style="fill: none; stroke: #000000; stroke-width: 0.8; stroke-linejoin: miter; stroke-linecap: square"/>
   </g>
   <g id="patch_6">
    <path d="M 27 25.92 
L 194.4 25.92 
" style="fill: none; stroke: #000000; stroke-width: 0.8; stroke-linejoin: miter; stroke-linecap: square"/>
   </g>
   <g id="text_6">
    <text style="font: 12px 'sans-serif'; text-anchor: middle" x="110.7" y="19.92" transform="rotate(-0 110.7 19.92)">HJ200067-20200112-1</text>
   </g>
   <g id="legend_1">
    <g id="patch_7">
     <path d="M 24.75625 151.345 
L 187.4 151.345 
Q 189.4 151.345 189.4 149.345 
L 189.4 32.92 
Q 189.4 30.92 187.4 30.92 
L 24.75625 30.92 
Q 22.75625 30.92 22.75625 32.92 
L 22.75625 149.345 
Q 22.75625 151.345 24.75625 151.345 
z
" style="fill: #ffffff; opacity: 0.8; stroke: #cccccc; stroke-linejoin: miter"/>
    </g>
    <g id="text_7">
     <text style="font: 10px 'sans-serif'; text-anchor: start" x="86.833594" y="42.518438" transform="rotate(-0 86.833594 42.518438)">Species</text>
    </g>
    <g id="PathCollection_9">
     <defs>
      <path id="m1467c0f3b6" d="M 0 3 
C 0.795609 3 1.55874 2.683901 2.12132 2.12132 
C 2.683901 1.55874 3 0.795609 3 0 
C 3 -0.795609 2.683901 -1.55874 2.12132 -2.12132 
C 1.55874 -2.683901 0.795609 -3 0 -3 
C -0.795609 -3 -1.55874 -2.683901 -2.12132 -2.12132 
C -2.683901 -1.55874 -3 -0.795609 -3 0 
C -3 0.795609 -2.683901 1.55874 -2.12132 2.12132 
C -1.55874 2.683901 -0.795609 3 0 3 
z
" style="stroke: #1f77b4"/>
     </defs>
     <g>
      <use xlink:href="#m1467c0f3b6" x="36.75625" y="54.571563" style="fill: #1f77b4; stroke: #1f77b4"/>
     </g>
    </g>
    <g id="text_8">
     <text style="font: 10px 'sans-serif'; text-anchor: start" x="54.75625" y="57.196563" transform="rotate(-0 54.75625 57.196563)">Hystrix brachyura</text>
    </g>
    <g id="PathCollection_10">
     <defs>
      <path id="me9bd5af7f4" d="M 0 3 
C 0.795609 3 1.55874 2.683901 2.12132 2.12132 
C 2.683901 1.55874 3 0.795609 3 0 
C 3 -0.795609 2.683901 -1.55874 2.12132 -2.12132 
C 1.55874 -2.683901 0.795609 -3 0 -3 
C -0.795609 -3 -1.55874 -2.683901 -2.12132 -2.12132 
C -2.683901 -1.55874 -3 -0.795609 -3 0 
C -3 0.795609 -2.683901 1.55874 -2.12132 2.12132 
C -1.55874 2.683901 -0.795609 3 0 3 
z
" style="stroke: #ff7f0e"/>
     </defs>
     <g>
      <use xlink:href="#me9bd5af7f4" x="36.75625" y="69.249688" style="fill: #ff7f0e; stroke: #ff7f0e"/>
     </g>
    </g>
    <g id="text_9">
     <text style="font: 10px 'sans-serif'; text-anchor: start" x="54.75625" y="71.874688" transform="rotate(-0 54.75625 71.874688)">Erinaceus amurensis</text>
    </g>
    <g id="PathCollection_11">
     <defs>
      <path id="m51756ec8ad" d="M 0 3 
C 0.795609 3 1.55874 2.683901 2.12132 2.12132 
C 2.683901 1.55874 3 0.795609 3 0 
C 3 -0.795609 2.683901 -1.55874 2.12132 -2.12132 
C 1.55874 -2.683901 0.795609 -3 0 -3 
C -0.795609 -3 -1.55874 -2.683901 -2.12132 -2.12132 
C -2.683901 -1.55874 -3 -0.795609 -3 0 
C -3 0.795609 -2.683901 1.55874 -2.12132 2.12132 
C -1.55874 2.683901 -0.795609 3 0 3 
z
" style="stroke: #2ca02c"/>
     </defs>
     <g>
      <use xlink:href="#m51756ec8ad" x="36.75625" y="83.927813" style="fill: #2ca02c; stroke: #2ca02c"/>
     </g>
    </g>
    <g id="text_10">
     <text style="font: 10px 'sans-serif'; text-anchor: start" x="54.75625" y="86.552813" transform="rotate(-0 54.75625 86.552813)">Canis lupus</text>
    </g>
    <g id="PathCollection_12">
     <defs>
      <path id="mc89f288a18" d="M 0 3 
C 0.795609 3 1.55874 2.683901 2.12132 2.12132 
C 2.683901 1.55874 3 0.795609 3 0 
C 3 -0.795609 2.683901 -1.55874 2.12132 -2.12132 
C 1.55874 -2.683901 0.795609 -3 0 -3 
C -0.795609 -3 -1.55874 -2.683901 -2.12132 -2.12132 
C -2.683901 -1.55874 -3 -0.795609 -3 0 
C -3 0.795609 -2.683901 1.55874 -2.12132 2.12132 
C -1.55874 2.683901 -0.795609 3 0 3 
z
" style="stroke: #d62728"/>
     </defs>
     <g>
      <use xlink:href="#mc89f288a18" x="36.75625" y="98.605938" style="fill: #d62728; stroke: #d62728"/>
     </g>
    </g>
    <g id="text_11">
     <text style="font: 10px 'sans-serif'; text-anchor: start" x="54.75625" y="101.230938" transform="rotate(-0 54.75625 101.230938)">Homo sapiens</text>
    </g>
    <g id="PathCollection_13">
     <defs>
      <path id="m539878353f" d="M 0 3 
C 0.795609 3 1.55874 2.683901 2.12132 2.12132 
C 2.683901 1.55874 3 0.795609 3 0 
C 3 -0.795609 2.683901 -1.55874 2.12132 -2.12132 
C 1.55874 -2.683901 0.795609 -3 0 -3 
C -0.795609 -3 -1.55874 -2.683901 -2.12132 -2.12132 
C -2.683901 -1.55874 -3 -0.795609 -3 0 
C -3 0.795609 -2.683901 1.55874 -2.12132 2.12132 
C -1.55874 2.683901 -0.795609 3 0 3 
z
" style="stroke: #9467bd"/>
     </defs>
     <g>
      <use xlink:href="#m539878353f" x="36.75625" y="113.284063" style="fill: #9467bd; stroke: #9467bd"/>
     </g>
    </g>
    <g id="text_12">
     <text style="font: 10px 'sans-serif'; text-anchor: start" x="54.75625" y="115.909063" transform="rotate(-0 54.75625 115.909063)">Nyctereutes procyonoides</text>
    </g>
    <g id="PathCollection_14">
     <defs>
      <path id="m27d212755a" d="M 0 3 
C 0.795609 3 1.55874 2.683901 2.12132 2.12132 
C 2.683901 1.55874 3 0.795609 3 0 
C 3 -0.795609 2.683901 -1.55874 2.12132 -2.12132 
C 1.55874 -2.683901 0.795609 -3 0 -3 
C -0.795609 -3 -1.55874 -2.683901 -2.12132 -2.12132 
C -2.683901 -1.55874 -3 -0.795609 -3 0 
C -3 0.795609 -2.683901 1.55874 -2.12132 2.12132 
C -1.55874 2.683901 -0.795609 3 0 3 
z
" style="stroke: #8c564b"/>
     </defs>
     <g>
      <use xlink:href="#m27d212755a" x="36.75625" y="127.962188" style="fill: #8c564b; stroke: #8c564b"/>
     </g>
    </g>
    <g id="text_13">
     <text style="font: 10px 'sans-serif'; text-anchor: start" x="54.75625" y="130.587188" transform="rotate(-0 54.75625 130.587188)">Rhizomys pruinosus</text>
    </g>
    <g id="PathCollection_15">
     <defs>
      <path id="m55cef0a8ca" d="M 0 3 
C 0.795609 3 1.55874 2.683901 2.12132 2.12132 
C 2.683901 1.55874 3 0.795609 3 0 
C 3 -0.795609 2.683901 -1.55874 2.12132 -2.12132 
C 1.55874 -2.683901 0.795609 -3 0 -3 
C -0.795609 -3 -1.55874 -2.683901 -2.12132 -2.12132 
C -2.683901 -1.55874 -3 -0.795609 -3 0 
C -3 0.795609 -2.683901 1.55874 -2.12132 2.12132 
C -1.55874 2.683901 -0.795609 3 0 3 
z
" style="stroke: #e377c2"/>
     </defs>
     <g>
      <use xlink:href="#m55cef0a8ca" x="36.75625" y="142.640313" style="fill: #e377c2; stroke: #e377c2"/>
     </g>
    </g>
    <g id="text_14">
     <text style="font: 10px 'sans-serif'; text-anchor: start" x="54.75625" y="145.265313" transform="rotate(-0 54.75625 145.265313)">Paguma larvata</text>
    </g>
   </g>
  </g>
 </g>
 <defs>
  <clipPath id="p2fcc4be139">
   <rect x="27" y="25.92" width="167.4" height="166.32"/>
  </clipPath>
 </defs>
</svg>
