<?xml version="1.0" encoding="utf-8" standalone="no"?>
<!DOCTYPE svg PUBLIC "-//W3C//DTD SVG 1.1//EN"
  "http://www.w3.org/Graphics/SVG/1.1/DTD/svg11.dtd">
<svg xmlns:xlink="http://www.w3.org/1999/xlink" width="216pt" height="216pt" viewBox="0 0 216 216" xmlns="http://www.w3.org/2000/svg" version="1.1">
 <metadata>
  <rdf:RDF xmlns:dc="http://purl.org/dc/elements/1.1/" xmlns:cc="http://creativecommons.org/ns#" xmlns:rdf="http://www.w3.org/1999/02/22-rdf-syntax-ns#">
   <cc:Work>
    <dc:type rdf:resource="http://purl.org/dc/dcmitype/StillImage"/>
    <dc:date>2023-09-01T15:41:18.241475</dc:date>
    <dc:format>image/svg+xml</dc:format>
    <dc:creator>
     <cc:Agent>
      <dc:title>Matplotlib v3.6.0, https://matplotlib.org/</dc:title>
     </cc:Agent>
    </dc:creator>
   </cc:Work>
  </rdf:RDF>
 </metadata>
 <defs>
  <style type="text/css">*{stroke-linejoin: round; stroke-linecap: butt}</style>
 </defs>
 <g id="figure_1">
  <g id="patch_1">
   <path d="M 0 216 
L 216 216 
L 216 0 
L 0 0 
z
" style="fill: #ffffff"/>
  </g>
  <g id="axes_1">
   <g id="patch_2">
    <path d="M 27 192.24 
L 194.4 192.24 
L 194.4 25.92 
L 27 25.92 
z
" style="fill: #ffffff"/>
   </g>
   <g id="PathCollection_1">
    <defs>
     <path id="C0_0_6c7b043d8c" d="M 0 4.1833 
C 1.109424 4.1833 2.173559 3.742521 2.95804 2.95804 
C 3.742521 2.173559 4.1833 1.109424 4.1833 -0 
C 4.1833 -1.109424 3.742521 -2.173559 2.95804 -2.95804 
C 2.173559 -3.742521 1.109424 -4.1833 0 -4.1833 
C -1.109424 -4.1833 -2.173559 -3.742521 -2.95804 -2.95804 
C -3.742521 -2.173559 -4.1833 -1.109424 -4.1833 0 
C -4.1833 1.109424 -3.742521 2.173559 -2.95804 2.95804 
C -2.173559 3.742521 -1.109424 4.1833 0 4.1833 
z
"/>
    </defs>
    <g clip-path="url(#pd630225d3e)">
     <use xlink:href="#C0_0_6c7b043d8c" x="118.060316" y="135.679925" style="fill: #ff7f0e; fill-opacity: 0.5; stroke: #000000; stroke-opacity: 0.5; stroke-width: 0.669328"/>
    </g>
    <g clip-path="url(#pd630225d3e)">
     <use xlink:href="#C0_0_6c7b043d8c" x="150.179633" y="105.61593" style="fill: #2ca02c; fill-opacity: 0.5; stroke: #000000; stroke-opacity: 0.5; stroke-width: 0.669328"/>
    </g>
    <g clip-path="url(#pd630225d3e)">
     <use xlink:href="#C0_0_6c7b043d8c" x="104.105324" y="149.184472" style="fill: #d62728; fill-opacity: 0.5; stroke: #000000; stroke-opacity: 0.5; stroke-width: 0.669328"/>
    </g>
    <g clip-path="url(#pd630225d3e)">
     <use xlink:href="#C0_0_6c7b043d8c" x="164.458733" y="89.72328" style="fill: #9467bd; fill-opacity: 0.5; stroke: #000000; stroke-opacity: 0.5; stroke-width: 0.669328"/>
    </g>
    <g clip-path="url(#pd630225d3e)">
     <use xlink:href="#C0_0_6c7b043d8c" x="186.790909" y="68.975528" style="fill: #8c564b; fill-opacity: 0.5; stroke: #000000; stroke-opacity: 0.5; stroke-width: 0.669328"/>
    </g>
   </g>
   <g id="PathCollection_2"/>
   <g id="PathCollection_3"/>
   <g id="PathCollection_4"/>
   <g id="PathCollection_5"/>
   <g id="PathCollection_6"/>
   <g id="PathCollection_7"/>
   <g id="PathCollection_8"/>
   <g id="matplotlib.axis_1">
    <g id="xtick_1">
     <g id="line2d_1">
      <defs>
       <path id="m90ffcf9cad" d="M 0 0 
L 0 3.5 
" style="stroke: #000000; stroke-width: 0.8"/>
      </defs>
      <g>
       <use xlink:href="#m90ffcf9cad" x="68.357913" y="192.24" style="stroke: #000000; stroke-width: 0.8"/>
      </g>
     </g>
     <g id="text_1">
      <!-- $\mathdefault{10^{1}}$ -->
      <g transform="translate(59.557913 206.838437)">
       <text>
        <tspan style="font: 10px 'DejaVu Sans'" x="0 6.362305" y="-0.06406250000000036">10</tspan>
        <tspan style="font: 7px 'DejaVu Sans'" x="12.820312" y="-3.8921875000000004">1</tspan>
       </text>
      </g>
     </g>
    </g>
    <g id="xtick_2">
     <g id="line2d_2">
      <g>
       <use xlink:href="#m90ffcf9cad" x="116.64156" y="192.24" style="stroke: #000000; stroke-width: 0.8"/>
      </g>
     </g>
     <g id="text_2">
      <!-- $\mathdefault{10^{2}}$ -->
      <g transform="translate(107.84156 206.838437)">
       <text>
        <tspan style="font: 10px 'DejaVu Sans'" x="0 6.362305" y="-0.9765625">10</tspan>
        <tspan style="font: 7px 'DejaVu Sans'" x="12.820312" y="-4.8046875">2</tspan>
       </text>
      </g>
     </g>
    </g>
    <g id="xtick_3">
     <g id="line2d_3">
      <g>
       <use xlink:href="#m90ffcf9cad" x="164.925208" y="192.24" style="stroke: #000000; stroke-width: 0.8"/>
      </g>
     </g>
     <g id="text_3">
      <!-- $\mathdefault{10^{3}}$ -->
      <g transform="translate(156.125208 206.838437)">
       <text>
        <tspan style="font: 10px 'DejaVu Sans'" x="0 6.362305" y="-0.9765625">10</tspan>
        <tspan style="font: 7px 'DejaVu Sans'" x="12.820312" y="-4.8046875">3</tspan>
       </text>
      </g>
     </g>
    </g>
    <g id="xtick_4">
     <g id="line2d_4">
      <defs>
       <path id="maa78f036b4" d="M 0 0 
L 0 2 
" style="stroke: #000000; stroke-width: 0.6"/>
      </defs>
      <g>
       <use xlink:href="#maa78f036b4" x="34.609091" y="192.24" style="stroke: #000000; stroke-width: 0.6"/>
      </g>
     </g>
    </g>
    <g id="xtick_5">
     <g id="line2d_5">
      <g>
       <use xlink:href="#maa78f036b4" x="43.111419" y="192.24" style="stroke: #000000; stroke-width: 0.6"/>
      </g>
     </g>
    </g>
    <g id="xtick_6">
     <g id="line2d_6">
      <g>
       <use xlink:href="#maa78f036b4" x="49.143917" y="192.24" style="stroke: #000000; stroke-width: 0.6"/>
      </g>
     </g>
    </g>
    <g id="xtick_7">
     <g id="line2d_7">
      <g>
       <use xlink:href="#maa78f036b4" x="53.823086" y="192.24" style="stroke: #000000; stroke-width: 0.6"/>
      </g>
     </g>
    </g>
    <g id="xtick_8">
     <g id="line2d_8">
      <g>
       <use xlink:href="#maa78f036b4" x="57.646246" y="192.24" style="stroke: #000000; stroke-width: 0.6"/>
      </g>
     </g>
    </g>
    <g id="xtick_9">
     <g id="line2d_9">
      <g>
       <use xlink:href="#maa78f036b4" x="60.878681" y="192.24" style="stroke: #000000; stroke-width: 0.6"/>
      </g>
     </g>
    </g>
    <g id="xtick_10">
     <g id="line2d_10">
      <g>
       <use xlink:href="#maa78f036b4" x="63.678744" y="192.24" style="stroke: #000000; stroke-width: 0.6"/>
      </g>
     </g>
    </g>
    <g id="xtick_11">
     <g id="line2d_11">
      <g>
       <use xlink:href="#maa78f036b4" x="66.148574" y="192.24" style="stroke: #000000; stroke-width: 0.6"/>
      </g>
     </g>
    </g>
    <g id="xtick_12">
     <g id="line2d_12">
      <g>
       <use xlink:href="#maa78f036b4" x="82.892739" y="192.24" style="stroke: #000000; stroke-width: 0.6"/>
      </g>
     </g>
    </g>
    <g id="xtick_13">
     <g id="line2d_13">
      <g>
       <use xlink:href="#maa78f036b4" x="91.395067" y="192.24" style="stroke: #000000; stroke-width: 0.6"/>
      </g>
     </g>
    </g>
    <g id="xtick_14">
     <g id="line2d_14">
      <g>
       <use xlink:href="#maa78f036b4" x="97.427565" y="192.24" style="stroke: #000000; stroke-width: 0.6"/>
      </g>
     </g>
    </g>
    <g id="xtick_15">
     <g id="line2d_15">
      <g>
       <use xlink:href="#maa78f036b4" x="102.106734" y="192.24" style="stroke: #000000; stroke-width: 0.6"/>
      </g>
     </g>
    </g>
    <g id="xtick_16">
     <g id="line2d_16">
      <g>
       <use xlink:href="#maa78f036b4" x="105.929894" y="192.24" style="stroke: #000000; stroke-width: 0.6"/>
      </g>
     </g>
    </g>
    <g id="xtick_17">
     <g id="line2d_17">
      <g>
       <use xlink:href="#maa78f036b4" x="109.162329" y="192.24" style="stroke: #000000; stroke-width: 0.6"/>
      </g>
     </g>
    </g>
    <g id="xtick_18">
     <g id="line2d_18">
      <g>
       <use xlink:href="#maa78f036b4" x="111.962391" y="192.24" style="stroke: #000000; stroke-width: 0.6"/>
      </g>
     </g>
    </g>
    <g id="xtick_19">
     <g id="line2d_19">
      <g>
       <use xlink:href="#maa78f036b4" x="114.432222" y="192.24" style="stroke: #000000; stroke-width: 0.6"/>
      </g>
     </g>
    </g>
    <g id="xtick_20">
     <g id="line2d_20">
      <g>
       <use xlink:href="#maa78f036b4" x="131.176387" y="192.24" style="stroke: #000000; stroke-width: 0.6"/>
      </g>
     </g>
    </g>
    <g id="xtick_21">
     <g id="line2d_21">
      <g>
       <use xlink:href="#maa78f036b4" x="139.678715" y="192.24" style="stroke: #000000; stroke-width: 0.6"/>
      </g>
     </g>
    </g>
    <g id="xtick_22">
     <g id="line2d_22">
      <g>
       <use xlink:href="#maa78f036b4" x="145.711213" y="192.24" style="stroke: #000000; stroke-width: 0.6"/>
      </g>
     </g>
    </g>
    <g id="xtick_23">
     <g id="line2d_23">
      <g>
       <use xlink:href="#maa78f036b4" x="150.390382" y="192.24" style="stroke: #000000; stroke-width: 0.6"/>
      </g>
     </g>
    </g>
    <g id="xtick_24">
     <g id="line2d_24">
      <g>
       <use xlink:href="#maa78f036b4" x="154.213541" y="192.24" style="stroke: #000000; stroke-width: 0.6"/>
      </g>
     </g>
    </g>
    <g id="xtick_25">
     <g id="line2d_25">
      <g>
       <use xlink:href="#maa78f036b4" x="157.445977" y="192.24" style="stroke: #000000; stroke-width: 0.6"/>
      </g>
     </g>
    </g>
    <g id="xtick_26">
     <g id="line2d_26">
      <g>
       <use xlink:href="#maa78f036b4" x="160.246039" y="192.24" style="stroke: #000000; stroke-width: 0.6"/>
      </g>
     </g>
    </g>
    <g id="xtick_27">
     <g id="line2d_27">
      <g>
       <use xlink:href="#maa78f036b4" x="162.71587" y="192.24" style="stroke: #000000; stroke-width: 0.6"/>
      </g>
     </g>
    </g>
    <g id="xtick_28">
     <g id="line2d_28">
      <g>
       <use xlink:href="#maa78f036b4" x="179.460035" y="192.24" style="stroke: #000000; stroke-width: 0.6"/>
      </g>
     </g>
    </g>
    <g id="xtick_29">
     <g id="line2d_29">
      <g>
       <use xlink:href="#maa78f036b4" x="187.962363" y="192.24" style="stroke: #000000; stroke-width: 0.6"/>
      </g>
     </g>
    </g>
    <g id="xtick_30">
     <g id="line2d_30">
      <g>
       <use xlink:href="#maa78f036b4" x="193.994861" y="192.24" style="stroke: #000000; stroke-width: 0.6"/>
      </g>
     </g>
    </g>
    <g id="text_4">
     <text style="font: 10px 'sans-serif'; text-anchor: middle" x="110.7" y="220.516562" transform="rotate(-0 110.7 220.516562)">MT reads without 16S/12S</text>
    </g>
   </g>
   <g id="matplotlib.axis_2">
    <g id="ytick_1">
     <g id="line2d_31">
      <defs>
       <path id="m63f23c0ea6" d="M 0 0 
L -3.5 0 
" style="stroke: #000000; stroke-width: 0.8"/>
      </defs>
      <g>
       <use xlink:href="#m63f23c0ea6" x="27" y="190.868849" style="stroke: #000000; stroke-width: 0.8"/>
      </g>
     </g>
     <g id="text_5">
      <!-- $\mathdefault{10^{1}}$ -->
      <g transform="translate(2.4 194.668068)">
       <text>
        <tspan style="font: 10px 'DejaVu Sans'" x="0 6.362305" y="-0.06406250000000036">10</tspan>
        <tspan style="font: 7px 'DejaVu Sans'" x="12.820312" y="-3.8921875000000004">1</tspan>
       </text>
      </g>
     </g>
    </g>
    <g id="ytick_2">
     <g id="line2d_32">
      <g>
       <use xlink:href="#m63f23c0ea6" x="27" y="142.585201" style="stroke: #000000; stroke-width: 0.8"/>
      </g>
     </g>
     <g id="text_6">
      <!-- $\mathdefault{10^{2}}$ -->
      <g transform="translate(2.4 146.38442)">
       <text>
        <tspan style="font: 10px 'DejaVu Sans'" x="0 6.362305" y="-0.9765625">10</tspan>
        <tspan style="font: 7px 'DejaVu Sans'" x="12.820312" y="-4.8046875">2</tspan>
       </text>
      </g>
     </g>
    </g>
    <g id="ytick_3">
     <g id="line2d_33">
      <g>
       <use xlink:href="#m63f23c0ea6" x="27" y="94.301553" style="stroke: #000000; stroke-width: 0.8"/>
      </g>
     </g>
     <g id="text_7">
      <!-- $\mathdefault{10^{3}}$ -->
      <g transform="translate(2.4 98.100772)">
       <text>
        <tspan style="font: 10px 'DejaVu Sans'" x="0 6.362305" y="-0.9765625">10</tspan>
        <tspan style="font: 7px 'DejaVu Sans'" x="12.820312" y="-4.8046875">3</tspan>
       </text>
      </g>
     </g>
    </g>
    <g id="ytick_4">
     <g id="line2d_34">
      <g>
       <use xlink:href="#m63f23c0ea6" x="27" y="46.017905" style="stroke: #000000; stroke-width: 0.8"/>
      </g>
     </g>
     <g id="text_8">
      <!-- $\mathdefault{10^{4}}$ -->
      <g transform="translate(2.4 49.817124)">
       <text>
        <tspan style="font: 10px 'DejaVu Sans'" x="0 6.362305" y="-0.06406250000000036">10</tspan>
        <tspan style="font: 7px 'DejaVu Sans'" x="12.820312" y="-3.8921875000000004">4</tspan>
       </text>
      </g>
     </g>
    </g>
    <g id="ytick_5">
     <g id="line2d_35">
      <defs>
       <path id="mae89fd9415" d="M 0 0 
L -2 0 
" style="stroke: #000000; stroke-width: 0.6"/>
      </defs>
      <g>
       <use xlink:href="#mae89fd9415" x="27" y="176.334023" style="stroke: #000000; stroke-width: 0.6"/>
      </g>
     </g>
    </g>
    <g id="ytick_6">
     <g id="line2d_36">
      <g>
       <use xlink:href="#mae89fd9415" x="27" y="167.831695" style="stroke: #000000; stroke-width: 0.6"/>
      </g>
     </g>
    </g>
    <g id="ytick_7">
     <g id="line2d_37">
      <g>
       <use xlink:href="#mae89fd9415" x="27" y="161.799197" style="stroke: #000000; stroke-width: 0.6"/>
      </g>
     </g>
    </g>
    <g id="ytick_8">
     <g id="line2d_38">
      <g>
       <use xlink:href="#mae89fd9415" x="27" y="157.120028" style="stroke: #000000; stroke-width: 0.6"/>
      </g>
     </g>
    </g>
    <g id="ytick_9">
     <g id="line2d_39">
      <g>
       <use xlink:href="#mae89fd9415" x="27" y="153.296868" style="stroke: #000000; stroke-width: 0.6"/>
      </g>
     </g>
    </g>
    <g id="ytick_10">
     <g id="line2d_40">
      <g>
       <use xlink:href="#mae89fd9415" x="27" y="150.064433" style="stroke: #000000; stroke-width: 0.6"/>
      </g>
     </g>
    </g>
    <g id="ytick_11">
     <g id="line2d_41">
      <g>
       <use xlink:href="#mae89fd9415" x="27" y="147.26437" style="stroke: #000000; stroke-width: 0.6"/>
      </g>
     </g>
    </g>
    <g id="ytick_12">
     <g id="line2d_42">
      <g>
       <use xlink:href="#mae89fd9415" x="27" y="144.79454" style="stroke: #000000; stroke-width: 0.6"/>
      </g>
     </g>
    </g>
    <g id="ytick_13">
     <g id="line2d_43">
      <g>
       <use xlink:href="#mae89fd9415" x="27" y="128.050375" style="stroke: #000000; stroke-width: 0.6"/>
      </g>
     </g>
    </g>
    <g id="ytick_14">
     <g id="line2d_44">
      <g>
       <use xlink:href="#mae89fd9415" x="27" y="119.548047" style="stroke: #000000; stroke-width: 0.6"/>
      </g>
     </g>
    </g>
    <g id="ytick_15">
     <g id="line2d_45">
      <g>
       <use xlink:href="#mae89fd9415" x="27" y="113.515549" style="stroke: #000000; stroke-width: 0.6"/>
      </g>
     </g>
    </g>
    <g id="ytick_16">
     <g id="line2d_46">
      <g>
       <use xlink:href="#mae89fd9415" x="27" y="108.83638" style="stroke: #000000; stroke-width: 0.6"/>
      </g>
     </g>
    </g>
    <g id="ytick_17">
     <g id="line2d_47">
      <g>
       <use xlink:href="#mae89fd9415" x="27" y="105.01322" style="stroke: #000000; stroke-width: 0.6"/>
      </g>
     </g>
    </g>
    <g id="ytick_18">
     <g id="line2d_48">
      <g>
       <use xlink:href="#mae89fd9415" x="27" y="101.780785" style="stroke: #000000; stroke-width: 0.6"/>
      </g>
     </g>
    </g>
    <g id="ytick_19">
     <g id="line2d_49">
      <g>
       <use xlink:href="#mae89fd9415" x="27" y="98.980722" style="stroke: #000000; stroke-width: 0.6"/>
      </g>
     </g>
    </g>
    <g id="ytick_20">
     <g id="line2d_50">
      <g>
       <use xlink:href="#mae89fd9415" x="27" y="96.510892" style="stroke: #000000; stroke-width: 0.6"/>
      </g>
     </g>
    </g>
    <g id="ytick_21">
     <g id="line2d_51">
      <g>
       <use xlink:href="#mae89fd9415" x="27" y="79.766727" style="stroke: #000000; stroke-width: 0.6"/>
      </g>
     </g>
    </g>
    <g id="ytick_22">
     <g id="line2d_52">
      <g>
       <use xlink:href="#mae89fd9415" x="27" y="71.264399" style="stroke: #000000; stroke-width: 0.6"/>
      </g>
     </g>
    </g>
    <g id="ytick_23">
     <g id="line2d_53">
      <g>
       <use xlink:href="#mae89fd9415" x="27" y="65.231901" style="stroke: #000000; stroke-width: 0.6"/>
      </g>
     </g>
    </g>
    <g id="ytick_24">
     <g id="line2d_54">
      <g>
       <use xlink:href="#mae89fd9415" x="27" y="60.552732" style="stroke: #000000; stroke-width: 0.6"/>
      </g>
     </g>
    </g>
    <g id="ytick_25">
     <g id="line2d_55">
      <g>
       <use xlink:href="#mae89fd9415" x="27" y="56.729572" style="stroke: #000000; stroke-width: 0.6"/>
      </g>
     </g>
    </g>
    <g id="ytick_26">
     <g id="line2d_56">
      <g>
       <use xlink:href="#mae89fd9415" x="27" y="53.497137" style="stroke: #000000; stroke-width: 0.6"/>
      </g>
     </g>
    </g>
    <g id="ytick_27">
     <g id="line2d_57">
      <g>
       <use xlink:href="#mae89fd9415" x="27" y="50.697074" style="stroke: #000000; stroke-width: 0.6"/>
      </g>
     </g>
    </g>
    <g id="ytick_28">
     <g id="line2d_58">
      <g>
       <use xlink:href="#mae89fd9415" x="27" y="48.227244" style="stroke: #000000; stroke-width: 0.6"/>
      </g>
     </g>
    </g>
    <g id="ytick_29">
     <g id="line2d_59">
      <g>
       <use xlink:href="#mae89fd9415" x="27" y="31.483079" style="stroke: #000000; stroke-width: 0.6"/>
      </g>
     </g>
    </g>
    <g id="text_9">
     <text style="font: 10px 'sans-serif'; text-anchor: middle" x="-3.679688" y="109.08" transform="rotate(-90 -3.679688 109.08)">MT reads with 16S/12S</text>
    </g>
   </g>
   <g id="line2d_60">
    <path d="M 66.986762 192.24 
L 194.4 64.826762 
" clip-path="url(#pd630225d3e)" style="fill: none; stroke: #1f77b4; stroke-width: 1.5; stroke-linecap: square"/>
   </g>
   <g id="patch_3">
    <path d="M 27 192.24 
L 27 25.92 
" style="fill: none; stroke: #000000; stroke-width: 0.8; stroke-linejoin: miter; stroke-linecap: square"/>
   </g>
   <g id="patch_4">
    <path d="M 194.4 192.24 
L 194.4 25.92 
" style="fill: none; stroke: #000000; stroke-width: 0.8; stroke-linejoin: miter; stroke-linecap: square"/>
   </g>
   <g id="patch_5">
    <path d="M 27 192.24 
L 194.4 192.24 
" style="fill: none; stroke: #000000; stroke-width: 0.8; stroke-linejoin: miter; stroke-linecap: square"/>
   </g>
   <g id="patch_6">
    <path d="M 27 25.92 
L 194.4 25.92 
" style="fill: none; stroke: #000000; stroke-width: 0.8; stroke-linejoin: miter; stroke-linecap: square"/>
   </g>
   <g id="text_10">
    <text style="font: 12px 'sans-serif'; text-anchor: middle" x="110.7" y="19.92" transform="rotate(-0 110.7 19.92)">HJ200065-20200112-1</text>
   </g>
   <g id="legend_1">
    <g id="patch_7">
     <path d="M 24.75625 151.345 
L 187.4 151.345 
Q 189.4 151.345 189.4 149.345 
L 189.4 32.92 
Q 189.4 30.92 187.4 30.92 
L 24.75625 30.92 
Q 22.75625 30.92 22.75625 32.92 
L 22.75625 149.345 
Q 22.75625 151.345 24.75625 151.345 
z
" style="fill: #ffffff; opacity: 0.8; stroke: #cccccc; stroke-linejoin: miter"/>
    </g>
    <g id="text_11">
     <text style="font: 10px 'sans-serif'; text-anchor: start" x="86.833594" y="42.518438" transform="rotate(-0 86.833594 42.518438)">Species</text>
    </g>
    <g id="PathCollection_9">
     <defs>
      <path id="m9f0e58556c" d="M 0 3 
C 0.795609 3 1.55874 2.683901 2.12132 2.12132 
C 2.683901 1.55874 3 0.795609 3 0 
C 3 -0.795609 2.683901 -1.55874 2.12132 -2.12132 
C 1.55874 -2.683901 0.795609 -3 0 -3 
C -0.795609 -3 -1.55874 -2.683901 -2.12132 -2.12132 
C -2.683901 -1.55874 -3 -0.795609 -3 0 
C -3 0.795609 -2.683901 1.55874 -2.12132 2.12132 
C -1.55874 2.683901 -0.795609 3 0 3 
z
" style="stroke: #1f77b4"/>
     </defs>
     <g>
      <use xlink:href="#m9f0e58556c" x="36.75625" y="54.571563" style="fill: #1f77b4; stroke: #1f77b4"/>
     </g>
    </g>
    <g id="text_12">
     <text style="font: 10px 'sans-serif'; text-anchor: start" x="54.75625" y="57.196563" transform="rotate(-0 54.75625 57.196563)">Hystrix brachyura</text>
    </g>
    <g id="PathCollection_10">
     <defs>
      <path id="mea99dca51f" d="M 0 3 
C 0.795609 3 1.55874 2.683901 2.12132 2.12132 
C 2.683901 1.55874 3 0.795609 3 0 
C 3 -0.795609 2.683901 -1.55874 2.12132 -2.12132 
C 1.55874 -2.683901 0.795609 -3 0 -3 
C -0.795609 -3 -1.55874 -2.683901 -2.12132 -2.12132 
C -2.683901 -1.55874 -3 -0.795609 -3 0 
C -3 0.795609 -2.683901 1.55874 -2.12132 2.12132 
C -1.55874 2.683901 -0.795609 3 0 3 
z
" style="stroke: #ff7f0e"/>
     </defs>
     <g>
      <use xlink:href="#mea99dca51f" x="36.75625" y="69.249688" style="fill: #ff7f0e; stroke: #ff7f0e"/>
     </g>
    </g>
    <g id="text_13">
     <text style="font: 10px 'sans-serif'; text-anchor: start" x="54.75625" y="71.874688" transform="rotate(-0 54.75625 71.874688)">Erinaceus amurensis</text>
    </g>
    <g id="PathCollection_11">
     <defs>
      <path id="m4bf86e801f" d="M 0 3 
C 0.795609 3 1.55874 2.683901 2.12132 2.12132 
C 2.683901 1.55874 3 0.795609 3 0 
C 3 -0.795609 2.683901 -1.55874 2.12132 -2.12132 
C 1.55874 -2.683901 0.795609 -3 0 -3 
C -0.795609 -3 -1.55874 -2.683901 -2.12132 -2.12132 
C -2.683901 -1.55874 -3 -0.795609 -3 0 
C -3 0.795609 -2.683901 1.55874 -2.12132 2.12132 
C -1.55874 2.683901 -0.795609 3 0 3 
z
" style="stroke: #2ca02c"/>
     </defs>
     <g>
      <use xlink:href="#m4bf86e801f" x="36.75625" y="83.927813" style="fill: #2ca02c; stroke: #2ca02c"/>
     </g>
    </g>
    <g id="text_14">
     <text style="font: 10px 'sans-serif'; text-anchor: start" x="54.75625" y="86.552813" transform="rotate(-0 54.75625 86.552813)">Canis lupus</text>
    </g>
    <g id="PathCollection_12">
     <defs>
      <path id="me968da0415" d="M 0 3 
C 0.795609 3 1.55874 2.683901 2.12132 2.12132 
C 2.683901 1.55874 3 0.795609 3 0 
C 3 -0.795609 2.683901 -1.55874 2.12132 -2.12132 
C 1.55874 -2.683901 0.795609 -3 0 -3 
C -0.795609 -3 -1.55874 -2.683901 -2.12132 -2.12132 
C -2.683901 -1.55874 -3 -0.795609 -3 0 
C -3 0.795609 -2.683901 1.55874 -2.12132 2.12132 
C -1.55874 2.683901 -0.795609 3 0 3 
z
" style="stroke: #d62728"/>
     </defs>
     <g>
      <use xlink:href="#me968da0415" x="36.75625" y="98.605938" style="fill: #d62728; stroke: #d62728"/>
     </g>
    </g>
    <g id="text_15">
     <text style="font: 10px 'sans-serif'; text-anchor: start" x="54.75625" y="101.230938" transform="rotate(-0 54.75625 101.230938)">Homo sapiens</text>
    </g>
    <g id="PathCollection_13">
     <defs>
      <path id="m7e8ee883e5" d="M 0 3 
C 0.795609 3 1.55874 2.683901 2.12132 2.12132 
C 2.683901 1.55874 3 0.795609 3 0 
C 3 -0.795609 2.683901 -1.55874 2.12132 -2.12132 
C 1.55874 -2.683901 0.795609 -3 0 -3 
C -0.795609 -3 -1.55874 -2.683901 -2.12132 -2.12132 
C -2.683901 -1.55874 -3 -0.795609 -3 0 
C -3 0.795609 -2.683901 1.55874 -2.12132 2.12132 
C -1.55874 2.683901 -0.795609 3 0 3 
z
" style="stroke: #9467bd"/>
     </defs>
     <g>
      <use xlink:href="#m7e8ee883e5" x="36.75625" y="113.284063" style="fill: #9467bd; stroke: #9467bd"/>
     </g>
    </g>
    <g id="text_16">
     <text style="font: 10px 'sans-serif'; text-anchor: start" x="54.75625" y="115.909063" transform="rotate(-0 54.75625 115.909063)">Nyctereutes procyonoides</text>
    </g>
    <g id="PathCollection_14">
     <defs>
      <path id="m2d71b242c8" d="M 0 3 
C 0.795609 3 1.55874 2.683901 2.12132 2.12132 
C 2.683901 1.55874 3 0.795609 3 0 
C 3 -0.795609 2.683901 -1.55874 2.12132 -2.12132 
C 1.55874 -2.683901 0.795609 -3 0 -3 
C -0.795609 -3 -1.55874 -2.683901 -2.12132 -2.12132 
C -2.683901 -1.55874 -3 -0.795609 -3 0 
C -3 0.795609 -2.683901 1.55874 -2.12132 2.12132 
C -1.55874 2.683901 -0.795609 3 0 3 
z
" style="stroke: #8c564b"/>
     </defs>
     <g>
      <use xlink:href="#m2d71b242c8" x="36.75625" y="127.962188" style="fill: #8c564b; stroke: #8c564b"/>
     </g>
    </g>
    <g id="text_17">
     <text style="font: 10px 'sans-serif'; text-anchor: start" x="54.75625" y="130.587188" transform="rotate(-0 54.75625 130.587188)">Rhizomys pruinosus</text>
    </g>
    <g id="PathCollection_15">
     <defs>
      <path id="m05aa3f97fa" d="M 0 3 
C 0.795609 3 1.55874 2.683901 2.12132 2.12132 
C 2.683901 1.55874 3 0.795609 3 0 
C 3 -0.795609 2.683901 -1.55874 2.12132 -2.12132 
C 1.55874 -2.683901 0.795609 -3 0 -3 
C -0.795609 -3 -1.55874 -2.683901 -2.12132 -2.12132 
C -2.683901 -1.55874 -3 -0.795609 -3 0 
C -3 0.795609 -2.683901 1.55874 -2.12132 2.12132 
C -1.55874 2.683901 -0.795609 3 0 3 
z
" style="stroke: #e377c2"/>
     </defs>
     <g>
      <use xlink:href="#m05aa3f97fa" x="36.75625" y="142.640313" style="fill: #e377c2; stroke: #e377c2"/>
     </g>
    </g>
    <g id="text_18">
     <text style="font: 10px 'sans-serif'; text-anchor: start" x="54.75625" y="145.265313" transform="rotate(-0 54.75625 145.265313)">Paguma larvata</text>
    </g>
   </g>
  </g>
 </g>
 <defs>
  <clipPath id="pd630225d3e">
   <rect x="27" y="25.92" width="167.4" height="166.32"/>
  </clipPath>
 </defs>
</svg>
