<?xml version="1.0" encoding="utf-8" standalone="no"?>
<!DOCTYPE svg PUBLIC "-//W3C//DTD SVG 1.1//EN"
  "http://www.w3.org/Graphics/SVG/1.1/DTD/svg11.dtd">
<svg xmlns:xlink="http://www.w3.org/1999/xlink" width="460.8pt" height="345.6pt" viewBox="0 0 460.8 345.6" xmlns="http://www.w3.org/2000/svg" version="1.1">
 <metadata>
  <rdf:RDF xmlns:dc="http://purl.org/dc/elements/1.1/" xmlns:cc="http://creativecommons.org/ns#" xmlns:rdf="http://www.w3.org/1999/02/22-rdf-syntax-ns#">
   <cc:Work>
    <dc:type rdf:resource="http://purl.org/dc/dcmitype/StillImage"/>
    <dc:date>2024-03-24T18:27:01.520923</dc:date>
    <dc:format>image/svg+xml</dc:format>
    <dc:creator>
     <cc:Agent>
      <dc:title>Matplotlib v3.7.4, https://matplotlib.org/</dc:title>
     </cc:Agent>
    </dc:creator>
   </cc:Work>
  </rdf:RDF>
 </metadata>
 <defs>
  <style type="text/css">*{stroke-linejoin: round; stroke-linecap: butt}</style>
 </defs>
 <g id="figure_1">
  <g id="patch_1">
   <path d="M 0 345.6 
L 460.8 345.6 
L 460.8 0 
L 0 0 
z
" style="fill: #ffffff"/>
  </g>
  <g id="axes_1">
   <g id="patch_2">
    <path d="M 57.6 307.584 
L 414.72 307.584 
L 414.72 41.472 
L 57.6 41.472 
z
" style="fill: #ffffff"/>
   </g>
   <g id="PolyCollection_1">
    <defs>
     <path id="m1ead3acb3f" d="M 73.832727 -333.666432 
L 73.832727 -323.021952 
L 77.112066 -323.021952 
L 80.391405 -323.554176 
L 83.670744 -323.021952 
L 86.950083 -323.288064 
L 90.229421 -302.265216 
L 93.50876 -302.265216 
L 96.788099 -302.524675 
L 100.067438 -302.265216 
L 103.346777 -300.402432 
L 106.626116 -299.870208 
L 109.905455 -299.870208 
L 113.184793 -299.604096 
L 116.464132 -298.539648 
L 119.743471 -298.273536 
L 123.02281 -298.539648 
L 126.302149 -298.273536 
L 129.581488 -297.741312 
L 132.860826 -296.942976 
L 136.140165 -296.676864 
L 139.419504 -296.942976 
L 142.698843 -296.942976 
L 145.978182 -294.275203 
L 149.257521 -294.015744 
L 152.53686 -294.015744 
L 155.816198 -294.015744 
L 159.095537 -293.48352 
L 162.374876 -293.48352 
L 165.654215 -293.48352 
L 168.933554 -293.48352 
L 172.212893 -293.217408 
L 175.492231 -291.620736 
L 178.77157 -292.15296 
L 182.050909 -291.088512 
L 185.330248 -291.620736 
L 188.609587 -290.024064 
L 191.888926 -289.757952 
L 195.168264 -290.024064 
L 198.447603 -289.757952 
L 201.726942 -288.16128 
L 205.006281 -288.16128 
L 208.28562 -288.154627 
L 211.564959 -288.16128 
L 214.844298 -284.701824 
L 218.123636 -284.435712 
L 221.402975 -284.435712 
L 224.682314 -283.371264 
L 227.961653 -283.371264 
L 231.240992 -279.372931 
L 234.520331 -278.049024 
L 237.799669 -278.308483 
L 241.079008 -277.782912 
L 244.358347 -274.323456 
L 247.637686 -273.791232 
L 250.917025 -273.252355 
L 254.196364 -273.791232 
L 257.475702 -270.864 
L 260.755041 -270.331776 
L 264.03438 -270.331776 
L 267.313719 -270.059011 
L 270.593058 -269.799552 
L 273.872397 -265.54176 
L 277.151736 -266.067331 
L 280.431074 -264.743424 
L 283.710413 -263.678976 
L 286.989752 -262.348416 
L 290.269091 -261.283968 
L 293.54843 -259.687296 
L 296.827769 -259.414531 
L 300.107107 -257.026176 
L 303.386446 -255.695616 
L 306.665785 -255.688963 
L 309.945124 -254.631168 
L 313.224463 -253.832832 
L 316.503802 -251.437824 
L 319.78314 -252.768384 
L 323.062479 -251.171712 
L 326.341818 -250.632835 
L 329.621157 -247.971715 
L 332.900496 -247.705603 
L 336.179835 -247.446144 
L 339.459174 -246.108931 
L 342.738512 -243.181699 
L 346.017851 -241.325568 
L 349.29719 -239.190019 
L 352.576529 -238.391683 
L 355.855868 -237.067776 
L 359.135207 -236.528899 
L 362.414545 -236.26944 
L 365.693884 -235.471104 
L 368.973223 -234.140544 
L 372.252562 -232.809984 
L 375.531901 -231.745536 
L 378.81124 -230.940547 
L 382.090579 -229.61664 
L 385.369917 -229.084416 
L 388.649256 -227.747203 
L 391.928595 -226.948867 
L 395.207934 -225.092736 
L 398.487273 -224.287747 
L 398.487273 -243.986688 
L 398.487273 -243.986688 
L 395.207934 -244.525565 
L 391.928595 -245.590013 
L 388.649256 -247.712256 
L 385.369917 -247.978368 
L 382.090579 -248.517245 
L 378.81124 -248.776704 
L 375.531901 -249.841152 
L 372.252562 -250.639488 
L 368.973223 -252.242813 
L 365.693884 -253.300608 
L 362.414545 -253.56672 
L 359.135207 -254.371709 
L 355.855868 -254.631168 
L 352.576529 -255.961728 
L 349.29719 -257.026176 
L 346.017851 -258.356736 
L 342.738512 -258.88896 
L 339.459174 -262.887293 
L 336.179835 -262.614528 
L 332.900496 -263.945088 
L 329.621157 -264.2112 
L 326.341818 -265.807872 
L 323.062479 -266.87232 
L 319.78314 -267.670656 
L 316.503802 -267.670656 
L 313.224463 -269.267328 
L 309.945124 -269.267328 
L 306.665785 -270.864 
L 303.386446 -270.864 
L 300.107107 -271.396224 
L 296.827769 -274.323456 
L 293.54843 -274.323456 
L 290.269091 -274.862333 
L 286.989752 -275.926781 
L 283.710413 -277.782912 
L 280.431074 -278.581248 
L 277.151736 -278.315136 
L 273.872397 -279.386237 
L 270.593058 -281.774592 
L 267.313719 -281.774592 
L 264.03438 -282.040704 
L 260.755041 -282.572928 
L 257.475702 -282.306816 
L 254.196364 -284.435712 
L 250.917025 -284.967936 
L 247.637686 -284.967936 
L 244.358347 -285.234048 
L 241.079008 -287.629056 
L 237.799669 -288.16128 
L 234.520331 -287.901821 
L 231.240992 -289.49184 
L 227.961653 -292.15296 
L 224.682314 -292.419072 
L 221.402975 -292.951296 
L 218.123636 -293.48352 
L 214.844298 -293.48352 
L 211.564959 -296.151293 
L 208.28562 -296.410752 
L 205.006281 -296.410752 
L 201.726942 -296.14464 
L 198.447603 -297.4752 
L 195.168264 -297.209088 
L 191.888926 -297.209088 
L 188.609587 -297.741312 
L 185.330248 -298.539648 
L 182.050909 -298.273536 
L 178.77157 -298.539648 
L 175.492231 -298.539648 
L 172.212893 -299.604096 
L 168.933554 -299.604096 
L 165.654215 -299.604096 
L 162.374876 -299.604096 
L 159.095537 -299.604096 
L 155.816198 -300.13632 
L 152.53686 -299.870208 
L 149.257521 -300.13632 
L 145.978182 -300.13632 
L 142.698843 -301.46688 
L 139.419504 -301.46688 
L 136.140165 -301.46688 
L 132.860826 -301.46688 
L 129.581488 -301.999104 
L 126.302149 -302.265216 
L 123.02281 -302.265216 
L 119.743471 -302.265216 
L 116.464132 -302.265216 
L 113.184793 -302.79744 
L 109.905455 -302.79744 
L 106.626116 -302.79744 
L 103.346777 -303.329664 
L 100.067438 -304.926336 
L 96.788099 -304.926336 
L 93.50876 -304.660224 
L 90.229421 -304.926336 
L 86.950083 -333.673085 
L 83.670744 -333.666432 
L 80.391405 -333.40032 
L 77.112066 -333.932544 
L 73.832727 -333.666432 
z
" style="stroke: #edd1cb; stroke-opacity: 0.2"/>
    </defs>
    <g clip-path="url(#p4785ca9589)">
     <use xlink:href="#m1ead3acb3f" x="0" y="345.6" style="fill: #edd1cb; fill-opacity: 0.2; stroke: #edd1cb; stroke-opacity: 0.2"/>
    </g>
   </g>
   <g id="PolyCollection_2">
    <defs>
     <path id="m32c579257a" d="M 73.832727 -456.876288 
L 73.832727 -427.337856 
L 77.112066 -428.129539 
L 80.391405 -427.603968 
L 83.670744 -426.532867 
L 86.950083 -426.53952 
L 90.229421 -306.78912 
L 93.50876 -303.595776 
L 96.788099 -302.265216 
L 100.067438 -301.999104 
L 103.346777 -297.741312 
L 106.626116 -297.468547 
L 109.905455 -297.209088 
L 113.184793 -296.942976 
L 116.464132 -294.81408 
L 119.743471 -294.547968 
L 123.02281 -294.547968 
L 126.302149 -294.547968 
L 129.581488 -294.81408 
L 132.860826 -292.951296 
L 136.140165 -292.685184 
L 139.419504 -292.419072 
L 142.698843 -292.146307 
L 145.978182 -288.686851 
L 149.257521 -287.895168 
L 152.53686 -287.629056 
L 155.816198 -287.362944 
L 159.095537 -280.976256 
L 162.374876 -281.235715 
L 165.654215 -280.710144 
L 168.933554 -280.976256 
L 172.212893 -280.976256 
L 175.492231 -277.5168 
L 178.77157 -277.244035 
L 182.050909 -277.250688 
L 185.330248 -276.452352 
L 188.609587 -273.791232 
L 191.888926 -273.259008 
L 195.168264 -272.726784 
L 198.447603 -271.662336 
L 201.726942 -270.331776 
L 205.006281 -270.059011 
L 208.28562 -269.001216 
L 211.564959 -268.735104 
L 214.844298 -265.275648 
L 218.123636 -265.275648 
L 221.402975 -264.743424 
L 224.682314 -265.268995 
L 227.961653 -264.2112 
L 231.240992 -261.017856 
L 234.520331 -259.953408 
L 237.799669 -259.155072 
L 241.079008 -258.083971 
L 244.358347 -254.092291 
L 247.637686 -253.034496 
L 250.917025 -253.300608 
L 254.196364 -252.502272 
L 257.475702 -249.308928 
L 260.755041 -249.036163 
L 264.03438 -247.978368 
L 267.313719 -247.180032 
L 270.593058 -246.647808 
L 273.872397 -244.778371 
L 277.151736 -244.778371 
L 280.431074 -242.92224 
L 283.710413 -243.188352 
L 286.989752 -239.995008 
L 290.269091 -237.593347 
L 293.54843 -236.801664 
L 296.827769 -236.535552 
L 300.107107 -234.400003 
L 303.386446 -232.543872 
L 306.665785 -231.745536 
L 309.945124 -231.213312 
L 313.224463 -229.084416 
L 316.503802 -226.416643 
L 319.78314 -225.352195 
L 323.062479 -224.2944 
L 326.341818 -223.496064 
L 329.621157 -220.568832 
L 332.900496 -220.30272 
L 336.179835 -220.036608 
L 339.459174 -218.439936 
L 342.738512 -216.31104 
L 346.017851 -215.778816 
L 349.29719 -215.772163 
L 352.576529 -214.175491 
L 355.855868 -212.585472 
L 359.135207 -210.722688 
L 362.414545 -209.392128 
L 365.693884 -209.126016 
L 368.973223 -208.593792 
L 372.252562 -206.731008 
L 375.531901 -204.063235 
L 378.81124 -204.069888 
L 382.090579 -203.00544 
L 385.369917 -200.876544 
L 388.649256 -200.078208 
L 391.928595 -199.812096 
L 395.207934 -199.279872 
L 398.487273 -196.345987 
L 398.487273 -217.6416 
L 398.487273 -217.6416 
L 395.207934 -221.906045 
L 391.928595 -221.639933 
L 388.649256 -222.444922 
L 385.369917 -223.229952 
L 382.090579 -225.092736 
L 378.81124 -225.62496 
L 375.531901 -226.429949 
L 372.252562 -227.753856 
L 368.973223 -229.882752 
L 365.693884 -230.155517 
L 362.414545 -230.9472 
L 359.135207 -232.284413 
L 355.855868 -233.60832 
L 352.576529 -235.204992 
L 349.29719 -236.26944 
L 346.017851 -236.26944 
L 342.738512 -237.074429 
L 339.459174 -238.664448 
L 336.179835 -239.735549 
L 332.900496 -239.196672 
L 329.621157 -241.059456 
L 326.341818 -243.720576 
L 323.062479 -244.2528 
L 319.78314 -245.58336 
L 316.503802 -246.122237 
L 313.224463 -249.308928 
L 309.945124 -250.113917 
L 306.665785 -250.9056 
L 303.386446 -251.437824 
L 300.107107 -251.703936 
L 296.827769 -254.637821 
L 293.54843 -254.903933 
L 290.269091 -255.429504 
L 286.989752 -257.5584 
L 283.710413 -259.687296 
L 280.431074 -260.485632 
L 277.151736 -260.751744 
L 273.872397 -260.492285 
L 270.593058 -262.621181 
L 267.313719 -263.945088 
L 264.03438 -263.685629 
L 260.755041 -264.483965 
L 257.475702 -265.275648 
L 254.196364 -267.670656 
L 250.917025 -268.20288 
L 247.637686 -268.468992 
L 244.358347 -269.799552 
L 241.079008 -273.259008 
L 237.799669 -273.52512 
L 234.520331 -274.057344 
L 231.240992 -275.387904 
L 227.961653 -277.257341 
L 224.682314 -277.782912 
L 221.402975 -277.782912 
L 218.123636 -278.315136 
L 214.844298 -279.113472 
L 211.564959 -280.444032 
L 208.28562 -280.710144 
L 205.006281 -280.982909 
L 201.726942 -281.242368 
L 198.447603 -283.105152 
L 195.168264 -283.105152 
L 191.888926 -283.903488 
L 188.609587 -283.903488 
L 185.330248 -286.298496 
L 182.050909 -286.83072 
L 178.77157 -286.837373 
L 175.492231 -287.096832 
L 172.212893 -289.757952 
L 168.933554 -290.290176 
L 165.654215 -290.290176 
L 162.374876 -290.290176 
L 159.095537 -290.290176 
L 155.816198 -294.547968 
L 152.53686 -295.080192 
L 149.257521 -295.080192 
L 145.978182 -295.612416 
L 142.698843 -298.273536 
L 139.419504 -298.007424 
L 136.140165 -298.539648 
L 132.860826 -298.539648 
L 129.581488 -300.13632 
L 126.302149 -300.13632 
L 123.02281 -299.876861 
L 119.743471 -300.402432 
L 116.464132 -300.668544 
L 113.184793 -302.265216 
L 109.905455 -302.271869 
L 106.626116 -302.531328 
L 103.346777 -303.063552 
L 100.067438 -307.321344 
L 96.788099 -308.11968 
L 93.50876 -309.716352 
L 90.229421 -314.77248 
L 86.950083 -457.1424 
L 83.670744 -456.616829 
L 80.391405 -456.616829 
L 77.112066 -457.1424 
L 73.832727 -456.876288 
z
" style="stroke: #daa4ac; stroke-opacity: 0.2"/>
    </defs>
    <g clip-path="url(#p4785ca9589)">
     <use xlink:href="#m32c579257a" x="0" y="345.6" style="fill: #daa4ac; fill-opacity: 0.2; stroke: #daa4ac; stroke-opacity: 0.2"/>
    </g>
   </g>
   <g id="PolyCollection_3">
    <path d="M 73.832727 -236.881152 
L 73.832727 -186.559373 
L 77.112066 -186.585984 
L 80.391405 -184.190976 
L 83.670744 -183.898253 
L 86.950083 -186.047107 
L 90.229421 29.49696 
L 93.50876 35.883648 
L 96.788099 38.81088 
L 100.067438 38.81088 
L 103.346777 48.657024 
L 106.626116 50.792573 
L 109.905455 51.318144 
L 113.184793 51.850368 
L 116.464132 56.913149 
L 119.743471 56.906496 
L 123.02281 56.906496 
L 126.302149 57.43872 
L 129.581488 57.172608 
L 132.860826 62.76096 
L 136.140165 62.494848 
L 139.419504 62.501501 
L 142.698843 63.027072 
L 145.978182 69.945984 
L 149.257521 70.212096 
L 152.53686 70.74432 
L 155.816198 70.212096 
L 159.095537 77.929344 
L 162.374876 78.993792 
L 165.654215 79.259904 
L 168.933554 79.792128 
L 172.212893 79.259904 
L 175.492231 84.582144 
L 178.77157 84.056573 
L 182.050909 85.38048 
L 185.330248 84.854909 
L 188.609587 90.968832 
L 191.888926 92.572157 
L 195.168264 92.03328 
L 198.447603 92.299392 
L 201.726942 99.224957 
L 205.006281 98.419968 
L 208.28562 99.224957 
L 211.564959 99.484416 
L 214.844298 103.476096 
L 218.123636 104.281085 
L 221.402975 104.547197 
L 224.682314 104.540544 
L 227.961653 104.806656 
L 231.240992 109.33056 
L 234.520331 110.395008 
L 237.799669 111.99168 
L 241.079008 110.927232 
L 244.358347 115.185024 
L 247.637686 115.98336 
L 250.917025 115.990013 
L 254.196364 117.320573 
L 257.475702 122.902272 
L 260.755041 122.902272 
L 264.03438 125.829504 
L 267.313719 127.160064 
L 270.593058 128.756736 
L 273.872397 133.812864 
L 277.151736 135.409536 
L 280.431074 136.207872 
L 283.710413 136.473984 
L 286.989752 142.062336 
L 290.269091 143.392896 
L 293.54843 145.528445 
L 296.827769 144.989568 
L 300.107107 150.844032 
L 303.386446 151.382909 
L 306.665785 154.037376 
L 309.945124 154.576253 
L 313.224463 155.634048 
L 316.503802 159.093504 
L 319.78314 161.229053 
L 323.062479 162.825725 
L 326.341818 163.890173 
L 329.621157 168.141312 
L 332.900496 169.485178 
L 336.179835 170.809085 
L 339.459174 171.607421 
L 342.738512 172.665216 
L 346.017851 174.800765 
L 349.29719 174.800765 
L 352.576529 176.390784 
L 355.855868 179.318016 
L 359.135207 180.382464 
L 362.414545 180.382464 
L 365.693884 181.1808 
L 368.973223 181.985789 
L 372.252562 184.108032 
L 375.531901 185.704704 
L 378.81124 188.106365 
L 382.090579 189.170813 
L 385.369917 190.49472 
L 388.649256 194.759165 
L 391.928595 193.428605 
L 395.207934 196.355837 
L 398.487273 197.413632 
L 398.487273 169.199107 
L 398.487273 169.199107 
L 395.207934 166.804099 
L 391.928595 165.473539 
L 388.649256 165.21408 
L 385.369917 163.085184 
L 382.090579 161.488512 
L 378.81124 159.352963 
L 375.531901 157.749638 
L 372.252562 156.957955 
L 368.973223 155.095171 
L 365.693884 151.90848 
L 362.414545 154.835712 
L 359.135207 154.037376 
L 355.855868 151.376256 
L 352.576529 150.57792 
L 349.29719 149.24736 
L 346.017851 148.182912 
L 342.738512 147.644035 
L 339.459174 145.515139 
L 336.179835 144.71015 
L 332.900496 143.659008 
L 329.621157 142.860672 
L 326.341818 138.868992 
L 323.062479 138.336768 
L 319.78314 138.064003 
L 316.503802 135.409536 
L 313.224463 131.943427 
L 309.945124 131.683968 
L 306.665785 129.555072 
L 303.386446 128.490624 
L 300.107107 126.355075 
L 296.827769 123.96672 
L 293.54843 122.103936 
L 290.269091 121.837824 
L 286.989752 121.039488 
L 283.710413 114.918912 
L 280.431074 114.380035 
L 277.151736 114.386688 
L 273.872397 112.523904 
L 270.593058 106.935552 
L 267.313719 106.928899 
L 264.03438 104.540544 
L 260.755041 102.67776 
L 257.475702 102.411648 
L 254.196364 98.153856 
L 250.917025 97.348867 
L 247.637686 97.089408 
L 244.358347 95.752195 
L 241.079008 91.767168 
L 237.799669 91.767168 
L 234.520331 91.234944 
L 231.240992 90.170496 
L 227.961653 86.977152 
L 224.682314 85.912704 
L 221.402975 85.912704 
L 218.123636 86.172163 
L 214.844298 85.912704 
L 211.564959 82.187136 
L 208.28562 81.654912 
L 205.006281 82.17383 
L 201.726942 80.856576 
L 198.447603 76.864896 
L 195.168264 76.06656 
L 191.888926 75.534336 
L 188.609587 75.261571 
L 185.330248 69.41376 
L 182.050909 69.147648 
L 178.77157 68.615424 
L 175.492231 68.615424 
L 172.212893 64.357632 
L 168.933554 64.623744 
L 165.654215 64.350979 
L 162.374876 64.357632 
L 159.095537 63.559296 
L 155.816198 58.503168 
L 152.53686 58.76928 
L 149.257521 59.294851 
L 145.978182 59.028739 
L 142.698843 53.174275 
L 139.419504 53.44704 
L 136.140165 53.440387 
L 132.860826 53.44704 
L 129.581488 49.987584 
L 126.302149 50.253696 
L 123.02281 49.721472 
L 119.743471 49.45536 
L 116.464132 49.980931 
L 113.184793 46.521475 
L 109.905455 45.723139 
L 106.626116 44.931456 
L 103.346777 42.270336 
L 100.067438 30.561408 
L 96.788099 30.82752 
L 93.50876 26.303616 
L 90.229421 15.386371 
L 86.950083 -237.679488 
L 83.670744 -238.211712 
L 80.391405 -236.887805 
L 77.112066 -237.686141 
L 73.832727 -236.881152 
z
" clip-path="url(#p4785ca9589)" style="fill: #945785; fill-opacity: 0.2; stroke: #945785; stroke-opacity: 0.2"/>
   </g>
   <g id="PolyCollection_4">
    <path d="M 73.832727 -236.621693 
L 73.832727 -195.094915 
L 77.112066 -193.49159 
L 80.391405 -196.425475 
L 83.670744 -194.562691 
L 86.950083 -194.569344 
L 90.229421 37.746432 
L 93.50876 44.13312 
L 96.788099 46.528128 
L 100.067438 46.534781 
L 103.346777 59.567616 
L 106.626116 60.632064 
L 109.905455 61.164288 
L 113.184793 61.437053 
L 116.464132 71.808768 
L 119.743471 72.873216 
L 123.02281 73.145981 
L 126.302149 73.671552 
L 129.581488 73.678205 
L 132.860826 81.122688 
L 136.140165 82.193789 
L 139.419504 82.453248 
L 142.698843 82.71936 
L 145.978182 92.838269 
L 149.257521 93.896064 
L 152.53686 94.428288 
L 155.816198 93.629952 
L 159.095537 104.00832 
L 162.374876 104.813309 
L 165.654215 106.403328 
L 168.933554 106.66944 
L 172.212893 107.201664 
L 175.492231 114.6528 
L 178.77157 116.249472 
L 182.050909 117.054461 
L 185.330248 117.852797 
L 188.609587 126.634493 
L 191.888926 127.9584 
L 195.168264 128.490624 
L 198.447603 128.756736 
L 201.726942 136.740096 
L 205.006281 138.070656 
L 208.28562 137.811197 
L 211.564959 139.401216 
L 214.844298 144.723456 
L 218.123636 146.58624 
L 221.402975 147.650688 
L 224.682314 150.844032 
L 227.961653 150.57792 
L 231.240992 160.962941 
L 234.520331 162.55296 
L 237.799669 164.422397 
L 241.079008 166.012416 
L 244.358347 173.19744 
L 247.637686 175.599101 
L 250.917025 175.865213 
L 254.196364 178.785792 
L 257.475702 182.777472 
L 260.755041 184.108032 
L 264.03438 187.035264 
L 267.313719 186.50304 
L 270.593058 190.767485 
L 273.872397 196.615296 
L 277.151736 197.154173 
L 280.431074 199.283069 
L 283.710413 200.879741 
L 286.989752 205.935869 
L 290.269091 206.46144 
L 293.54843 207.792 
L 296.827769 208.330877 
L 300.107107 211.78368 
L 303.386446 213.919229 
L 306.665785 216.041472 
L 309.945124 216.839808 
L 313.224463 218.968704 
L 316.503802 221.636477 
L 319.78314 224.024832 
L 323.062479 224.297597 
L 326.341818 225.08928 
L 329.621157 230.41152 
L 332.900496 231.755386 
L 336.179835 234.409853 
L 339.459174 236.798208 
L 342.738512 239.991552 
L 346.017851 242.120448 
L 349.29719 244.515456 
L 352.576529 246.384893 
L 355.855868 248.241024 
L 359.135207 251.707133 
L 362.414545 253.037693 
L 365.693884 253.563264 
L 368.973223 257.827709 
L 372.252562 261.819389 
L 375.531901 262.617725 
L 378.81124 264.480509 
L 382.090579 266.875517 
L 385.369917 271.133309 
L 388.649256 273.521664 
L 391.928595 274.053888 
L 395.207934 275.663866 
L 398.487273 279.116669 
L 398.487273 247.442688 
L 398.487273 247.442688 
L 395.207934 243.71712 
L 391.928595 242.918784 
L 388.649256 242.120448 
L 385.369917 240.523776 
L 382.090579 236.798208 
L 378.81124 235.73376 
L 375.531901 233.604864 
L 372.252562 231.475968 
L 368.973223 226.952064 
L 365.693884 225.082627 
L 362.414545 224.024832 
L 359.135207 221.629824 
L 355.855868 218.43648 
L 352.576529 216.839808 
L 349.29719 213.905923 
L 346.017851 213.905923 
L 342.738512 210.719232 
L 339.459174 210.187008 
L 336.179835 206.720899 
L 332.900496 204.864768 
L 329.621157 202.196995 
L 326.341818 199.276416 
L 323.062479 198.211968 
L 319.78314 196.069766 
L 316.503802 193.681411 
L 313.224463 190.228608 
L 309.945124 190.228608 
L 306.665785 188.631936 
L 303.386446 188.365824 
L 300.107107 184.906368 
L 296.827769 181.706371 
L 293.54843 180.109699 
L 290.269091 180.901382 
L 286.989752 178.785792 
L 283.710413 174.528 
L 280.431074 172.931328 
L 277.151736 172.126339 
L 273.872397 169.192454 
L 270.593058 163.88352 
L 267.313719 161.488512 
L 264.03438 160.949635 
L 260.755041 158.56128 
L 257.475702 158.820739 
L 254.196364 152.972928 
L 250.917025 151.642368 
L 247.637686 151.110144 
L 244.358347 147.384576 
L 241.079008 141.523459 
L 237.799669 139.401216 
L 234.520331 138.868992 
L 231.240992 136.473984 
L 227.961653 129.022848 
L 224.682314 127.692288 
L 221.402975 125.290627 
L 218.123636 123.434496 
L 214.844298 122.370048 
L 211.564959 116.249472 
L 208.28562 115.976707 
L 205.006281 116.515584 
L 201.726942 115.451136 
L 198.447603 108.791683 
L 195.168264 108 
L 191.888926 106.935552 
L 188.609587 106.66944 
L 185.330248 100.01664 
L 182.050909 99.218304 
L 178.77157 98.153856 
L 175.492231 97.089408 
L 172.212893 91.494403 
L 168.933554 90.170496 
L 165.654215 90.696067 
L 162.374876 89.106048 
L 159.095537 88.307712 
L 155.816198 78.987139 
L 152.53686 78.993792 
L 149.257521 78.72768 
L 145.978182 78.195456 
L 142.698843 69.679872 
L 139.419504 69.679872 
L 136.140165 69.679872 
L 132.860826 68.615424 
L 129.581488 63.027072 
L 126.302149 63.027072 
L 123.02281 62.494848 
L 119.743471 61.962624 
L 116.464132 60.898176 
L 113.184793 53.180928 
L 109.905455 52.914816 
L 106.626116 52.11648 
L 103.346777 50.519808 
L 100.067438 37.214208 
L 96.788099 37.48032 
L 93.50876 34.546435 
L 90.229421 26.037504 
L 86.950083 -237.426682 
L 83.670744 -238.477824 
L 80.391405 -236.621693 
L 77.112066 -234.765562 
L 73.832727 -236.621693 
z
" clip-path="url(#p4785ca9589)" style="fill: #2d1e3e; fill-opacity: 0.2; stroke: #2d1e3e; stroke-opacity: 0.2"/>
   </g>
   <g id="matplotlib.axis_1">
    <g id="xtick_1">
     <g id="line2d_1">
      <defs>
       <path id="me42578cf14" d="M 0 0 
L 0 3.5 
" style="stroke: #000000; stroke-width: 0.8"/>
      </defs>
      <g>
       <use xlink:href="#me42578cf14" x="73.504793" y="307.584" style="stroke: #000000; stroke-width: 0.8"/>
      </g>
     </g>
     <g id="text_1">
      <text style="font: 10px 'DejaVu Sans', 'Bitstream Vera Sans', 'Computer Modern Sans Serif', 'Lucida Grande', 'Verdana', 'Geneva', 'Lucid', 'Arial', 'Helvetica', 'Avant Garde', sans-serif; text-anchor: middle" x="73.504793" y="322.182437" transform="rotate(-0 73.504793 322.182437)">0</text>
     </g>
    </g>
    <g id="xtick_2">
     <g id="line2d_2">
      <g>
       <use xlink:href="#me42578cf14" x="139.09157" y="307.584" style="stroke: #000000; stroke-width: 0.8"/>
      </g>
     </g>
     <g id="text_2">
      <text style="font: 10px 'DejaVu Sans', 'Bitstream Vera Sans', 'Computer Modern Sans Serif', 'Lucida Grande', 'Verdana', 'Geneva', 'Lucid', 'Arial', 'Helvetica', 'Avant Garde', sans-serif; text-anchor: middle" x="139.09157" y="322.182437" transform="rotate(-0 139.09157 322.182437)">200</text>
     </g>
    </g>
    <g id="xtick_3">
     <g id="line2d_3">
      <g>
       <use xlink:href="#me42578cf14" x="204.678347" y="307.584" style="stroke: #000000; stroke-width: 0.8"/>
      </g>
     </g>
     <g id="text_3">
      <text style="font: 10px 'DejaVu Sans', 'Bitstream Vera Sans', 'Computer Modern Sans Serif', 'Lucida Grande', 'Verdana', 'Geneva', 'Lucid', 'Arial', 'Helvetica', 'Avant Garde', sans-serif; text-anchor: middle" x="204.678347" y="322.182437" transform="rotate(-0 204.678347 322.182437)">400</text>
     </g>
    </g>
    <g id="xtick_4">
     <g id="line2d_4">
      <g>
       <use xlink:href="#me42578cf14" x="270.265124" y="307.584" style="stroke: #000000; stroke-width: 0.8"/>
      </g>
     </g>
     <g id="text_4">
      <text style="font: 10px 'DejaVu Sans', 'Bitstream Vera Sans', 'Computer Modern Sans Serif', 'Lucida Grande', 'Verdana', 'Geneva', 'Lucid', 'Arial', 'Helvetica', 'Avant Garde', sans-serif; text-anchor: middle" x="270.265124" y="322.182437" transform="rotate(-0 270.265124 322.182437)">600</text>
     </g>
    </g>
    <g id="xtick_5">
     <g id="line2d_5">
      <g>
       <use xlink:href="#me42578cf14" x="335.851901" y="307.584" style="stroke: #000000; stroke-width: 0.8"/>
      </g>
     </g>
     <g id="text_5">
      <text style="font: 10px 'DejaVu Sans', 'Bitstream Vera Sans', 'Computer Modern Sans Serif', 'Lucida Grande', 'Verdana', 'Geneva', 'Lucid', 'Arial', 'Helvetica', 'Avant Garde', sans-serif; text-anchor: middle" x="335.851901" y="322.182437" transform="rotate(-0 335.851901 322.182437)">800</text>
     </g>
    </g>
    <g id="xtick_6">
     <g id="line2d_6">
      <g>
       <use xlink:href="#me42578cf14" x="401.438678" y="307.584" style="stroke: #000000; stroke-width: 0.8"/>
      </g>
     </g>
     <g id="text_6">
      <text style="font: 10px 'DejaVu Sans', 'Bitstream Vera Sans', 'Computer Modern Sans Serif', 'Lucida Grande', 'Verdana', 'Geneva', 'Lucid', 'Arial', 'Helvetica', 'Avant Garde', sans-serif; text-anchor: middle" x="401.438678" y="322.182437" transform="rotate(-0 401.438678 322.182437)">1000</text>
     </g>
    </g>
    <g id="text_7">
     <text style="font: 10px 'DejaVu Sans', 'Bitstream Vera Sans', 'Computer Modern Sans Serif', 'Lucida Grande', 'Verdana', 'Geneva', 'Lucid', 'Arial', 'Helvetica', 'Avant Garde', sans-serif; text-anchor: middle" x="236.16" y="335.860562" transform="rotate(-0 236.16 335.860562)">breadth_cutoff</text>
    </g>
   </g>
   <g id="matplotlib.axis_2">
    <g id="ytick_1">
     <g id="line2d_7">
      <defs>
       <path id="maf7d457b85" d="M 0 0 
L -3.5 0 
" style="stroke: #000000; stroke-width: 0.8"/>
      </defs>
      <g>
       <use xlink:href="#maf7d457b85" x="57.6" y="307.584" style="stroke: #000000; stroke-width: 0.8"/>
      </g>
     </g>
     <g id="text_8">
      <text style="font: 10px 'DejaVu Sans', 'Bitstream Vera Sans', 'Computer Modern Sans Serif', 'Lucida Grande', 'Verdana', 'Geneva', 'Lucid', 'Arial', 'Helvetica', 'Avant Garde', sans-serif; text-anchor: end" x="50.6" y="311.383219" transform="rotate(-0 50.6 311.383219)">0.5</text>
     </g>
    </g>
    <g id="ytick_2">
     <g id="line2d_8">
      <g>
       <use xlink:href="#maf7d457b85" x="57.6" y="254.3616" style="stroke: #000000; stroke-width: 0.8"/>
      </g>
     </g>
     <g id="text_9">
      <text style="font: 10px 'DejaVu Sans', 'Bitstream Vera Sans', 'Computer Modern Sans Serif', 'Lucida Grande', 'Verdana', 'Geneva', 'Lucid', 'Arial', 'Helvetica', 'Avant Garde', sans-serif; text-anchor: end" x="50.6" y="258.160819" transform="rotate(-0 50.6 258.160819)">0.6</text>
     </g>
    </g>
    <g id="ytick_3">
     <g id="line2d_9">
      <g>
       <use xlink:href="#maf7d457b85" x="57.6" y="201.1392" style="stroke: #000000; stroke-width: 0.8"/>
      </g>
     </g>
     <g id="text_10">
      <text style="font: 10px 'DejaVu Sans', 'Bitstream Vera Sans', 'Computer Modern Sans Serif', 'Lucida Grande', 'Verdana', 'Geneva', 'Lucid', 'Arial', 'Helvetica', 'Avant Garde', sans-serif; text-anchor: end" x="50.6" y="204.938419" transform="rotate(-0 50.6 204.938419)">0.7</text>
     </g>
    </g>
    <g id="ytick_4">
     <g id="line2d_10">
      <g>
       <use xlink:href="#maf7d457b85" x="57.6" y="147.9168" style="stroke: #000000; stroke-width: 0.8"/>
      </g>
     </g>
     <g id="text_11">
      <text style="font: 10px 'DejaVu Sans', 'Bitstream Vera Sans', 'Computer Modern Sans Serif', 'Lucida Grande', 'Verdana', 'Geneva', 'Lucid', 'Arial', 'Helvetica', 'Avant Garde', sans-serif; text-anchor: end" x="50.6" y="151.716019" transform="rotate(-0 50.6 151.716019)">0.8</text>
     </g>
    </g>
    <g id="ytick_5">
     <g id="line2d_11">
      <g>
       <use xlink:href="#maf7d457b85" x="57.6" y="94.6944" style="stroke: #000000; stroke-width: 0.8"/>
      </g>
     </g>
     <g id="text_12">
      <text style="font: 10px 'DejaVu Sans', 'Bitstream Vera Sans', 'Computer Modern Sans Serif', 'Lucida Grande', 'Verdana', 'Geneva', 'Lucid', 'Arial', 'Helvetica', 'Avant Garde', sans-serif; text-anchor: end" x="50.6" y="98.493619" transform="rotate(-0 50.6 98.493619)">0.9</text>
     </g>
    </g>
    <g id="ytick_6">
     <g id="line2d_12">
      <g>
       <use xlink:href="#maf7d457b85" x="57.6" y="41.472" style="stroke: #000000; stroke-width: 0.8"/>
      </g>
     </g>
     <g id="text_13">
      <text style="font: 10px 'DejaVu Sans', 'Bitstream Vera Sans', 'Computer Modern Sans Serif', 'Lucida Grande', 'Verdana', 'Geneva', 'Lucid', 'Arial', 'Helvetica', 'Avant Garde', sans-serif; text-anchor: end" x="50.6" y="45.271219" transform="rotate(-0 50.6 45.271219)">1.0</text>
     </g>
    </g>
    <g id="text_14">
     <text style="font: 10px 'DejaVu Sans', 'Bitstream Vera Sans', 'Computer Modern Sans Serif', 'Lucida Grande', 'Verdana', 'Geneva', 'Lucid', 'Arial', 'Helvetica', 'Avant Garde', sans-serif; text-anchor: middle" x="28.617188" y="174.528" transform="rotate(-90 28.617188 174.528)">sensitivity</text>
    </g>
   </g>
   <g id="line2d_13">
    <path d="M 73.832727 17.255808 
L 77.112066 17.255808 
L 80.391405 17.255808 
L 83.670744 17.255808 
L 86.950083 17.255808 
L 90.229421 42.004224 
L 93.50876 42.004224 
L 96.788099 42.004224 
L 100.067438 42.004224 
L 103.346777 43.600896 
L 106.626116 44.13312 
L 109.905455 44.13312 
L 113.184793 44.399232 
L 116.464132 45.197568 
L 119.743471 45.197568 
L 123.02281 45.197568 
L 126.302149 45.197568 
L 129.581488 45.46368 
L 132.860826 46.262016 
L 136.140165 46.262016 
L 139.419504 46.262016 
L 142.698843 46.262016 
L 145.978182 48.390912 
L 149.257521 48.390912 
L 152.53686 48.390912 
L 155.816198 48.390912 
L 159.095537 48.923136 
L 162.374876 48.923136 
L 165.654215 48.923136 
L 168.933554 48.923136 
L 172.212893 48.923136 
L 175.492231 50.253696 
L 178.77157 50.253696 
L 182.050909 50.519808 
L 185.330248 50.519808 
L 188.609587 51.584256 
L 191.888926 51.850368 
L 195.168264 51.850368 
L 198.447603 51.850368 
L 201.726942 53.180928 
L 205.006281 53.180928 
L 208.28562 53.180928 
L 211.564959 53.180928 
L 214.844298 56.10816 
L 218.123636 56.640384 
L 221.402975 56.906496 
L 224.682314 57.43872 
L 227.961653 57.704832 
L 231.240992 60.898176 
L 234.520331 62.228736 
L 237.799669 62.494848 
L 241.079008 62.494848 
L 244.358347 65.688192 
L 247.637686 65.688192 
L 250.917025 65.954304 
L 254.196364 66.220416 
L 257.475702 68.615424 
L 260.755041 68.881536 
L 264.03438 69.147648 
L 267.313719 69.41376 
L 270.593058 69.679872 
L 273.872397 72.873216 
L 277.151736 73.40544 
L 280.431074 73.671552 
L 283.710413 74.203776 
L 286.989752 76.06656 
L 290.269091 77.131008 
L 293.54843 78.195456 
L 296.827769 78.461568 
L 300.107107 81.122688 
L 303.386446 81.921024 
L 306.665785 82.453248 
L 309.945124 83.251584 
L 313.224463 83.783808 
L 316.503802 85.38048 
L 319.78314 85.646592 
L 323.062479 86.178816 
L 326.341818 86.977152 
L 329.621157 89.106048 
L 332.900496 89.904384 
L 336.179835 90.436608 
L 339.459174 91.234944 
L 342.738512 94.162176 
L 346.017851 95.492736 
L 349.29719 97.089408 
L 352.576529 97.887744 
L 355.855868 99.484416 
L 359.135207 99.750528 
L 362.414545 100.282752 
L 365.693884 101.081088 
L 368.973223 102.145536 
L 372.252562 103.742208 
L 375.531901 104.806656 
L 378.81124 105.604992 
L 382.090579 106.403328 
L 385.369917 106.66944 
L 388.649256 107.733888 
L 391.928595 109.33056 
L 395.207934 110.66112 
L 398.487273 111.459456 
" clip-path="url(#p4785ca9589)" style="fill: none; stroke: #edd1cb; stroke-width: 1.5; stroke-linecap: square"/>
   </g>
   <g id="line2d_14">
    <path d="M 89.335888 -1 
L 90.229421 34.8192 
L 93.50876 38.81088 
L 96.788099 40.407552 
L 100.067438 40.939776 
L 103.346777 45.197568 
L 106.626116 45.46368 
L 109.905455 45.729792 
L 113.184793 45.729792 
L 116.464132 47.592576 
L 119.743471 47.858688 
L 123.02281 48.1248 
L 126.302149 48.1248 
L 129.581488 48.1248 
L 132.860826 49.721472 
L 136.140165 49.721472 
L 139.419504 50.253696 
L 142.698843 50.253696 
L 145.978182 53.44704 
L 149.257521 53.979264 
L 152.53686 53.979264 
L 155.816198 54.245376 
L 159.095537 59.833728 
L 162.374876 59.833728 
L 165.654215 59.833728 
L 168.933554 59.833728 
L 172.212893 60.09984 
L 175.492231 63.027072 
L 178.77157 63.293184 
L 182.050909 63.559296 
L 185.330248 64.09152 
L 188.609587 66.75264 
L 191.888926 66.75264 
L 195.168264 67.284864 
L 198.447603 67.550976 
L 201.726942 69.679872 
L 205.006281 69.679872 
L 208.28562 70.478208 
L 211.564959 70.74432 
L 214.844298 73.139328 
L 218.123636 73.40544 
L 221.402975 73.937664 
L 224.682314 73.937664 
L 227.961653 74.469888 
L 231.240992 77.663232 
L 234.520331 78.72768 
L 237.799669 78.993792 
L 241.079008 79.526016 
L 244.358347 83.517696 
L 247.637686 84.316032 
L 250.917025 84.848256 
L 254.196364 85.114368 
L 257.475702 88.0416 
L 260.755041 88.573824 
L 264.03438 89.106048 
L 267.313719 89.904384 
L 270.593058 90.170496 
L 273.872397 92.299392 
L 277.151736 92.565504 
L 280.431074 93.097728 
L 283.710413 93.36384 
L 286.989752 96.823296 
L 290.269091 98.952192 
L 293.54843 99.484416 
L 296.827769 99.750528 
L 300.107107 102.67776 
L 303.386446 103.209984 
L 306.665785 104.00832 
L 309.945124 104.806656 
L 313.224463 105.604992 
L 316.503802 109.064448 
L 319.78314 109.862784 
L 323.062479 111.459456 
L 326.341818 111.725568 
L 329.621157 114.386688 
L 332.900496 115.185024 
L 336.179835 115.451136 
L 339.459174 116.515584 
L 342.738512 118.378368 
L 346.017851 118.910592 
L 349.29719 119.442816 
L 352.576529 120.773376 
L 355.855868 122.902272 
L 359.135207 123.96672 
L 362.414545 125.29728 
L 365.693884 125.563392 
L 368.973223 125.829504 
L 372.252562 127.692288 
L 375.531901 129.821184 
L 378.81124 130.353408 
L 382.090579 131.151744 
L 385.369917 133.28064 
L 388.649256 133.812864 
L 391.928595 134.877312 
L 395.207934 135.675648 
L 398.487273 138.336768 
" clip-path="url(#p4785ca9589)" style="fill: none; stroke: #daa4ac; stroke-width: 1.5; stroke-linecap: square"/>
   </g>
   <g id="line2d_15">
    <path d="M 89.897737 -1 
L 90.229421 22.578048 
L 93.50876 31.093632 
L 96.788099 34.8192 
L 100.067438 35.085312 
L 103.346777 45.46368 
L 106.626116 47.858688 
L 109.905455 48.390912 
L 113.184793 48.923136 
L 116.464132 53.180928 
L 119.743471 53.180928 
L 123.02281 53.180928 
L 126.302149 53.44704 
L 129.581488 53.44704 
L 132.860826 57.704832 
L 136.140165 57.970944 
L 139.419504 57.970944 
L 142.698843 57.970944 
L 145.978182 64.357632 
L 149.257521 64.357632 
L 152.53686 64.357632 
L 155.816198 64.357632 
L 159.095537 70.478208 
L 162.374876 71.276544 
L 165.654215 71.542656 
L 168.933554 71.542656 
L 172.212893 71.542656 
L 175.492231 76.06656 
L 178.77157 76.332672 
L 182.050909 76.864896 
L 185.330248 77.131008 
L 188.609587 82.71936 
L 191.888926 83.783808 
L 195.168264 83.783808 
L 198.447603 84.04992 
L 201.726942 89.638272 
L 205.006281 89.904384 
L 208.28562 90.170496 
L 211.564959 90.170496 
L 214.844298 94.428288 
L 218.123636 94.960512 
L 221.402975 95.226624 
L 224.682314 95.226624 
L 227.961653 95.226624 
L 231.240992 99.484416 
L 234.520331 100.548864 
L 237.799669 101.081088 
L 241.079008 101.3472 
L 244.358347 105.33888 
L 247.637686 105.871104 
L 250.917025 106.66944 
L 254.196364 107.467776 
L 257.475702 112.523904 
L 260.755041 112.790016 
L 264.03438 115.451136 
L 267.313719 116.781696 
L 270.593058 117.846144 
L 273.872397 123.168384 
L 277.151736 124.232832 
L 280.431074 125.031168 
L 283.710413 126.361728 
L 286.989752 131.417856 
L 290.269091 132.482304 
L 293.54843 133.014528 
L 296.827769 134.6112 
L 300.107107 138.336768 
L 303.386446 139.93344 
L 306.665785 141.796224 
L 309.945124 143.126784 
L 313.224463 144.191232 
L 316.503802 147.650688 
L 319.78314 149.24736 
L 323.062479 150.57792 
L 326.341818 151.376256 
L 329.621157 155.101824 
L 332.900496 156.166272 
L 336.179835 158.029056 
L 339.459174 158.295168 
L 342.738512 160.424064 
L 346.017851 161.2224 
L 349.29719 161.754624 
L 352.576529 162.819072 
L 355.855868 165.21408 
L 359.135207 166.278528 
L 362.414545 167.076864 
L 365.693884 167.076864 
L 368.973223 168.673536 
L 372.252562 170.270208 
L 375.531901 171.068544 
L 378.81124 173.729664 
L 382.090579 175.060224 
L 385.369917 176.923008 
L 388.649256 179.051904 
L 391.928595 180.116352 
L 395.207934 181.1808 
L 398.487273 183.043584 
" clip-path="url(#p4785ca9589)" style="fill: none; stroke: #945785; stroke-width: 1.5; stroke-linecap: square"/>
   </g>
   <g id="line2d_16">
    <path d="M 89.794048 -1 
L 90.229421 31.891968 
L 93.50876 39.343104 
L 96.788099 42.004224 
L 100.067438 42.004224 
L 103.346777 54.7776 
L 106.626116 56.10816 
L 109.905455 56.906496 
L 113.184793 57.172608 
L 116.464132 66.486528 
L 119.743471 67.284864 
L 123.02281 68.0832 
L 126.302149 68.0832 
L 129.581488 68.0832 
L 132.860826 74.736 
L 136.140165 75.534336 
L 139.419504 75.800448 
L 142.698843 75.800448 
L 145.978182 85.646592 
L 149.257521 86.178816 
L 152.53686 86.444928 
L 155.816198 86.444928 
L 159.095537 96.291072 
L 162.374876 96.823296 
L 165.654215 98.419968 
L 168.933554 98.68608 
L 172.212893 98.952192 
L 175.492231 106.137216 
L 178.77157 107.467776 
L 182.050909 108 
L 185.330248 108.266112 
L 188.609587 116.249472 
L 191.888926 117.580032 
L 195.168264 118.112256 
L 198.447603 118.378368 
L 201.726942 125.563392 
L 205.006281 126.62784 
L 208.28562 126.893952 
L 211.564959 127.692288 
L 214.844298 133.28064 
L 218.123636 134.877312 
L 221.402975 136.207872 
L 224.682314 138.336768 
L 227.961653 139.667328 
L 231.240992 148.449024 
L 234.520331 150.311808 
L 237.799669 151.642368 
L 241.079008 153.23904 
L 244.358347 160.956288 
L 247.637686 162.55296 
L 250.917025 163.617408 
L 254.196364 165.21408 
L 257.475702 170.53632 
L 260.755041 171.600768 
L 264.03438 173.729664 
L 267.313719 174.261888 
L 270.593058 176.124672 
L 273.872397 182.51136 
L 277.151736 184.640256 
L 280.431074 186.236928 
L 283.710413 187.567488 
L 286.989752 191.82528 
L 290.269091 192.889728 
L 293.54843 193.954176 
L 296.827769 195.018624 
L 300.107107 198.211968 
L 303.386446 200.606976 
L 306.665785 201.671424 
L 309.945124 203.001984 
L 313.224463 203.80032 
L 316.503802 208.324224 
L 319.78314 209.388672 
L 323.062479 211.517568 
L 326.341818 213.11424 
L 329.621157 215.509248 
L 332.900496 217.904256 
L 336.179835 220.831488 
L 339.459174 222.694272 
L 342.738512 225.621504 
L 346.017851 227.484288 
L 349.29719 229.879296 
L 352.576529 231.74208 
L 355.855868 233.870976 
L 359.135207 236.798208 
L 362.414545 238.39488 
L 365.693884 239.459328 
L 368.973223 242.120448 
L 372.252562 246.37824 
L 375.531901 247.442688 
L 378.81124 249.837696 
L 382.090579 251.70048 
L 385.369917 255.69216 
L 388.649256 257.821056 
L 391.928595 259.151616 
L 395.207934 260.482176 
L 398.487273 263.67552 
" clip-path="url(#p4785ca9589)" style="fill: none; stroke: #2d1e3e; stroke-width: 1.5; stroke-linecap: square"/>
   </g>
   <g id="line2d_17"/>
   <g id="line2d_18"/>
   <g id="line2d_19"/>
   <g id="line2d_20"/>
   <g id="line2d_21">
    <path d="M 214.516364 307.584 
L 214.516364 41.472 
" clip-path="url(#p4785ca9589)" style="fill: none; stroke: #1f77b4; stroke-width: 1.5; stroke-linecap: square"/>
   </g>
   <g id="patch_3">
    <path d="M 57.6 307.584 
L 57.6 41.472 
" style="fill: none; stroke: #000000; stroke-width: 0.8; stroke-linejoin: miter; stroke-linecap: square"/>
   </g>
   <g id="patch_4">
    <path d="M 414.72 307.584 
L 414.72 41.472 
" style="fill: none; stroke: #000000; stroke-width: 0.8; stroke-linejoin: miter; stroke-linecap: square"/>
   </g>
   <g id="patch_5">
    <path d="M 57.6 307.584 
L 414.72 307.584 
" style="fill: none; stroke: #000000; stroke-width: 0.8; stroke-linejoin: miter; stroke-linecap: square"/>
   </g>
   <g id="patch_6">
    <path d="M 57.6 41.472 
L 414.72 41.472 
" style="fill: none; stroke: #000000; stroke-width: 0.8; stroke-linejoin: miter; stroke-linecap: square"/>
   </g>
   <g id="legend_1">
    <g id="patch_7">
     <path d="M 64.6 302.584 
L 118.865625 302.584 
Q 120.865625 302.584 120.865625 300.584 
L 120.865625 228.193375 
Q 120.865625 226.193375 118.865625 226.193375 
L 64.6 226.193375 
Q 62.6 226.193375 62.6 228.193375 
L 62.6 300.584 
Q 62.6 302.584 64.6 302.584 
z
" style="fill: #ffffff; opacity: 0.8; stroke: #cccccc; stroke-linejoin: miter"/>
    </g>
    <g id="text_15">
     <text style="font: 10px 'DejaVu Sans', 'Bitstream Vera Sans', 'Computer Modern Sans Serif', 'Lucida Grande', 'Verdana', 'Geneva', 'Lucid', 'Arial', 'Helvetica', 'Avant Garde', sans-serif; text-anchor: start" x="70.458594" y="237.791812" transform="rotate(-0 70.458594 237.791812)">mutated</text>
    </g>
    <g id="line2d_22">
     <path d="M 66.6 248.969937 
L 76.6 248.969937 
L 86.6 248.969937 
" style="fill: none; stroke: #edd1cb; stroke-width: 1.5; stroke-linecap: square"/>
    </g>
    <g id="text_16">
     <text style="font: 10px 'DejaVu Sans', 'Bitstream Vera Sans', 'Computer Modern Sans Serif', 'Lucida Grande', 'Verdana', 'Geneva', 'Lucid', 'Arial', 'Helvetica', 'Avant Garde', sans-serif; text-anchor: start" x="94.6" y="252.469937" transform="rotate(-0 94.6 252.469937)">0.0</text>
    </g>
    <g id="line2d_23">
     <path d="M 66.6 263.648062 
L 76.6 263.648062 
L 86.6 263.648062 
" style="fill: none; stroke: #daa4ac; stroke-width: 1.5; stroke-linecap: square"/>
    </g>
    <g id="text_17">
     <text style="font: 10px 'DejaVu Sans', 'Bitstream Vera Sans', 'Computer Modern Sans Serif', 'Lucida Grande', 'Verdana', 'Geneva', 'Lucid', 'Arial', 'Helvetica', 'Avant Garde', sans-serif; text-anchor: start" x="94.6" y="267.148062" transform="rotate(-0 94.6 267.148062)">0.01</text>
    </g>
    <g id="line2d_24">
     <path d="M 66.6 278.326188 
L 76.6 278.326188 
L 86.6 278.326188 
" style="fill: none; stroke: #945785; stroke-width: 1.5; stroke-linecap: square"/>
    </g>
    <g id="text_18">
     <text style="font: 10px 'DejaVu Sans', 'Bitstream Vera Sans', 'Computer Modern Sans Serif', 'Lucida Grande', 'Verdana', 'Geneva', 'Lucid', 'Arial', 'Helvetica', 'Avant Garde', sans-serif; text-anchor: start" x="94.6" y="281.826188" transform="rotate(-0 94.6 281.826188)">0.03</text>
    </g>
    <g id="line2d_25">
     <path d="M 66.6 293.004312 
L 76.6 293.004312 
L 86.6 293.004312 
" style="fill: none; stroke: #2d1e3e; stroke-width: 1.5; stroke-linecap: square"/>
    </g>
    <g id="text_19">
     <text style="font: 10px 'DejaVu Sans', 'Bitstream Vera Sans', 'Computer Modern Sans Serif', 'Lucida Grande', 'Verdana', 'Geneva', 'Lucid', 'Arial', 'Helvetica', 'Avant Garde', sans-serif; text-anchor: start" x="94.6" y="296.504312" transform="rotate(-0 94.6 296.504312)">0.05</text>
    </g>
   </g>
  </g>
 </g>
 <defs>
  <clipPath id="p4785ca9589">
   <rect x="57.6" y="41.472" width="357.12" height="266.112"/>
  </clipPath>
 </defs>
</svg>
