<?xml version="1.0" encoding="UTF-8" standalone="no"?>
<svg
   width="410.159pt"
   height="597.73199pt"
   viewBox="0 0 410.159 597.73199"
   version="1.1"
   id="svg616"
   sodipodi:docname="supplementary_accuracy.svg"
   inkscape:version="1.2.2 (1:1.2.2+202212051552+b0a8486541)"
   inkscape:export-filename="supplementary_accuracy.png"
   inkscape:export-xdpi="300"
   inkscape:export-ydpi="300"
   xmlns:inkscape="http://www.inkscape.org/namespaces/inkscape"
   xmlns:sodipodi="http://sodipodi.sourceforge.net/DTD/sodipodi-0.dtd"
   xmlns:xlink="http://www.w3.org/1999/xlink"
   xmlns="http://www.w3.org/2000/svg"
   xmlns:svg="http://www.w3.org/2000/svg"
   xmlns:rdf="http://www.w3.org/1999/02/22-rdf-syntax-ns#"
   xmlns:cc="http://creativecommons.org/ns#"
   xmlns:dc="http://purl.org/dc/elements/1.1/">
  <sodipodi:namedview
     id="namedview618"
     pagecolor="#ffffff"
     bordercolor="#000000"
     borderopacity="0.25"
     inkscape:showpageshadow="2"
     inkscape:pageopacity="1"
     inkscape:pagecheckerboard="0"
     inkscape:deskcolor="#d1d1d1"
     inkscape:document-units="pt"
     showgrid="false"
     inkscape:zoom="1.069336"
     inkscape:cx="151.02831"
     inkscape:cy="455.42282"
     inkscape:window-width="3840"
     inkscape:window-height="2075"
     inkscape:window-x="0"
     inkscape:window-y="0"
     inkscape:window-maximized="1"
     inkscape:current-layer="axes_1" />
  <metadata
     id="metadata354">
    <rdf:RDF>
      <cc:Work>
        <dc:type
           rdf:resource="http://purl.org/dc/dcmitype/StillImage" />
        <dc:date>2024-03-24T18:27:11.341872</dc:date>
        <dc:format>image/svg+xml</dc:format>
        <dc:creator>
          <cc:Agent>
            <dc:title>Matplotlib v3.7.4, https://matplotlib.org/</dc:title>
          </cc:Agent>
        </dc:creator>
      </cc:Work>
    </rdf:RDF>
  </metadata>
  <defs
     id="defs358">
    <style
       type="text/css"
       id="style356">*{stroke-linejoin: round; stroke-linecap: butt}</style>
    <clipPath
       id="p4785ca9589">
      <rect
         x="57.599998"
         y="41.472"
         width="357.12"
         height="266.112"
         id="rect222" />
    </clipPath>
    <clipPath
       id="clipPath1320">
      <rect
         x="57.599998"
         y="41.472"
         width="357.12"
         height="266.112"
         id="rect1318" />
    </clipPath>
    <clipPath
       id="clipPath1324">
      <rect
         x="57.599998"
         y="41.472"
         width="357.12"
         height="266.112"
         id="rect1322" />
    </clipPath>
    <clipPath
       id="clipPath1328">
      <rect
         x="57.599998"
         y="41.472"
         width="357.12"
         height="266.112"
         id="rect1326" />
    </clipPath>
    <clipPath
       id="clipPath1332">
      <rect
         x="57.599998"
         y="41.472"
         width="357.12"
         height="266.112"
         id="rect1330" />
    </clipPath>
    <clipPath
       id="clipPath1336">
      <rect
         x="57.599998"
         y="41.472"
         width="357.12"
         height="266.112"
         id="rect1334" />
    </clipPath>
    <clipPath
       id="clipPath1340">
      <rect
         x="57.599998"
         y="41.472"
         width="357.12"
         height="266.112"
         id="rect1338" />
    </clipPath>
    <clipPath
       id="clipPath1344">
      <rect
         x="57.599998"
         y="41.472"
         width="357.12"
         height="266.112"
         id="rect1342" />
    </clipPath>
    <clipPath
       id="clipPath1348">
      <rect
         x="57.599998"
         y="41.472"
         width="357.12"
         height="266.112"
         id="rect1346" />
    </clipPath>
    <path
       id="m1ead3acb3f"
       d="m 73.832727,-333.66643 v 10.64448 h 3.279339 l 3.279339,-0.53223 3.279339,0.53223 3.279339,-0.26611 3.279338,21.02284 h 3.279339 l 3.279339,-0.25945 3.279341,0.25945 3.27934,1.86279 3.27934,0.53222 h 3.27934 l 3.27933,0.26611 3.27934,1.06445 3.27934,0.26611 3.27934,-0.26611 3.27934,0.26611 3.27934,0.53223 3.27934,0.79833 3.27933,0.26612 3.27934,-0.26612 h 3.27934 l 3.27934,2.66778 3.27934,0.25946 h 3.27934 3.27934 l 3.27934,0.53222 h 3.27934 3.27933 3.27934 l 3.27934,0.26611 3.27934,1.59667 3.27934,-0.53222 3.27934,1.06445 3.27934,-0.53223 3.27934,1.59668 3.27934,0.26611 3.27933,-0.26611 3.27934,0.26611 3.27934,1.59667 h 3.27934 l 3.27934,0.007 3.27934,-0.007 3.27934,3.45946 3.27934,0.26611 h 3.27933 l 3.27934,1.06445 h 3.27934 l 3.27934,3.99833 3.27934,1.32391 3.27934,-0.25946 3.27934,0.52557 3.27934,3.45945 3.27934,0.53223 3.27933,0.53887 3.27934,-0.53887 3.27934,2.92723 3.27934,0.53222 h 3.27934 l 3.27934,0.27277 3.27934,0.25946 3.27934,4.25779 3.27934,-0.52557 3.27933,1.32391 3.27934,1.06444 3.27934,1.33056 3.27934,1.06445 3.27934,1.59667 3.27934,0.27277 3.27934,2.38835 3.27934,1.33056 3.27934,0.007 3.27933,1.05779 3.27934,0.79834 3.27934,2.39501 3.27934,-1.33056 3.27934,1.59667 3.27934,0.53888 3.27934,2.66112 3.27934,0.26611 3.27934,0.25946 3.27933,1.33721 3.27934,2.92723 3.27934,1.85613 3.27934,2.13555 3.27934,0.79834 3.27934,1.3239 3.27934,0.53888 3.27933,0.25946 3.27934,0.79834 3.27934,1.33056 3.27934,1.33056 3.27934,1.06444 3.27934,0.80499 3.27934,1.32391 3.27934,0.53222 3.27934,1.33722 3.27933,0.79833 3.27934,1.85613 3.27934,0.80499 v -19.69894 0 l -3.27934,-0.53887 -3.27934,-1.06445 -3.27933,-2.12225 -3.27934,-0.26611 -3.27934,-0.53887 -3.27934,-0.25946 -3.27934,-1.06445 -3.27934,-0.79834 -3.27934,-1.60332 -3.27934,-1.0578 -3.27934,-0.26611 -3.27933,-0.80499 -3.27934,-0.25946 -3.27934,-1.33056 -3.27934,-1.06445 -3.27934,-1.33056 -3.27934,-0.53222 -3.27934,-3.99833 -3.27933,0.27276 -3.27934,-1.33056 -3.27934,-0.26611 -3.27934,-1.59667 -3.27934,-1.06445 -3.27934,-0.79834 h -3.27934 l -3.27934,-1.59667 h -3.27934 l -3.27933,-1.59667 h -3.27934 l -3.27934,-0.53222 -3.27934,-2.92724 h -3.27934 l -3.27934,-0.53887 -3.27934,-1.06445 -3.27934,-1.85613 -3.27934,-0.79834 -3.27933,0.26611 -3.27934,-1.0711 -3.27934,-2.38835 h -3.27934 l -3.27934,-0.26611 -3.27934,-0.53223 -3.27934,0.26611 -3.27934,-2.12889 -3.27934,-0.53223 h -3.27933 l -3.27934,-0.26611 -3.27934,-2.39501 -3.27934,-0.53222 -3.27934,0.25946 -3.27934,-1.59002 -3.27934,-2.66112 -3.27934,-0.26611 -3.27934,-0.53223 -3.27933,-0.53222 h -3.27934 l -3.27934,-2.66777 -3.27934,-0.25946 h -3.27934 l -3.27934,0.26611 -3.27934,-1.33056 -3.27934,0.26611 h -3.27933 l -3.27934,-0.53222 -3.27934,-0.79834 -3.27934,0.26611 -3.27934,-0.26611 h -3.27934 l -3.27934,-1.06445 h -3.27934 -3.27934 -3.27933 -3.27934 l -3.27934,-0.53222 -3.27934,0.26611 -3.27934,-0.26611 h -3.27934 l -3.27934,-1.33056 h -3.27934 -3.27934 -3.27933 l -3.27934,-0.53222 -3.27934,-0.26612 h -3.27934 -3.27934 -3.27934 l -3.27934,-0.53222 h -3.27933 -3.27934 l -3.27934,-0.53222 -3.27934,-1.59668 h -3.279341 l -3.279339,0.26612 -3.279339,-0.26612 -3.279338,-28.74675 -3.279339,0.007 -3.279339,0.26611 -3.279339,-0.53222 z"
       style="stroke:#edd1cb;stroke-opacity:0.2" />
    <path
       id="m32c579257a"
       d="m 73.832727,-456.87629 v 29.53843 l 3.279339,-0.79168 3.279339,0.52557 3.279339,1.0711 3.279339,-0.007 3.279338,119.7504 3.279339,3.19334 3.279339,1.33056 3.279341,0.26612 3.27934,4.25779 3.27934,0.27276 3.27934,0.25946 3.27933,0.26611 3.27934,2.1289 3.27934,0.26611 h 3.27934 3.27934 l 3.27934,-0.26611 3.27934,1.86278 3.27933,0.26612 3.27934,0.26611 3.27934,0.27276 3.27934,3.45946 3.27934,0.79168 3.27934,0.26611 3.27934,0.26612 3.27934,6.38668 3.27934,-0.25946 3.27933,0.52558 3.27934,-0.26612 h 3.27934 l 3.27934,3.45946 3.27934,0.27277 3.27934,-0.007 3.27934,0.79834 3.27934,2.66112 3.27934,0.53222 3.27933,0.53223 3.27934,1.06444 3.27934,1.33056 3.27934,0.27277 3.27934,1.05779 3.27934,0.26612 3.27934,3.45945 h 3.27934 l 3.27933,0.53223 3.27934,-0.52558 3.27934,1.0578 3.27934,3.19334 3.27934,1.06445 3.27934,0.79834 3.27934,1.0711 3.27934,3.99168 3.27934,1.05779 3.27933,-0.26611 3.27934,0.79834 3.27934,3.19334 3.27934,0.27277 3.27934,1.05779 3.27934,0.79834 3.27934,0.53222 3.27934,1.86944 h 3.27934 l 3.27933,1.85613 3.27934,-0.26611 3.27934,3.19334 3.27934,2.40166 3.27934,0.79169 3.27934,0.26611 3.27934,2.13555 3.27934,1.85613 3.27934,0.79833 3.27933,0.53223 3.27934,2.12889 3.27934,2.66778 3.27934,1.06445 3.27934,1.05779 3.27934,0.79834 3.27934,2.92723 3.27934,0.26611 3.27934,0.26611 3.27933,1.59667 3.27934,2.1289 3.27934,0.53222 3.27934,0.007 3.27934,1.59667 3.27934,1.59002 3.27934,1.86278 3.27933,1.33056 3.27934,0.26611 3.27934,0.53223 3.27934,1.86278 3.27934,2.66778 3.27934,-0.007 3.27934,1.06445 3.27934,2.1289 3.27934,0.79833 3.27933,0.26611 3.27934,0.53223 3.27934,2.93388 v -21.29561 0 l -3.27934,-4.26444 -3.27934,0.26611 -3.27933,-0.80499 -3.27934,-0.78503 -3.27934,-1.86279 -3.27934,-0.53222 -3.27934,-0.80499 -3.27934,-1.32391 -3.27934,-2.12889 -3.27934,-0.27277 -3.27934,-0.79168 -3.27933,-1.33721 -3.27934,-1.32391 -3.27934,-1.59667 -3.27934,-1.06445 h -3.27934 l -3.27934,-0.80499 -3.27934,-1.59002 -3.27933,-1.0711 -3.27934,0.53888 -3.27934,-1.86279 -3.27934,-2.66112 -3.27934,-0.53222 -3.27934,-1.33056 -3.27934,-0.53888 -3.27934,-3.18669 -3.27934,-0.80499 -3.27933,-0.79168 -3.27934,-0.53222 -3.27934,-0.26612 -3.27934,-2.93388 -3.27934,-0.26611 -3.27934,-0.52557 -3.27934,-2.1289 -3.27934,-2.1289 -3.27934,-0.79833 -3.27933,-0.26611 -3.27934,0.25946 -3.27934,-2.1289 -3.27934,-1.32391 -3.27934,0.25946 -3.27934,-0.79833 -3.27934,-0.79169 -3.27934,-2.39501 -3.27934,-0.53222 -3.27933,-0.26611 -3.27934,-1.33056 -3.27934,-3.45946 -3.27934,-0.26611 -3.27934,-0.53222 -3.27934,-1.33056 -3.27934,-1.86944 -3.27934,-0.52557 h -3.27934 l -3.27933,-0.53223 -3.27934,-0.79833 -3.27934,-1.33056 -3.27934,-0.26611 -3.27934,-0.27277 -3.27934,-0.25946 -3.27934,-1.86278 h -3.27934 l -3.27933,-0.79834 h -3.27934 l -3.27934,-2.39501 -3.27934,-0.53222 -3.27934,-0.007 -3.27934,-0.25946 -3.27934,-2.66112 -3.27934,-0.53223 h -3.27934 -3.27933 -3.27934 l -3.27934,-4.25779 -3.27934,-0.53222 h -3.27934 l -3.27934,-0.53223 -3.27934,-2.66112 -3.27934,0.26612 -3.27934,-0.53223 h -3.27933 l -3.27934,-1.59667 h -3.27934 l -3.27934,0.25946 -3.27934,-0.52557 -3.27934,-0.26611 -3.27934,-1.59668 -3.27933,-0.007 -3.27934,-0.25946 -3.27934,-0.53222 -3.27934,-4.25779 -3.279341,-0.79834 -3.279339,-1.59667 -3.279339,-5.05613 -3.279338,-142.36992 -3.279339,0.52557 h -3.279339 l -3.279339,-0.52557 z"
       style="stroke:#daa4ac;stroke-opacity:0.2" />
    <path
       id="me42578cf14"
       d="M 0,0 V 3.5"
       style="stroke:#000000;stroke-width:0.8" />
    <path
       id="maf7d457b85"
       d="M 0,0 H -3.5"
       style="stroke:#000000;stroke-width:0.8" />
  </defs>
  <g
     id="figure_1"
     transform="translate(-8.4777964,255.79719)">
    <g
       id="axes_1">
      <g
         id="line2d_20" />
      <g
         id="line2d_21" />
      <g
         id="line2d_22" />
      <g
         id="line2d_23" />
      <g
         id="g3166"
         transform="matrix(0.95381641,0,0,0.95381641,8.066336,-286.02536)">
        <g
           id="patch_2">
          <path
             d="M 57.6,307.584 H 414.72 V 41.472 H 57.6 Z"
             style="fill:#ffffff"
             id="path363" />
        </g>
        <g
           id="PolyCollection_1">
          <defs
             id="defs367">
            <path
               id="mcd48388efe"
               d="m 57.95712,-283.09606 v 16.49358 l 3.5712,0.3342 3.5712,-0.4584 3.5712,0.38087 3.5712,-0.0695 3.5712,-37.57974 h 3.5712 3.5712 3.5712 3.5712 3.5712 3.5712 3.5712 3.5712 3.5712 3.5712 3.5712 3.5712 3.5712 3.5712 3.5712 3.5712 3.5712 3.5712 3.5712 3.5712 3.5712 3.5712 3.5712 3.5712 3.5712 3.5712 3.5712 3.5712 3.5712 3.5712 3.5712 3.5712 3.5712 3.5712 3.5712 3.5712 3.5712 3.5712 3.5712 3.5712 3.5712 3.5712 3.5712 3.5712 3.5712 3.5712 3.5712 3.5712 3.5712 3.5712 3.5712 3.5712 3.5712 3.5712 3.5712 3.5712 3.5712 3.5712 3.5712 3.5712 3.5712 3.5712 3.5712 3.5712 3.5712 3.5712 3.5712 3.5712 3.5712 3.5712 3.5712 3.5712 3.5712 3.5712 3.5712 3.5712 3.5712 3.5712 3.5712 3.5712 3.5712 3.5712 3.5712 3.5712 3.5712 3.5712 3.5712 3.5712 3.5712 3.5712 3.5712 3.5712 3.5712 3.5712 v 0 0 h -3.5712 -3.5712 -3.5712 -3.5712 -3.5712 -3.5712 -3.5712 -3.5712 -3.5712 -3.5712 -3.5712 -3.5712 -3.5712 -3.5712 -3.5712 -3.5712 -3.5712 -3.5712 -3.5712 -3.5712 -3.5712 -3.5712 -3.5712 -3.5712 -3.5712 -3.5712 -3.5712 -3.5712 -3.5712 -3.5712 -3.5712 -3.5712 -3.5712 -3.5712 -3.5712 -3.5712 -3.5712 -3.5712 -3.5712 -3.5712 -3.5712 -3.5712 -3.5712 -3.5712 -3.5712 -3.5712 -3.5712 -3.5712 -3.5712 -3.5712 -3.5712 -3.5712 -3.5712 -3.5712 -3.5712 -3.5712 -3.5712 -3.5712 -3.5712 -3.5712 -3.5712 -3.5712 -3.5712 -3.5712 -3.5712 -3.5712 -3.5712 -3.5712 -3.5712 -3.5712 -3.5712 -3.5712 -3.5712 -3.5712 -3.5712 -3.5712 -3.5712 -3.5712 -3.5712 -3.5712 -3.5712 -3.5712 -3.5712 -3.5712 -3.5712 -3.5712 -3.5712 -3.5712 -3.5712 -3.5712 -3.5712 -3.5712 -3.5712 -3.5712 l -3.5712,21.31164 -3.5712,-0.25951 -3.5712,-0.22495 -3.5712,-0.23707 z"
               style="stroke:#edd1cb;stroke-opacity:0.2" />
          </defs>
          <g
             clip-path="url(#pf5db5eb8dc)"
             id="g371">
            <use
               xlink:href="#mcd48388efe"
               x="0"
               y="345.60001"
               style="fill:#edd1cb;fill-opacity:0.2;stroke:#edd1cb;stroke-opacity:0.2"
               id="use369" />
          </g>
        </g>
        <g
           id="PolyCollection_2">
          <defs
             id="defs375">
            <path
               id="m090758aba8"
               d="m 57.95712,-186.70558 v 27.88854 l 3.5712,-0.21308 3.5712,0.8194 3.5712,0.55796 3.5712,-0.53052 3.5712,-129.97785 3.5712,-5.23149 3.5712,-2.90721 3.5712,-0.6974 3.5712,-3.83136 3.5712,-0.63329 3.5712,-0.63328 3.5712,0.63328 3.5712,-0.63328 h 3.5712 l 3.5712,-1.89985 h 3.5712 3.5712 3.5712 3.5712 3.5712 3.5712 3.5712 3.5712 3.5712 3.5712 3.5712 3.5712 3.5712 3.5712 3.5712 3.5712 3.5712 3.5712 3.5712 3.5712 3.5712 3.5712 3.5712 3.5712 3.5712 3.5712 3.5712 3.5712 3.5712 3.5712 3.5712 3.5712 3.5712 3.5712 3.5712 3.5712 3.5712 3.5712 3.5712 3.5712 3.5712 3.5712 3.5712 3.5712 3.5712 3.5712 3.5712 3.5712 3.5712 3.5712 3.5712 3.5712 3.5712 3.5712 3.5712 3.5712 3.5712 3.5712 3.5712 3.5712 3.5712 3.5712 3.5712 3.5712 3.5712 3.5712 3.5712 3.5712 3.5712 3.5712 3.5712 3.5712 3.5712 3.5712 3.5712 3.5712 3.5712 3.5712 3.5712 3.5712 3.5712 3.5712 3.5712 3.5712 v 0 0 h -3.5712 -3.5712 -3.5712 -3.5712 -3.5712 -3.5712 -3.5712 -3.5712 -3.5712 -3.5712 -3.5712 -3.5712 -3.5712 -3.5712 -3.5712 -3.5712 -3.5712 -3.5712 -3.5712 -3.5712 -3.5712 -3.5712 -3.5712 -3.5712 -3.5712 -3.5712 -3.5712 -3.5712 -3.5712 -3.5712 -3.5712 -3.5712 -3.5712 -3.5712 -3.5712 -3.5712 -3.5712 -3.5712 -3.5712 -3.5712 -3.5712 -3.5712 -3.5712 -3.5712 -3.5712 -3.5712 -3.5712 -3.5712 -3.5712 -3.5712 -3.5712 -3.5712 -3.5712 -3.5712 -3.5712 -3.5712 -3.5712 -3.5712 -3.5712 -3.5712 -3.5712 -3.5712 -3.5712 -3.5712 -3.5712 -3.5712 -3.5712 -3.5712 -3.5712 -3.5712 -3.5712 -3.5712 -3.5712 -3.5712 -3.5712 -3.5712 -3.5712 -3.5712 -3.5712 -3.5712 -3.5712 -3.5712 -3.5712 -3.5712 -3.5712 -3.5712 -3.5712 -3.5712 -3.5712 -3.5712 l -3.5712,1.26657 -3.5712,0.0317 -3.5712,1.20612 -3.5712,2.06845 -3.5712,112.95204 -3.5712,0.15401 -3.5712,0.59916 -3.5712,-0.62276 z"
               style="stroke:#daa4ac;stroke-opacity:0.2" />
          </defs>
          <g
             clip-path="url(#pf5db5eb8dc)"
             id="g379">
            <use
               xlink:href="#m090758aba8"
               x="0"
               y="345.60001"
               style="fill:#daa4ac;fill-opacity:0.2;stroke:#daa4ac;stroke-opacity:0.2"
               id="use377" />
          </g>
        </g>
        <g
           id="PolyCollection_3">
          <defs
             id="defs383">
            <path
               id="m5adfeb66e6"
               d="m 57.95712,-129.45926 v 26.41037 l 3.5712,0.1823 3.5712,-0.26174 3.5712,0.88472 3.5712,0.43995 3.5712,-168.51211 3.5712,-11.12352 3.5712,-2.72896 3.5712,-0.43756 3.5712,-8.7961 3.5712,-2.53169 3.5712,-1.14135 3.5712,-0.18423 3.5712,-1.15128 3.5712,0.0648 3.5712,-2.4829 h 3.5712 3.5712 l 3.5712,0.12665 3.5712,-0.75994 3.5712,-2.53313 h 3.5712 3.5712 3.5712 3.5712 3.5712 3.5712 3.5712 3.5712 3.5712 3.5712 3.5712 3.5712 3.5712 3.5712 3.5712 3.5712 3.5712 3.5712 3.5712 3.5712 3.5712 3.5712 3.5712 3.5712 3.5712 3.5712 3.5712 3.5712 3.5712 3.5712 3.5712 3.5712 3.5712 3.5712 3.5712 3.5712 3.5712 3.5712 3.5712 3.5712 3.5712 3.5712 3.5712 3.5712 3.5712 3.5712 3.5712 3.5712 3.5712 3.5712 3.5712 3.5712 3.5712 3.5712 3.5712 3.5712 3.5712 3.5712 3.5712 3.5712 3.5712 3.5712 3.5712 3.5712 3.5712 3.5712 3.5712 3.5712 3.5712 3.5712 3.5712 3.5712 3.5712 3.5712 3.5712 3.5712 3.5712 3.5712 3.5712 v 0 0 h -3.5712 -3.5712 -3.5712 -3.5712 -3.5712 -3.5712 -3.5712 -3.5712 -3.5712 -3.5712 -3.5712 -3.5712 -3.5712 -3.5712 -3.5712 -3.5712 -3.5712 -3.5712 -3.5712 -3.5712 -3.5712 -3.5712 -3.5712 -3.5712 -3.5712 -3.5712 -3.5712 -3.5712 -3.5712 -3.5712 -3.5712 -3.5712 -3.5712 -3.5712 -3.5712 -3.5712 -3.5712 -3.5712 -3.5712 -3.5712 -3.5712 -3.5712 -3.5712 -3.5712 -3.5712 -3.5712 -3.5712 -3.5712 -3.5712 -3.5712 -3.5712 -3.5712 -3.5712 -3.5712 -3.5712 -3.5712 -3.5712 -3.5712 -3.5712 -3.5712 -3.5712 -3.5712 -3.5712 -3.5712 -3.5712 -3.5712 -3.5712 -3.5712 -3.5712 -3.5712 -3.5712 -3.5712 -3.5712 -3.5712 -3.5712 -3.5712 -3.5712 -3.5712 -3.5712 -3.5712 -3.5712 -3.5712 -3.5712 -3.5712 -3.5712 -3.5712 l -3.5712,0.63328 h -3.5712 l -3.5712,0.63329 -3.5712,1.26656 -3.5712,4.40643 -3.5712,0.51591 -3.5712,3.08708 -3.5712,7.12002 -3.5712,156.08676 -3.5712,0.67416 -3.5712,-0.59124 -3.5712,-1.32038 z"
               style="stroke:#945785;stroke-opacity:0.2" />
          </defs>
          <g
             clip-path="url(#pf5db5eb8dc)"
             id="g387">
            <use
               xlink:href="#m5adfeb66e6"
               x="0"
               y="345.60001"
               style="fill:#945785;fill-opacity:0.2;stroke:#945785;stroke-opacity:0.2"
               id="use385" />
          </g>
        </g>
        <g
           id="PolyCollection_4">
          <defs
             id="defs391">
            <path
               id="m6183b23a18"
               d="m 57.95712,-107.35023 v 30.837334 l 3.5712,0.932284 3.5712,1.21688 3.5712,-1.146439 3.5712,0.404238 3.5712,-188.823597 3.5712,-11.3074 3.5712,-5.10414 3.5712,-1.92934 3.5712,-11.98259 3.5712,-3.16589 3.5712,-3.4097 3.5712,-1.26657 3.5712,-1.89985 h 3.5712 3.5712 3.5712 3.5712 3.5712 3.5712 3.5712 3.5712 3.5712 3.5712 3.5712 3.5712 3.5712 3.5712 3.5712 3.5712 3.5712 3.5712 3.5712 3.5712 3.5712 3.5712 3.5712 3.5712 3.5712 3.5712 3.5712 3.5712 3.5712 3.5712 3.5712 3.5712 3.5712 3.5712 3.5712 3.5712 3.5712 3.5712 3.5712 3.5712 3.5712 3.5712 3.5712 3.5712 3.5712 3.5712 3.5712 3.5712 3.5712 3.5712 3.5712 3.5712 3.5712 3.5712 3.5712 3.5712 3.5712 3.5712 3.5712 3.5712 3.5712 3.5712 3.5712 3.5712 3.5712 3.5712 3.5712 3.5712 3.5712 3.5712 3.5712 3.5712 3.5712 3.5712 3.5712 3.5712 3.5712 3.5712 3.5712 3.5712 3.5712 3.5712 3.5712 3.5712 3.5712 3.5712 v 0 0 h -3.5712 -3.5712 -3.5712 -3.5712 -3.5712 -3.5712 -3.5712 -3.5712 -3.5712 -3.5712 -3.5712 -3.5712 -3.5712 -3.5712 -3.5712 -3.5712 -3.5712 -3.5712 -3.5712 -3.5712 -3.5712 -3.5712 -3.5712 -3.5712 -3.5712 -3.5712 -3.5712 -3.5712 -3.5712 -3.5712 -3.5712 -3.5712 -3.5712 -3.5712 -3.5712 -3.5712 -3.5712 -3.5712 -3.5712 -3.5712 -3.5712 -3.5712 -3.5712 -3.5712 -3.5712 -3.5712 -3.5712 -3.5712 -3.5712 -3.5712 -3.5712 -3.5712 -3.5712 -3.5712 -3.5712 -3.5712 -3.5712 -3.5712 -3.5712 -3.5712 -3.5712 -3.5712 -3.5712 -3.5712 -3.5712 -3.5712 -3.5712 -3.5712 -3.5712 -3.5712 -3.5712 -3.5712 -3.5712 -3.5712 -3.5712 -3.5712 -3.5712 -3.5712 -3.5712 -3.5712 -3.5712 -3.5712 -3.5712 -3.5712 -3.5712 -3.5712 -3.5712 -3.5712 l -3.5712,0.66495 -3.5712,1.86818 -3.5712,6.58475 -3.5712,1.85031 -3.5712,3.55158 -3.5712,9.3754 -3.5712,171.34837 -3.5712,0.56056 -3.5712,1.31771 -3.5712,-0.48953 z"
               style="stroke:#2d1e3e;stroke-opacity:0.2" />
          </defs>
          <g
             clip-path="url(#pf5db5eb8dc)"
             id="g395">
            <use
               xlink:href="#m6183b23a18"
               x="0"
               y="345.60001"
               style="fill:#2d1e3e;fill-opacity:0.2;stroke:#2d1e3e;stroke-opacity:0.2"
               id="use393" />
          </g>
        </g>
        <g
           id="matplotlib.axis_1">
          <g
             id="xtick_1">
            <g
               id="line2d_1">
              <defs
                 id="defs399">
                <path
                   id="mc22f293e70"
                   d="M 0,0 V 3.5"
                   style="stroke:#000000;stroke-width:0.8" />
              </defs>
              <g
                 id="g403">
                <use
                   xlink:href="#mc22f293e70"
                   x="57.599998"
                   y="307.58401"
                   style="stroke:#000000;stroke-width:0.8"
                   id="use401" />
              </g>
            </g>
            <g
               id="text_1">
              <text
                 style="font-style:normal;font-variant:normal;font-weight:normal;font-stretch:normal;font-size:10px;line-height:normal;font-family:'DejaVu Sans', 'Bitstream Vera Sans', 'Computer Modern Sans Serif', 'Lucida Grande', Verdana, Geneva, Lucid, Arial, Helvetica, 'Avant Garde', sans-serif;text-anchor:middle"
                 x="57.599998"
                 y="322.18243"
                 id="text406">0</text>
            </g>
          </g>
          <g
             id="xtick_2">
            <g
               id="line2d_2">
              <g
                 id="g412">
                <use
                   xlink:href="#mc22f293e70"
                   x="129.024"
                   y="307.58401"
                   style="stroke:#000000;stroke-width:0.8"
                   id="use410" />
              </g>
            </g>
            <g
               id="text_2">
              <text
                 style="font-style:normal;font-variant:normal;font-weight:normal;font-stretch:normal;font-size:10px;line-height:normal;font-family:'DejaVu Sans', 'Bitstream Vera Sans', 'Computer Modern Sans Serif', 'Lucida Grande', Verdana, Geneva, Lucid, Arial, Helvetica, 'Avant Garde', sans-serif;text-anchor:middle"
                 x="129.024"
                 y="322.18243"
                 id="text415">200</text>
            </g>
          </g>
          <g
             id="xtick_3">
            <g
               id="line2d_3">
              <g
                 id="g421">
                <use
                   xlink:href="#mc22f293e70"
                   x="200.448"
                   y="307.58401"
                   style="stroke:#000000;stroke-width:0.8"
                   id="use419" />
              </g>
            </g>
            <g
               id="text_3">
              <text
                 style="font-style:normal;font-variant:normal;font-weight:normal;font-stretch:normal;font-size:10px;line-height:normal;font-family:'DejaVu Sans', 'Bitstream Vera Sans', 'Computer Modern Sans Serif', 'Lucida Grande', Verdana, Geneva, Lucid, Arial, Helvetica, 'Avant Garde', sans-serif;text-anchor:middle"
                 x="200.448"
                 y="322.18243"
                 id="text424">400</text>
            </g>
          </g>
          <g
             id="xtick_4">
            <g
               id="line2d_4">
              <g
                 id="g430">
                <use
                   xlink:href="#mc22f293e70"
                   x="271.87201"
                   y="307.58401"
                   style="stroke:#000000;stroke-width:0.8"
                   id="use428" />
              </g>
            </g>
            <g
               id="text_4">
              <text
                 style="font-style:normal;font-variant:normal;font-weight:normal;font-stretch:normal;font-size:10px;line-height:normal;font-family:'DejaVu Sans', 'Bitstream Vera Sans', 'Computer Modern Sans Serif', 'Lucida Grande', Verdana, Geneva, Lucid, Arial, Helvetica, 'Avant Garde', sans-serif;text-anchor:middle"
                 x="271.87201"
                 y="322.18243"
                 id="text433">600</text>
            </g>
          </g>
          <g
             id="xtick_5">
            <g
               id="line2d_5">
              <g
                 id="g439">
                <use
                   xlink:href="#mc22f293e70"
                   x="343.29599"
                   y="307.58401"
                   style="stroke:#000000;stroke-width:0.8"
                   id="use437" />
              </g>
            </g>
            <g
               id="text_5">
              <text
                 style="font-style:normal;font-variant:normal;font-weight:normal;font-stretch:normal;font-size:10px;line-height:normal;font-family:'DejaVu Sans', 'Bitstream Vera Sans', 'Computer Modern Sans Serif', 'Lucida Grande', Verdana, Geneva, Lucid, Arial, Helvetica, 'Avant Garde', sans-serif;text-anchor:middle"
                 x="343.29599"
                 y="322.18243"
                 id="text442">800</text>
            </g>
          </g>
          <g
             id="xtick_6">
            <g
               id="line2d_6">
              <g
                 id="g448">
                <use
                   xlink:href="#mc22f293e70"
                   x="414.72"
                   y="307.58401"
                   style="stroke:#000000;stroke-width:0.8"
                   id="use446" />
              </g>
            </g>
            <g
               id="text_6">
              <text
                 style="font-style:normal;font-variant:normal;font-weight:normal;font-stretch:normal;font-size:10px;line-height:normal;font-family:'DejaVu Sans', 'Bitstream Vera Sans', 'Computer Modern Sans Serif', 'Lucida Grande', Verdana, Geneva, Lucid, Arial, Helvetica, 'Avant Garde', sans-serif;text-anchor:middle"
                 x="414.72"
                 y="322.18243"
                 id="text451">1000</text>
            </g>
          </g>
          <g
             id="text_7">
            <text
               style="font-style:normal;font-variant:normal;font-weight:normal;font-stretch:normal;font-size:10px;line-height:normal;font-family:'DejaVu Sans', 'Bitstream Vera Sans', 'Computer Modern Sans Serif', 'Lucida Grande', Verdana, Geneva, Lucid, Arial, Helvetica, 'Avant Garde', sans-serif;text-anchor:middle"
               x="236.16"
               y="335.86057"
               id="text455">Minimum breadth of coverage cutoff (bp)</text>
          </g>
        </g>
        <g
           id="matplotlib.axis_2">
          <g
             id="ytick_1">
            <g
               id="line2d_7">
              <defs
                 id="defs460">
                <path
                   id="m487ffd4352"
                   d="M 0,0 H -3.5"
                   style="stroke:#000000;stroke-width:0.8" />
              </defs>
              <g
                 id="g464">
                <use
                   xlink:href="#m487ffd4352"
                   x="57.599998"
                   y="307.58401"
                   style="stroke:#000000;stroke-width:0.8"
                   id="use462" />
              </g>
            </g>
            <g
               id="text_8">
              <text
                 style="font-style:normal;font-variant:normal;font-weight:normal;font-stretch:normal;font-size:10px;line-height:normal;font-family:'DejaVu Sans', 'Bitstream Vera Sans', 'Computer Modern Sans Serif', 'Lucida Grande', Verdana, Geneva, Lucid, Arial, Helvetica, 'Avant Garde', sans-serif;text-anchor:end"
                 x="50.599998"
                 y="311.38321"
                 id="text467">80.0</text>
            </g>
          </g>
          <g
             id="ytick_2">
            <g
               id="line2d_8">
              <g
                 id="g473">
                <use
                   xlink:href="#m487ffd4352"
                   x="57.599998"
                   y="274.33661"
                   style="stroke:#000000;stroke-width:0.8"
                   id="use471" />
              </g>
            </g>
            <g
               id="text_9">
              <text
                 style="font-style:normal;font-variant:normal;font-weight:normal;font-stretch:normal;font-size:10px;line-height:normal;font-family:'DejaVu Sans', 'Bitstream Vera Sans', 'Computer Modern Sans Serif', 'Lucida Grande', Verdana, Geneva, Lucid, Arial, Helvetica, 'Avant Garde', sans-serif;text-anchor:end"
                 x="50.599998"
                 y="278.13583"
                 id="text476">82.5</text>
            </g>
          </g>
          <g
             id="ytick_3">
            <g
               id="line2d_9">
              <g
                 id="g482">
                <use
                   xlink:href="#m487ffd4352"
                   x="57.599998"
                   y="241.08925"
                   style="stroke:#000000;stroke-width:0.8"
                   id="use480" />
              </g>
            </g>
            <g
               id="text_10">
              <text
                 style="font-style:normal;font-variant:normal;font-weight:normal;font-stretch:normal;font-size:10px;line-height:normal;font-family:'DejaVu Sans', 'Bitstream Vera Sans', 'Computer Modern Sans Serif', 'Lucida Grande', Verdana, Geneva, Lucid, Arial, Helvetica, 'Avant Garde', sans-serif;text-anchor:end"
                 x="50.599998"
                 y="244.88847"
                 id="text485">85</text>
            </g>
          </g>
          <g
             id="ytick_4">
            <g
               id="line2d_10">
              <g
                 id="g491">
                <use
                   xlink:href="#m487ffd4352"
                   x="57.599998"
                   y="207.84187"
                   style="stroke:#000000;stroke-width:0.8"
                   id="use489" />
              </g>
            </g>
            <g
               id="text_11">
              <text
                 style="font-style:normal;font-variant:normal;font-weight:normal;font-stretch:normal;font-size:10px;line-height:normal;font-family:'DejaVu Sans', 'Bitstream Vera Sans', 'Computer Modern Sans Serif', 'Lucida Grande', Verdana, Geneva, Lucid, Arial, Helvetica, 'Avant Garde', sans-serif;text-anchor:end"
                 x="50.599998"
                 y="211.64108"
                 id="text494">87.5</text>
            </g>
          </g>
          <g
             id="ytick_5">
            <g
               id="line2d_11">
              <g
                 id="g500">
                <use
                   xlink:href="#m487ffd4352"
                   x="57.599998"
                   y="174.5945"
                   style="stroke:#000000;stroke-width:0.8"
                   id="use498" />
              </g>
            </g>
            <g
               id="text_12">
              <text
                 style="font-style:normal;font-variant:normal;font-weight:normal;font-stretch:normal;font-size:10px;line-height:normal;font-family:'DejaVu Sans', 'Bitstream Vera Sans', 'Computer Modern Sans Serif', 'Lucida Grande', Verdana, Geneva, Lucid, Arial, Helvetica, 'Avant Garde', sans-serif;text-anchor:end"
                 x="50.599998"
                 y="178.39371"
                 id="text503">90.0</text>
            </g>
          </g>
          <g
             id="ytick_6">
            <g
               id="line2d_12">
              <g
                 id="g509">
                <use
                   xlink:href="#m487ffd4352"
                   x="57.599998"
                   y="141.34712"
                   style="stroke:#000000;stroke-width:0.8"
                   id="use507" />
              </g>
            </g>
            <g
               id="text_13">
              <text
                 style="font-style:normal;font-variant:normal;font-weight:normal;font-stretch:normal;font-size:10px;line-height:normal;font-family:'DejaVu Sans', 'Bitstream Vera Sans', 'Computer Modern Sans Serif', 'Lucida Grande', Verdana, Geneva, Lucid, Arial, Helvetica, 'Avant Garde', sans-serif;text-anchor:end"
                 x="50.599998"
                 y="145.14633"
                 id="text512">92.5</text>
            </g>
          </g>
          <g
             id="ytick_7">
            <g
               id="line2d_13">
              <g
                 id="g518">
                <use
                   xlink:href="#m487ffd4352"
                   x="57.599998"
                   y="108.09974"
                   style="stroke:#000000;stroke-width:0.8"
                   id="use516" />
              </g>
            </g>
            <g
               id="text_14">
              <text
                 style="font-style:normal;font-variant:normal;font-weight:normal;font-stretch:normal;font-size:10px;line-height:normal;font-family:'DejaVu Sans', 'Bitstream Vera Sans', 'Computer Modern Sans Serif', 'Lucida Grande', Verdana, Geneva, Lucid, Arial, Helvetica, 'Avant Garde', sans-serif;text-anchor:end"
                 x="50.599998"
                 y="111.89896"
                 id="text521">95.0</text>
            </g>
          </g>
          <g
             id="ytick_8">
            <g
               id="line2d_14">
              <g
                 id="g527">
                <use
                   xlink:href="#m487ffd4352"
                   x="57.599998"
                   y="74.852364"
                   style="stroke:#000000;stroke-width:0.8"
                   id="use525" />
              </g>
            </g>
            <g
               id="text_15">
              <text
                 style="font-style:normal;font-variant:normal;font-weight:normal;font-stretch:normal;font-size:10px;line-height:normal;font-family:'DejaVu Sans', 'Bitstream Vera Sans', 'Computer Modern Sans Serif', 'Lucida Grande', Verdana, Geneva, Lucid, Arial, Helvetica, 'Avant Garde', sans-serif;text-anchor:end"
                 x="50.599998"
                 y="78.651588"
                 id="text530">97.5</text>
            </g>
          </g>
          <g
             id="ytick_9">
            <g
               id="line2d_15">
              <g
                 id="g536">
                <use
                   xlink:href="#m487ffd4352"
                   x="57.599998"
                   y="41.604988"
                   style="stroke:#000000;stroke-width:0.8"
                   id="use534" />
              </g>
            </g>
            <g
               id="text_16">
              <text
                 style="font-style:normal;font-variant:normal;font-weight:normal;font-stretch:normal;font-size:10px;line-height:normal;font-family:'DejaVu Sans', 'Bitstream Vera Sans', 'Computer Modern Sans Serif', 'Lucida Grande', Verdana, Geneva, Lucid, Arial, Helvetica, 'Avant Garde', sans-serif;text-anchor:end"
                 x="50.599998"
                 y="45.404209"
                 id="text539">100</text>
            </g>
          </g>
          <g
             id="text_17">
            <text
               style="font-style:normal;font-variant:normal;font-weight:normal;font-stretch:normal;font-size:10px;line-height:normal;font-family:'DejaVu Sans', 'Bitstream Vera Sans', 'Computer Modern Sans Serif', 'Lucida Grande', Verdana, Geneva, Lucid, Arial, Helvetica, 'Avant Garde', sans-serif;text-anchor:middle"
               x="15.892188"
               y="174.528"
               transform="rotate(-90,15.892188,174.528)"
               id="text543">Specificity (%)</text>
          </g>
        </g>
        <g
           id="line2d_16">
          <path
             d="m 57.95712,70.715999 h 3.5712 3.5712 3.5712 3.5712 l 3.5712,-29.111009 h 3.5712 3.5712 3.5712 3.5712 3.5712 3.5712 3.5712 3.5712 3.5712 3.5712 3.5712 3.5712 3.5712 3.5712 3.5712 3.5712 3.5712 3.5712 3.5712 3.5712 3.5712 3.5712 3.5712 3.5712 3.5712 3.5712 3.5712 3.5712 3.5712 3.5712 3.5712 3.5712 3.5712 3.5712 3.5712 3.5712 3.5712 3.5712 3.5712 3.5712 3.5712 3.5712 3.5712 3.5712 3.5712 3.5712 3.5712 3.5712 3.5712 3.5712 3.5712 3.5712 3.5712 3.5712 3.5712 3.5712 3.5712 3.5712 3.5712 3.5712 3.5712 3.5712 3.5712 3.5712 3.5712 3.5712 3.5712 3.5712 3.5712 3.5712 3.5712 3.5712 3.5712 3.5712 3.5712 3.5712 3.5712 3.5712 3.5712 3.5712 3.5712 3.5712 3.5712 3.5712 3.5712 3.5712 3.5712 3.5712 3.5712 3.5712 3.5712 3.5712 3.5712 3.5712"
             clip-path="url(#pf5db5eb8dc)"
             style="fill:none;stroke:#edd1cb;stroke-width:1.5;stroke-linecap:square"
             id="path547" />
        </g>
        <g
           id="line2d_17">
          <path
             d="m 57.95712,172.96769 h 3.5712 3.5712 3.5712 3.5712 l 3.5712,-121.687282 3.5712,-3.365613 3.5712,-1.845158 3.5712,-0.633283 3.5712,-2.564798 3.5712,-0.633283 h 3.5712 3.5712 3.5712 3.5712 l 3.5712,-0.633283 h 3.5712 3.5712 3.5712 3.5712 3.5712 3.5712 3.5712 3.5712 3.5712 3.5712 3.5712 3.5712 3.5712 3.5712 3.5712 3.5712 3.5712 3.5712 3.5712 3.5712 3.5712 3.5712 3.5712 3.5712 3.5712 3.5712 3.5712 3.5712 3.5712 3.5712 3.5712 3.5712 3.5712 3.5712 3.5712 3.5712 3.5712 3.5712 3.5712 3.5712 3.5712 3.5712 3.5712 3.5712 3.5712 3.5712 3.5712 3.5712 3.5712 3.5712 3.5712 3.5712 3.5712 3.5712 3.5712 3.5712 3.5712 3.5712 3.5712 3.5712 3.5712 3.5712 3.5712 3.5712 3.5712 3.5712 3.5712 3.5712 3.5712 3.5712 3.5712 3.5712 3.5712 3.5712 3.5712 3.5712 3.5712 3.5712 3.5712 3.5712 3.5712 3.5712 3.5712 3.5712"
             clip-path="url(#pf5db5eb8dc)"
             style="fill:none;stroke:#daa4ac;stroke-width:1.5;stroke-linecap:square"
             id="path550" />
        </g>
        <g
           id="line2d_18">
          <path
             d="m 57.95712,229.18249 h 3.5712 3.5712 3.5712 3.5712 l 3.5712,-162.489042 3.5712,-8.4587 3.5712,-3.032564 3.5712,-0.633283 3.5712,-6.717435 3.5712,-1.871064 3.5712,-0.633284 3.5712,-0.633283 3.5712,-0.601619 h 3.5712 l 3.5712,-1.24066 h 3.5712 3.5712 l 3.5712,0.03166 3.5712,-0.664947 3.5712,-0.633283 h 3.5712 3.5712 3.5712 3.5712 3.5712 3.5712 3.5712 3.5712 3.5712 3.5712 3.5712 3.5712 3.5712 3.5712 3.5712 3.5712 3.5712 3.5712 3.5712 3.5712 3.5712 3.5712 3.5712 3.5712 3.5712 3.5712 3.5712 3.5712 3.5712 3.5712 3.5712 3.5712 3.5712 3.5712 3.5712 3.5712 3.5712 3.5712 3.5712 3.5712 3.5712 3.5712 3.5712 3.5712 3.5712 3.5712 3.5712 3.5712 3.5712 3.5712 3.5712 3.5712 3.5712 3.5712 3.5712 3.5712 3.5712 3.5712 3.5712 3.5712 3.5712 3.5712 3.5712 3.5712 3.5712 3.5712 3.5712 3.5712 3.5712 3.5712 3.5712 3.5712 3.5712 3.5712 3.5712 3.5712 3.5712 3.5712 3.5712"
             clip-path="url(#pf5db5eb8dc)"
             style="fill:none;stroke:#945785;stroke-width:1.5;stroke-linecap:square"
             id="path553" />
        </g>
        <g
           id="line2d_19">
          <path
             d="m 57.95712,254.33453 h 3.5712 3.5712 3.5712 l 3.5712,-0.53723 3.5712,-180.414289 3.5712,-10.422856 3.5712,-4.24475 3.5712,-1.792593 3.5712,-9.481061 3.5712,-2.533133 3.5712,-2.037062 3.5712,-0.633283 3.5712,-0.633283 h 3.5712 3.5712 3.5712 3.5712 3.5712 3.5712 3.5712 3.5712 3.5712 3.5712 3.5712 3.5712 3.5712 3.5712 3.5712 3.5712 3.5712 3.5712 3.5712 3.5712 3.5712 3.5712 3.5712 3.5712 3.5712 3.5712 3.5712 3.5712 3.5712 3.5712 3.5712 3.5712 3.5712 3.5712 3.5712 3.5712 3.5712 3.5712 3.5712 3.5712 3.5712 3.5712 3.5712 3.5712 3.5712 3.5712 3.5712 3.5712 3.5712 3.5712 3.5712 3.5712 3.5712 3.5712 3.5712 3.5712 3.5712 3.5712 3.5712 3.5712 3.5712 3.5712 3.5712 3.5712 3.5712 3.5712 3.5712 3.5712 3.5712 3.5712 3.5712 3.5712 3.5712 3.5712 3.5712 3.5712 3.5712 3.5712 3.5712 3.5712 3.5712 3.5712 3.5712 3.5712 3.5712 3.5712"
             clip-path="url(#pf5db5eb8dc)"
             style="fill:none;stroke:#2d1e3e;stroke-width:1.5;stroke-linecap:square"
             id="path556" />
        </g>
        <g
           id="line2d_24"
           style="stroke:#ef0000;stroke-opacity:1">
          <path
             d="M 211.1616,307.584 V 41.472"
             clip-path="url(#pf5db5eb8dc)"
             style="fill:none;stroke:#ef0000;stroke-width:1.5;stroke-linecap:square;stroke-opacity:1"
             id="path563" />
        </g>
        <g
           id="patch_3">
          <path
             d="M 57.6,307.584 V 41.472"
             style="fill:none;stroke:#000000;stroke-width:0.8;stroke-linecap:square;stroke-linejoin:miter"
             id="path566" />
        </g>
        <g
           id="patch_4">
          <path
             d="M 414.72,307.584 V 41.472"
             style="fill:none;stroke:#000000;stroke-width:0.8;stroke-linecap:square;stroke-linejoin:miter"
             id="path569" />
        </g>
        <g
           id="patch_5">
          <path
             d="M 57.6,307.584 H 414.72"
             style="fill:none;stroke:#000000;stroke-width:0.8;stroke-linecap:square;stroke-linejoin:miter"
             id="path572" />
        </g>
        <g
           id="patch_6">
          <path
             d="M 57.6,41.472 H 414.72"
             style="fill:none;stroke:#000000;stroke-width:0.8;stroke-linecap:square;stroke-linejoin:miter"
             id="path575" />
        </g>
        <g
           id="g1161"
           transform="translate(257.8693,-164.23723)"
           style="stroke-linecap:butt;stroke-linejoin:round">
          <g
             id="text_15-3"
             style="stroke-linecap:butt;stroke-linejoin:round">
            <text
               style="font-style:normal;font-variant:normal;font-weight:normal;font-stretch:normal;font-size:10px;line-height:normal;font-family:'DejaVu Sans', 'Bitstream Vera Sans', 'Computer Modern Sans Serif', 'Lucida Grande', Verdana, Geneva, Lucid, Arial, Helvetica, 'Avant Garde', sans-serif;text-anchor:start;stroke-linecap:butt;stroke-linejoin:round"
               x="70.458595"
               y="218.29181"
               id="text192"><tspan
                 sodipodi:role="line"
                 id="tspan1137"
                 x="70.458595"
                 y="218.29181">Divergence from</tspan><tspan
                 sodipodi:role="line"
                 id="tspan1139"
                 x="70.458595"
                 y="230.79181">reference DB</tspan></text>
          </g>
          <g
             id="line2d_22-5"
             transform="translate(24,-7.5)"
             style="stroke-linecap:butt;stroke-linejoin:round">
            <path
               d="m 66.6,248.96994 h 10 10"
               style="fill:none;stroke:#edd1cb;stroke-width:1.5;stroke-linecap:square;stroke-linejoin:round"
               id="path195" />
          </g>
          <g
             id="text_16-6"
             transform="translate(19.5,-7.5)"
             style="stroke-linecap:butt;stroke-linejoin:round">
            <text
               style="font-style:normal;font-variant:normal;font-weight:normal;font-stretch:normal;font-size:10px;line-height:normal;font-family:'DejaVu Sans', 'Bitstream Vera Sans', 'Computer Modern Sans Serif', 'Lucida Grande', Verdana, Geneva, Lucid, Arial, Helvetica, 'Avant Garde', sans-serif;text-anchor:start;stroke-linecap:butt;stroke-linejoin:round"
               x="94.599998"
               y="252.46994"
               id="text198">0%</text>
          </g>
          <g
             id="line2d_23-2"
             transform="translate(24,-7.5)"
             style="stroke-linecap:butt;stroke-linejoin:round">
            <path
               d="m 66.6,263.64806 h 10 10"
               style="fill:none;stroke:#daa4ac;stroke-width:1.5;stroke-linecap:square;stroke-linejoin:round"
               id="path201" />
          </g>
          <g
             id="text_17-9"
             transform="translate(19.5,-7.5)"
             style="stroke-linecap:butt;stroke-linejoin:round">
            <text
               style="font-style:normal;font-variant:normal;font-weight:normal;font-stretch:normal;font-size:10px;line-height:normal;font-family:'DejaVu Sans', 'Bitstream Vera Sans', 'Computer Modern Sans Serif', 'Lucida Grande', Verdana, Geneva, Lucid, Arial, Helvetica, 'Avant Garde', sans-serif;text-anchor:start;stroke-linecap:butt;stroke-linejoin:round"
               x="94.599998"
               y="267.14807"
               id="text204">1%</text>
          </g>
          <g
             id="line2d_24-1"
             transform="translate(24,-7.5)"
             style="stroke-linecap:butt;stroke-linejoin:round">
            <path
               d="m 66.6,278.32619 h 10 10"
               style="fill:none;stroke:#945785;stroke-width:1.5;stroke-linecap:square;stroke-linejoin:round"
               id="path207" />
          </g>
          <g
             id="text_18"
             transform="translate(19.5,-7.5)"
             style="stroke-linecap:butt;stroke-linejoin:round">
            <text
               style="font-style:normal;font-variant:normal;font-weight:normal;font-stretch:normal;font-size:10px;line-height:normal;font-family:'DejaVu Sans', 'Bitstream Vera Sans', 'Computer Modern Sans Serif', 'Lucida Grande', Verdana, Geneva, Lucid, Arial, Helvetica, 'Avant Garde', sans-serif;text-anchor:start;stroke-linecap:butt;stroke-linejoin:round"
               x="94.599998"
               y="281.8262"
               id="text210">3%</text>
          </g>
          <g
             id="line2d_25"
             transform="translate(24,-7.5)"
             style="stroke-linecap:butt;stroke-linejoin:round">
            <path
               d="m 66.6,293.00431 h 10 10"
               style="fill:none;stroke:#2d1e3e;stroke-width:1.5;stroke-linecap:square;stroke-linejoin:round"
               id="path213" />
          </g>
          <g
             id="text_19"
             transform="translate(19.5,-7.5)"
             style="stroke-linecap:butt;stroke-linejoin:round">
            <text
               style="font-style:normal;font-variant:normal;font-weight:normal;font-stretch:normal;font-size:10px;line-height:normal;font-family:'DejaVu Sans', 'Bitstream Vera Sans', 'Computer Modern Sans Serif', 'Lucida Grande', Verdana, Geneva, Lucid, Arial, Helvetica, 'Avant Garde', sans-serif;text-anchor:start;stroke-linecap:butt;stroke-linejoin:round"
               x="94.599998"
               y="296.5043"
               id="text216">5%</text>
          </g>
        </g>
      </g>
      <g
         id="g2449"
         transform="matrix(0.95381641,0,0,0.95381641,-72.234047,-29.563403)">
        <g
           id="PolyCollection_1-2"
           style="stroke-linecap:butt;stroke-linejoin:round"
           transform="translate(82.471918,44.206506)">
          <defs
             id="defs15">
            <path
               id="path2032"
               d="m 73.832727,-333.66643 v 10.64448 h 3.279339 l 3.279339,-0.53223 3.279339,0.53223 3.279339,-0.26611 3.279338,21.02284 h 3.279339 l 3.279339,-0.25945 3.279341,0.25945 3.27934,1.86279 3.27934,0.53222 h 3.27934 l 3.27933,0.26611 3.27934,1.06445 3.27934,0.26611 3.27934,-0.26611 3.27934,0.26611 3.27934,0.53223 3.27934,0.79833 3.27933,0.26612 3.27934,-0.26612 h 3.27934 l 3.27934,2.66778 3.27934,0.25946 h 3.27934 3.27934 l 3.27934,0.53222 h 3.27934 3.27933 3.27934 l 3.27934,0.26611 3.27934,1.59667 3.27934,-0.53222 3.27934,1.06445 3.27934,-0.53223 3.27934,1.59668 3.27934,0.26611 3.27933,-0.26611 3.27934,0.26611 3.27934,1.59667 h 3.27934 l 3.27934,0.007 3.27934,-0.007 3.27934,3.45946 3.27934,0.26611 h 3.27933 l 3.27934,1.06445 h 3.27934 l 3.27934,3.99833 3.27934,1.32391 3.27934,-0.25946 3.27934,0.52557 3.27934,3.45945 3.27934,0.53223 3.27933,0.53887 3.27934,-0.53887 3.27934,2.92723 3.27934,0.53222 h 3.27934 l 3.27934,0.27277 3.27934,0.25946 3.27934,4.25779 3.27934,-0.52557 3.27933,1.32391 3.27934,1.06444 3.27934,1.33056 3.27934,1.06445 3.27934,1.59667 3.27934,0.27277 3.27934,2.38835 3.27934,1.33056 3.27934,0.007 3.27933,1.05779 3.27934,0.79834 3.27934,2.39501 3.27934,-1.33056 3.27934,1.59667 3.27934,0.53888 3.27934,2.66112 3.27934,0.26611 3.27934,0.25946 3.27933,1.33721 3.27934,2.92723 3.27934,1.85613 3.27934,2.13555 3.27934,0.79834 3.27934,1.3239 3.27934,0.53888 3.27933,0.25946 3.27934,0.79834 3.27934,1.33056 3.27934,1.33056 3.27934,1.06444 3.27934,0.80499 3.27934,1.32391 3.27934,0.53222 3.27934,1.33722 3.27933,0.79833 3.27934,1.85613 3.27934,0.80499 v -19.69894 0 l -3.27934,-0.53887 -3.27934,-1.06445 -3.27933,-2.12225 -3.27934,-0.26611 -3.27934,-0.53887 -3.27934,-0.25946 -3.27934,-1.06445 -3.27934,-0.79834 -3.27934,-1.60332 -3.27934,-1.0578 -3.27934,-0.26611 -3.27933,-0.80499 -3.27934,-0.25946 -3.27934,-1.33056 -3.27934,-1.06445 -3.27934,-1.33056 -3.27934,-0.53222 -3.27934,-3.99833 -3.27933,0.27276 -3.27934,-1.33056 -3.27934,-0.26611 -3.27934,-1.59667 -3.27934,-1.06445 -3.27934,-0.79834 h -3.27934 l -3.27934,-1.59667 h -3.27934 l -3.27933,-1.59667 h -3.27934 l -3.27934,-0.53222 -3.27934,-2.92724 h -3.27934 l -3.27934,-0.53887 -3.27934,-1.06445 -3.27934,-1.85613 -3.27934,-0.79834 -3.27933,0.26611 -3.27934,-1.0711 -3.27934,-2.38835 h -3.27934 l -3.27934,-0.26611 -3.27934,-0.53223 -3.27934,0.26611 -3.27934,-2.12889 -3.27934,-0.53223 h -3.27933 l -3.27934,-0.26611 -3.27934,-2.39501 -3.27934,-0.53222 -3.27934,0.25946 -3.27934,-1.59002 -3.27934,-2.66112 -3.27934,-0.26611 -3.27934,-0.53223 -3.27933,-0.53222 h -3.27934 l -3.27934,-2.66777 -3.27934,-0.25946 h -3.27934 l -3.27934,0.26611 -3.27934,-1.33056 -3.27934,0.26611 h -3.27933 l -3.27934,-0.53222 -3.27934,-0.79834 -3.27934,0.26611 -3.27934,-0.26611 h -3.27934 l -3.27934,-1.06445 h -3.27934 -3.27934 -3.27933 -3.27934 l -3.27934,-0.53222 -3.27934,0.26611 -3.27934,-0.26611 h -3.27934 l -3.27934,-1.33056 h -3.27934 -3.27934 -3.27933 l -3.27934,-0.53222 -3.27934,-0.26612 h -3.27934 -3.27934 -3.27934 l -3.27934,-0.53222 h -3.27933 -3.27934 l -3.27934,-0.53222 -3.27934,-1.59668 h -3.279341 l -3.279339,0.26612 -3.279339,-0.26612 -3.279338,-28.74675 -3.279339,0.007 -3.279339,0.26611 -3.279339,-0.53222 z"
               style="stroke:#edd1cb;stroke-opacity:0.2" />
          </defs>
          <g
             clip-path="url(#p4785ca9589)"
             id="g19"
             style="stroke-linecap:butt;stroke-linejoin:round">
            <use
               xlink:href="#m1ead3acb3f"
               x="0"
               y="345.60001"
               style="fill:#edd1cb;fill-opacity:0.2;stroke:#edd1cb;stroke-linecap:butt;stroke-linejoin:round;stroke-opacity:0.2"
               id="use17" />
          </g>
        </g>
        <g
           id="PolyCollection_2-7"
           style="stroke-linecap:butt;stroke-linejoin:round"
           transform="translate(82.471918,44.206506)">
          <defs
             id="defs23">
            <path
               id="path2038"
               d="m 73.832727,-456.87629 v 29.53843 l 3.279339,-0.79168 3.279339,0.52557 3.279339,1.0711 3.279339,-0.007 3.279338,119.7504 3.279339,3.19334 3.279339,1.33056 3.279341,0.26612 3.27934,4.25779 3.27934,0.27276 3.27934,0.25946 3.27933,0.26611 3.27934,2.1289 3.27934,0.26611 h 3.27934 3.27934 l 3.27934,-0.26611 3.27934,1.86278 3.27933,0.26612 3.27934,0.26611 3.27934,0.27276 3.27934,3.45946 3.27934,0.79168 3.27934,0.26611 3.27934,0.26612 3.27934,6.38668 3.27934,-0.25946 3.27933,0.52558 3.27934,-0.26612 h 3.27934 l 3.27934,3.45946 3.27934,0.27277 3.27934,-0.007 3.27934,0.79834 3.27934,2.66112 3.27934,0.53222 3.27933,0.53223 3.27934,1.06444 3.27934,1.33056 3.27934,0.27277 3.27934,1.05779 3.27934,0.26612 3.27934,3.45945 h 3.27934 l 3.27933,0.53223 3.27934,-0.52558 3.27934,1.0578 3.27934,3.19334 3.27934,1.06445 3.27934,0.79834 3.27934,1.0711 3.27934,3.99168 3.27934,1.05779 3.27933,-0.26611 3.27934,0.79834 3.27934,3.19334 3.27934,0.27277 3.27934,1.05779 3.27934,0.79834 3.27934,0.53222 3.27934,1.86944 h 3.27934 l 3.27933,1.85613 3.27934,-0.26611 3.27934,3.19334 3.27934,2.40166 3.27934,0.79169 3.27934,0.26611 3.27934,2.13555 3.27934,1.85613 3.27934,0.79833 3.27933,0.53223 3.27934,2.12889 3.27934,2.66778 3.27934,1.06445 3.27934,1.05779 3.27934,0.79834 3.27934,2.92723 3.27934,0.26611 3.27934,0.26611 3.27933,1.59667 3.27934,2.1289 3.27934,0.53222 3.27934,0.007 3.27934,1.59667 3.27934,1.59002 3.27934,1.86278 3.27933,1.33056 3.27934,0.26611 3.27934,0.53223 3.27934,1.86278 3.27934,2.66778 3.27934,-0.007 3.27934,1.06445 3.27934,2.1289 3.27934,0.79833 3.27933,0.26611 3.27934,0.53223 3.27934,2.93388 v -21.29561 0 l -3.27934,-4.26444 -3.27934,0.26611 -3.27933,-0.80499 -3.27934,-0.78503 -3.27934,-1.86279 -3.27934,-0.53222 -3.27934,-0.80499 -3.27934,-1.32391 -3.27934,-2.12889 -3.27934,-0.27277 -3.27934,-0.79168 -3.27933,-1.33721 -3.27934,-1.32391 -3.27934,-1.59667 -3.27934,-1.06445 h -3.27934 l -3.27934,-0.80499 -3.27934,-1.59002 -3.27933,-1.0711 -3.27934,0.53888 -3.27934,-1.86279 -3.27934,-2.66112 -3.27934,-0.53222 -3.27934,-1.33056 -3.27934,-0.53888 -3.27934,-3.18669 -3.27934,-0.80499 -3.27933,-0.79168 -3.27934,-0.53222 -3.27934,-0.26612 -3.27934,-2.93388 -3.27934,-0.26611 -3.27934,-0.52557 -3.27934,-2.1289 -3.27934,-2.1289 -3.27934,-0.79833 -3.27933,-0.26611 -3.27934,0.25946 -3.27934,-2.1289 -3.27934,-1.32391 -3.27934,0.25946 -3.27934,-0.79833 -3.27934,-0.79169 -3.27934,-2.39501 -3.27934,-0.53222 -3.27933,-0.26611 -3.27934,-1.33056 -3.27934,-3.45946 -3.27934,-0.26611 -3.27934,-0.53222 -3.27934,-1.33056 -3.27934,-1.86944 -3.27934,-0.52557 h -3.27934 l -3.27933,-0.53223 -3.27934,-0.79833 -3.27934,-1.33056 -3.27934,-0.26611 -3.27934,-0.27277 -3.27934,-0.25946 -3.27934,-1.86278 h -3.27934 l -3.27933,-0.79834 h -3.27934 l -3.27934,-2.39501 -3.27934,-0.53222 -3.27934,-0.007 -3.27934,-0.25946 -3.27934,-2.66112 -3.27934,-0.53223 h -3.27934 -3.27933 -3.27934 l -3.27934,-4.25779 -3.27934,-0.53222 h -3.27934 l -3.27934,-0.53223 -3.27934,-2.66112 -3.27934,0.26612 -3.27934,-0.53223 h -3.27933 l -3.27934,-1.59667 h -3.27934 l -3.27934,0.25946 -3.27934,-0.52557 -3.27934,-0.26611 -3.27934,-1.59668 -3.27933,-0.007 -3.27934,-0.25946 -3.27934,-0.53222 -3.27934,-4.25779 -3.279341,-0.79834 -3.279339,-1.59667 -3.279339,-5.05613 -3.279338,-142.36992 -3.279339,0.52557 h -3.279339 l -3.279339,-0.52557 z"
               style="stroke:#daa4ac;stroke-opacity:0.2" />
          </defs>
          <g
             clip-path="url(#p4785ca9589)"
             id="g27"
             style="stroke-linecap:butt;stroke-linejoin:round">
            <use
               xlink:href="#m32c579257a"
               x="0"
               y="345.60001"
               style="fill:#daa4ac;fill-opacity:0.2;stroke:#daa4ac;stroke-linecap:butt;stroke-linejoin:round;stroke-opacity:0.2"
               id="use25" />
          </g>
        </g>
        <g
           id="PolyCollection_3-0"
           style="stroke-linecap:butt;stroke-linejoin:round"
           transform="translate(82.471918,44.206506)">
          <path
             d="m 73.832727,-236.88115 v 50.32178 l 3.279339,-0.0266 3.279339,2.395 3.279339,0.29273 3.279339,-2.14886 3.279338,215.54407 3.279339,6.386688 3.279339,2.927232 h 3.279341 l 3.27934,9.846144 3.27934,2.135549 3.27934,0.525571 3.27933,0.532224 3.27934,5.062781 3.27934,-0.0067 h 3.27934 l 3.27934,0.532224 3.27934,-0.266112 3.27934,5.588352 3.27933,-0.266112 3.27934,0.0067 3.27934,0.525571 3.27934,6.918912 3.27934,0.266112 3.27934,0.532224 3.27934,-0.532224 3.27934,7.717248 3.27934,1.064448 3.27933,0.266112 3.27934,0.532224 3.27934,-0.532224 3.27934,5.32224 3.27934,-0.525571 3.27934,1.323907 3.27934,-0.525571 3.27934,6.113923 3.27934,1.603325 3.27933,-0.538877 3.27934,0.266112 3.27934,6.925565 3.27934,-0.804989 3.27934,0.804989 3.27934,0.259459 3.27934,3.991684 3.27934,0.80499 3.27933,0.26611 3.27934,-0.007 3.27934,0.26612 3.27934,4.5239 3.27934,1.06445 3.27934,1.59667 3.27934,-1.06445 3.27934,4.25779 3.27934,0.79834 3.27933,0.007 3.27934,1.33056 3.27934,5.5817 h 3.27934 l 3.27934,2.92723 3.27934,1.33056 3.27934,1.59668 3.27934,5.05612 3.27934,1.59668 3.27933,0.79833 3.27934,0.26611 3.27934,5.58836 3.27934,1.33056 3.27934,2.13554 3.27934,-0.53887 3.27934,5.85446 3.27934,0.53888 3.27934,2.65447 3.27933,0.53887 3.27934,1.0578 3.27934,3.45945 3.27934,2.13555 3.27934,1.59667 3.27934,1.06445 3.27934,4.25114 3.27934,1.34387 3.27934,1.3239 3.27933,0.79834 3.27934,1.0578 3.27934,2.13554 h 3.27934 l 3.27934,1.59002 3.27934,2.92724 3.27934,1.06444 h 3.27933 l 3.27934,0.79834 3.27934,0.80499 3.27934,2.12224 3.27934,1.59667 3.27934,2.40166 3.27934,1.06445 3.27934,1.32391 3.27934,4.26444 3.27933,-1.33056 3.27934,2.92724 3.27934,1.05779 v -28.21452 0 l -3.27934,-2.39501 -3.27934,-1.33056 -3.27933,-0.25946 -3.27934,-2.1289 -3.27934,-1.59667 -3.27934,-2.13555 -3.27934,-1.60332 -3.27934,-0.79169 -3.27934,-1.86278 -3.27934,-3.18669 -3.27934,2.92723 -3.27933,-0.79833 -3.27934,-2.66112 -3.27934,-0.79834 -3.27934,-1.33056 -3.27934,-1.06445 -3.27934,-0.53888 -3.27934,-2.12889 -3.27933,-0.80499 -3.27934,-1.05114 -3.27934,-0.79834 -3.27934,-3.99168 -3.27934,-0.53222 -3.27934,-0.27277 -3.27934,-2.65446 -3.27934,-3.46611 -3.27934,-0.25946 -3.27933,-2.1289 -3.27934,-1.06445 -3.27934,-2.13554 -3.27934,-2.38836 -3.27934,-1.86278 -3.27934,-0.26612 -3.27934,-0.79833 -3.27934,-6.12058 -3.27934,-0.53887 -3.27933,0.007 -3.27934,-1.86279 -3.27934,-5.58835 -3.27934,-0.007 -3.27934,-2.38836 -3.27934,-1.86278 -3.27934,-0.26611 -3.27934,-4.257794 -3.27934,-0.804989 -3.27933,-0.259459 -3.27934,-1.337213 -3.27934,-3.985027 h -3.27934 l -3.27934,-0.532224 -3.27934,-1.064448 -3.27934,-3.193344 -3.27934,-1.064448 h -3.27934 l -3.27933,0.259459 -3.27934,-0.259459 -3.27934,-3.725568 -3.27934,-0.532224 -3.27934,0.518918 -3.27934,-1.317254 -3.27934,-3.99168 -3.27934,-0.798336 -3.27933,-0.532224 -3.27934,-0.272765 -3.27934,-5.847811 -3.27934,-0.266112 -3.27934,-0.532224 h -3.27934 l -3.27934,-4.257792 -3.27934,0.266112 -3.27934,-0.272765 -3.27933,0.0067 -3.27934,-0.798336 -3.27934,-5.056128 -3.27934,0.266112 -3.27934,0.525571 -3.27934,-0.266112 -3.27934,-5.854464 -3.27934,0.272765 -3.27934,-0.0067 -3.27933,0.0067 -3.27934,-3.459456 -3.27934,0.266112 -3.27934,-0.532224 -3.27934,-0.266112 -3.27934,0.525571 -3.27934,-3.459456 -3.27933,-0.798336 -3.27934,-0.791683 -3.27934,-2.66112 -3.27934,-11.708928 -3.279341,0.266112 -3.279339,-4.523904 -3.279339,-10.917245 -3.279338,-253.065858 -3.279339,-0.53222 -3.279339,1.32391 -3.279339,-0.79834 z"
             clip-path="url(#p4785ca9589)"
             style="fill:#945785;fill-opacity:0.2;stroke:#945785;stroke-linecap:butt;stroke-linejoin:round;stroke-opacity:0.2"
             id="path30" />
        </g>
        <g
           id="PolyCollection_4-9"
           style="stroke-linecap:butt;stroke-linejoin:round"
           transform="translate(82.471918,44.206506)">
          <path
             d="m 73.832727,-236.62169 v 41.52678 l 3.279339,1.60332 3.279339,-2.93388 3.279339,1.86278 3.279339,-0.007 3.279338,232.315772 3.279339,6.386688 3.279339,2.395008 3.279341,0.0067 3.27934,13.032835 3.27934,1.064448 3.27934,0.532224 3.27933,0.272765 3.27934,10.371715 3.27934,1.064448 3.27934,0.272765 3.27934,0.525571 3.27934,0.0067 3.27934,7.444483 3.27933,1.071101 3.27934,0.259459 3.27934,0.266112 3.27934,10.118909 3.27934,1.057795 3.27934,0.532224 3.27934,-0.798336 3.27934,10.378364 3.27934,0.80499 3.27933,1.59002 3.27934,0.26611 3.27934,0.53222 3.27934,7.45114 3.27934,1.59667 3.27934,0.80499 3.27934,0.79834 3.27934,8.78169 3.27934,1.32391 3.27933,0.53222 3.27934,0.26612 3.27934,7.98336 3.27934,1.33056 3.27934,-0.25946 3.27934,1.59002 3.27934,5.32224 3.27934,1.86278 3.27933,1.06445 3.27934,3.19334 3.27934,-0.26611 3.27934,10.38502 3.27934,1.59002 3.27934,1.86944 3.27934,1.59002 3.27934,7.18502 3.27934,2.40166 3.27933,0.26611 3.27934,2.92058 3.27934,3.99168 3.27934,1.33056 3.27934,2.92723 3.27934,-0.53222 3.27934,4.26444 3.27934,5.84782 3.27934,0.53887 3.27933,2.1289 3.27934,1.59667 3.27934,5.05613 3.27934,0.52557 3.27934,1.33056 3.27934,0.53888 3.27934,3.4528 3.27934,2.13555 3.27934,2.12224 3.27933,0.79834 3.27934,2.12889 3.27934,2.66778 3.27934,2.38835 3.27934,0.27277 3.27934,0.79168 3.27934,5.32224 3.27934,1.34387 3.27934,2.65446 3.27933,2.38836 3.27934,3.19334 3.27934,2.1289 3.27934,2.39501 3.27934,1.86943 3.27934,1.85613 3.27934,3.46611 3.27933,1.33056 3.27934,0.52557 3.27934,4.26445 3.27934,3.99168 3.27934,0.79833 3.27934,1.86279 3.27934,2.39501 3.27934,4.25779 3.27934,2.38835 3.27933,0.53223 3.27934,1.60998 3.27934,3.4528 v -31.67398 0 l -3.27934,-3.72557 -3.27934,-0.79834 -3.27933,-0.79833 -3.27934,-1.59667 -3.27934,-3.72557 -3.27934,-1.06445 -3.27934,-2.1289 -3.27934,-2.12889 -3.27934,-4.52391 -3.27934,-1.86943 -3.27934,-1.0578 -3.27933,-2.39501 -3.27934,-3.19334 -3.27934,-1.59667 -3.27934,-2.93389 h -3.27934 l -3.27934,-3.18669 -3.27934,-0.53222 -3.27933,-3.46611 -3.27934,-1.85613 -3.27934,-2.66778 -3.27934,-2.92057 -3.27934,-1.06445 -3.27934,-2.1422 -3.27934,-2.38836 -3.27934,-3.4528 h -3.27934 l -3.27933,-1.59667 -3.27934,-0.26612 -3.27934,-3.45945 -3.27934,-3.2 -3.27934,-1.59667 -3.27934,0.79168 -3.27934,-2.11559 -3.27934,-4.25779 -3.27934,-1.59667 -3.27933,-0.80499 -3.27934,-2.93389 -3.27934,-5.30893 -3.27934,-2.39501 -3.27934,-0.53888 -3.27934,-2.38835 -3.27934,0.25946 -3.27934,-5.84781 -3.27934,-1.33056 -3.27933,-0.53223 -3.27934,-3.72556 -3.27934,-5.86112 -3.27934,-2.12224 -3.27934,-0.53223 -3.27934,-2.39501 -3.27934,-7.45113 -3.27934,-1.33056 -3.27934,-2.40166 -3.27933,-1.85613 -3.27934,-1.06445 -3.27934,-6.12058 -3.27934,-0.27276 -3.27934,0.53887 -3.27934,-1.06444 -3.27934,-6.65946 -3.27934,-0.79168 -3.27933,-1.06445 -3.27934,-0.26611 -3.27934,-6.6528 -3.27934,-0.798332 -3.27934,-1.064448 -3.27934,-1.064448 -3.27934,-5.595005 -3.27934,-1.323907 -3.27934,0.525571 -3.27933,-1.590019 -3.27934,-0.798336 -3.27934,-9.320573 -3.27934,0.0067 -3.27934,-0.266112 -3.27934,-0.532224 -3.27934,-8.515584 h -3.27934 -3.27934 l -3.27933,-1.064448 -3.27934,-5.588352 h -3.27934 l -3.27934,-0.532224 -3.27934,-0.532224 -3.27934,-1.064448 -3.27934,-7.717248 -3.27933,-0.266112 -3.27934,-0.798336 -3.27934,-1.596672 -3.27934,-13.3056 -3.279341,0.266112 -3.279339,-2.933885 -3.279339,-8.508931 -3.279338,-263.464185 -3.279339,-1.05114 -3.279339,1.85613 -3.279339,1.85613 z"
             clip-path="url(#p4785ca9589)"
             style="fill:#2d1e3e;fill-opacity:0.2;stroke:#2d1e3e;stroke-linecap:butt;stroke-linejoin:round;stroke-opacity:0.2"
             id="path33" />
        </g>
        <g
           id="matplotlib.axis_1-3"
           style="stroke-linecap:butt;stroke-linejoin:round"
           transform="translate(82.471918,44.206506)">
          <g
             id="xtick_1-6"
             style="stroke-linecap:butt;stroke-linejoin:round">
            <g
               id="line2d_1-0"
               style="stroke-linecap:butt;stroke-linejoin:round">
              <defs
                 id="defs37">
                <path
                   id="path2048"
                   d="M 0,0 V 3.5"
                   style="stroke:#000000;stroke-width:0.8" />
              </defs>
              <g
                 id="g41"
                 style="stroke-linecap:butt;stroke-linejoin:round">
                <use
                   xlink:href="#me42578cf14"
                   x="73.504791"
                   y="307.58401"
                   style="stroke:#000000;stroke-width:0.8;stroke-linecap:butt;stroke-linejoin:round"
                   id="use39" />
              </g>
            </g>
            <g
               id="text_1-6"
               style="stroke-linecap:butt;stroke-linejoin:round">
              <text
                 style="font-style:normal;font-variant:normal;font-weight:normal;font-stretch:normal;font-size:10px;line-height:normal;font-family:'DejaVu Sans', 'Bitstream Vera Sans', 'Computer Modern Sans Serif', 'Lucida Grande', Verdana, Geneva, Lucid, Arial, Helvetica, 'Avant Garde', sans-serif;text-anchor:middle;stroke-linecap:butt;stroke-linejoin:round"
                 x="73.504791"
                 y="322.18243"
                 id="text44">0</text>
            </g>
          </g>
          <g
             id="xtick_2-2"
             style="stroke-linecap:butt;stroke-linejoin:round">
            <g
               id="line2d_2-6"
               style="stroke-linecap:butt;stroke-linejoin:round">
              <g
                 id="g50"
                 style="stroke-linecap:butt;stroke-linejoin:round">
                <use
                   xlink:href="#me42578cf14"
                   x="139.09157"
                   y="307.58401"
                   style="stroke:#000000;stroke-width:0.8;stroke-linecap:butt;stroke-linejoin:round"
                   id="use48" />
              </g>
            </g>
            <g
               id="text_2-1"
               style="stroke-linecap:butt;stroke-linejoin:round">
              <text
                 style="font-style:normal;font-variant:normal;font-weight:normal;font-stretch:normal;font-size:10px;line-height:normal;font-family:'DejaVu Sans', 'Bitstream Vera Sans', 'Computer Modern Sans Serif', 'Lucida Grande', Verdana, Geneva, Lucid, Arial, Helvetica, 'Avant Garde', sans-serif;text-anchor:middle;stroke-linecap:butt;stroke-linejoin:round"
                 x="139.09157"
                 y="322.18243"
                 id="text53">200</text>
            </g>
          </g>
          <g
             id="xtick_3-8"
             style="stroke-linecap:butt;stroke-linejoin:round">
            <g
               id="line2d_3-7"
               style="stroke-linecap:butt;stroke-linejoin:round">
              <g
                 id="g59"
                 style="stroke-linecap:butt;stroke-linejoin:round">
                <use
                   xlink:href="#me42578cf14"
                   x="204.67834"
                   y="307.58401"
                   style="stroke:#000000;stroke-width:0.8;stroke-linecap:butt;stroke-linejoin:round"
                   id="use57" />
              </g>
            </g>
            <g
               id="text_3-9"
               style="stroke-linecap:butt;stroke-linejoin:round">
              <text
                 style="font-style:normal;font-variant:normal;font-weight:normal;font-stretch:normal;font-size:10px;line-height:normal;font-family:'DejaVu Sans', 'Bitstream Vera Sans', 'Computer Modern Sans Serif', 'Lucida Grande', Verdana, Geneva, Lucid, Arial, Helvetica, 'Avant Garde', sans-serif;text-anchor:middle;stroke-linecap:butt;stroke-linejoin:round"
                 x="204.67834"
                 y="322.18243"
                 id="text62">400</text>
            </g>
          </g>
          <g
             id="xtick_4-2"
             style="stroke-linecap:butt;stroke-linejoin:round">
            <g
               id="line2d_4-0"
               style="stroke-linecap:butt;stroke-linejoin:round">
              <g
                 id="g68"
                 style="stroke-linecap:butt;stroke-linejoin:round">
                <use
                   xlink:href="#me42578cf14"
                   x="270.26514"
                   y="307.58401"
                   style="stroke:#000000;stroke-width:0.8;stroke-linecap:butt;stroke-linejoin:round"
                   id="use66" />
              </g>
            </g>
            <g
               id="text_4-2"
               style="stroke-linecap:butt;stroke-linejoin:round">
              <text
                 style="font-style:normal;font-variant:normal;font-weight:normal;font-stretch:normal;font-size:10px;line-height:normal;font-family:'DejaVu Sans', 'Bitstream Vera Sans', 'Computer Modern Sans Serif', 'Lucida Grande', Verdana, Geneva, Lucid, Arial, Helvetica, 'Avant Garde', sans-serif;text-anchor:middle;stroke-linecap:butt;stroke-linejoin:round"
                 x="270.26514"
                 y="322.18243"
                 id="text71">600</text>
            </g>
          </g>
          <g
             id="xtick_5-3"
             style="stroke-linecap:butt;stroke-linejoin:round">
            <g
               id="line2d_5-7"
               style="stroke-linecap:butt;stroke-linejoin:round">
              <g
                 id="g77"
                 style="stroke-linecap:butt;stroke-linejoin:round">
                <use
                   xlink:href="#me42578cf14"
                   x="335.8519"
                   y="307.58401"
                   style="stroke:#000000;stroke-width:0.8;stroke-linecap:butt;stroke-linejoin:round"
                   id="use75" />
              </g>
            </g>
            <g
               id="text_5-5"
               style="stroke-linecap:butt;stroke-linejoin:round">
              <text
                 style="font-style:normal;font-variant:normal;font-weight:normal;font-stretch:normal;font-size:10px;line-height:normal;font-family:'DejaVu Sans', 'Bitstream Vera Sans', 'Computer Modern Sans Serif', 'Lucida Grande', Verdana, Geneva, Lucid, Arial, Helvetica, 'Avant Garde', sans-serif;text-anchor:middle;stroke-linecap:butt;stroke-linejoin:round"
                 x="335.8519"
                 y="322.18243"
                 id="text80">800</text>
            </g>
          </g>
          <g
             id="xtick_6-9"
             style="stroke-linecap:butt;stroke-linejoin:round">
            <g
               id="line2d_6-2"
               style="stroke-linecap:butt;stroke-linejoin:round">
              <g
                 id="g86"
                 style="stroke-linecap:butt;stroke-linejoin:round">
                <use
                   xlink:href="#me42578cf14"
                   x="401.43869"
                   y="307.58401"
                   style="stroke:#000000;stroke-width:0.8;stroke-linecap:butt;stroke-linejoin:round"
                   id="use84" />
              </g>
            </g>
            <g
               id="text_6-2"
               style="stroke-linecap:butt;stroke-linejoin:round">
              <text
                 style="font-style:normal;font-variant:normal;font-weight:normal;font-stretch:normal;font-size:10px;line-height:normal;font-family:'DejaVu Sans', 'Bitstream Vera Sans', 'Computer Modern Sans Serif', 'Lucida Grande', Verdana, Geneva, Lucid, Arial, Helvetica, 'Avant Garde', sans-serif;text-anchor:middle;stroke-linecap:butt;stroke-linejoin:round"
                 x="401.43869"
                 y="322.18243"
                 id="text89">1000</text>
            </g>
          </g>
          <g
             id="text_7-8"
             style="stroke-linecap:butt;stroke-linejoin:round">
            <text
               style="font-style:normal;font-variant:normal;font-weight:normal;font-stretch:normal;font-size:10px;line-height:normal;font-family:'DejaVu Sans', 'Bitstream Vera Sans', 'Computer Modern Sans Serif', 'Lucida Grande', Verdana, Geneva, Lucid, Arial, Helvetica, 'Avant Garde', sans-serif;text-anchor:middle;stroke-linecap:butt;stroke-linejoin:round"
               x="236.16"
               y="335.86057"
               id="text93">Minimum breadth of coverage cutoff (bp)</text>
          </g>
        </g>
        <g
           id="matplotlib.axis_2-9"
           style="stroke-linecap:butt;stroke-linejoin:round"
           transform="translate(82.471918,44.206506)">
          <g
             id="ytick_1-7"
             style="stroke-linecap:butt;stroke-linejoin:round">
            <g
               id="line2d_7-3"
               style="stroke-linecap:butt;stroke-linejoin:round">
              <defs
                 id="defs98">
                <path
                   id="path2090"
                   d="M 0,0 H -3.5"
                   style="stroke:#000000;stroke-width:0.8" />
              </defs>
              <g
                 id="g102"
                 style="stroke-linecap:butt;stroke-linejoin:round">
                <use
                   xlink:href="#maf7d457b85"
                   x="57.599998"
                   y="307.58401"
                   style="stroke:#000000;stroke-width:0.8;stroke-linecap:butt;stroke-linejoin:round"
                   id="use100" />
              </g>
            </g>
            <g
               id="text_8-6"
               style="stroke-linecap:butt;stroke-linejoin:round">
              <text
                 style="font-style:normal;font-variant:normal;font-weight:normal;font-stretch:normal;font-size:10px;line-height:normal;font-family:'DejaVu Sans', 'Bitstream Vera Sans', 'Computer Modern Sans Serif', 'Lucida Grande', Verdana, Geneva, Lucid, Arial, Helvetica, 'Avant Garde', sans-serif;text-anchor:end;stroke-linecap:butt;stroke-linejoin:round"
                 x="50.599998"
                 y="311.38321"
                 id="text105">50</text>
            </g>
          </g>
          <g
             id="ytick_2-1"
             style="stroke-linecap:butt;stroke-linejoin:round">
            <g
               id="line2d_8-2"
               style="stroke-linecap:butt;stroke-linejoin:round">
              <g
                 id="g111"
                 style="stroke-linecap:butt;stroke-linejoin:round">
                <use
                   xlink:href="#maf7d457b85"
                   x="57.599998"
                   y="254.3616"
                   style="stroke:#000000;stroke-width:0.8;stroke-linecap:butt;stroke-linejoin:round"
                   id="use109" />
              </g>
            </g>
            <g
               id="text_9-9"
               style="stroke-linecap:butt;stroke-linejoin:round">
              <text
                 style="font-style:normal;font-variant:normal;font-weight:normal;font-stretch:normal;font-size:10px;line-height:normal;font-family:'DejaVu Sans', 'Bitstream Vera Sans', 'Computer Modern Sans Serif', 'Lucida Grande', Verdana, Geneva, Lucid, Arial, Helvetica, 'Avant Garde', sans-serif;text-anchor:end;stroke-linecap:butt;stroke-linejoin:round"
                 x="50.599998"
                 y="258.16083"
                 id="text114">60</text>
            </g>
          </g>
          <g
             id="ytick_3-3"
             style="stroke-linecap:butt;stroke-linejoin:round">
            <g
               id="line2d_9-1"
               style="stroke-linecap:butt;stroke-linejoin:round">
              <g
                 id="g120"
                 style="stroke-linecap:butt;stroke-linejoin:round">
                <use
                   xlink:href="#maf7d457b85"
                   x="57.599998"
                   y="201.13921"
                   style="stroke:#000000;stroke-width:0.8;stroke-linecap:butt;stroke-linejoin:round"
                   id="use118" />
              </g>
            </g>
            <g
               id="text_10-9"
               style="stroke-linecap:butt;stroke-linejoin:round">
              <text
                 style="font-style:normal;font-variant:normal;font-weight:normal;font-stretch:normal;font-size:10px;line-height:normal;font-family:'DejaVu Sans', 'Bitstream Vera Sans', 'Computer Modern Sans Serif', 'Lucida Grande', Verdana, Geneva, Lucid, Arial, Helvetica, 'Avant Garde', sans-serif;text-anchor:end;stroke-linecap:butt;stroke-linejoin:round"
                 x="50.599998"
                 y="204.93842"
                 id="text123">70</text>
            </g>
          </g>
          <g
             id="ytick_4-4"
             style="stroke-linecap:butt;stroke-linejoin:round">
            <g
               id="line2d_10-7"
               style="stroke-linecap:butt;stroke-linejoin:round">
              <g
                 id="g129"
                 style="stroke-linecap:butt;stroke-linejoin:round">
                <use
                   xlink:href="#maf7d457b85"
                   x="57.599998"
                   y="147.91679"
                   style="stroke:#000000;stroke-width:0.8;stroke-linecap:butt;stroke-linejoin:round"
                   id="use127" />
              </g>
            </g>
            <g
               id="text_11-8"
               style="stroke-linecap:butt;stroke-linejoin:round">
              <text
                 style="font-style:normal;font-variant:normal;font-weight:normal;font-stretch:normal;font-size:10px;line-height:normal;font-family:'DejaVu Sans', 'Bitstream Vera Sans', 'Computer Modern Sans Serif', 'Lucida Grande', Verdana, Geneva, Lucid, Arial, Helvetica, 'Avant Garde', sans-serif;text-anchor:end;stroke-linecap:butt;stroke-linejoin:round"
                 x="50.599998"
                 y="151.71602"
                 id="text132">80</text>
            </g>
          </g>
          <g
             id="ytick_5-4"
             style="stroke-linecap:butt;stroke-linejoin:round">
            <g
               id="line2d_11-5"
               style="stroke-linecap:butt;stroke-linejoin:round">
              <g
                 id="g138"
                 style="stroke-linecap:butt;stroke-linejoin:round">
                <use
                   xlink:href="#maf7d457b85"
                   x="57.599998"
                   y="94.694397"
                   style="stroke:#000000;stroke-width:0.8;stroke-linecap:butt;stroke-linejoin:round"
                   id="use136" />
              </g>
            </g>
            <g
               id="text_12-0"
               style="stroke-linecap:butt;stroke-linejoin:round">
              <text
                 style="font-style:normal;font-variant:normal;font-weight:normal;font-stretch:normal;font-size:10px;line-height:normal;font-family:'DejaVu Sans', 'Bitstream Vera Sans', 'Computer Modern Sans Serif', 'Lucida Grande', Verdana, Geneva, Lucid, Arial, Helvetica, 'Avant Garde', sans-serif;text-anchor:end;stroke-linecap:butt;stroke-linejoin:round"
                 x="50.599998"
                 y="98.493622"
                 id="text141">90</text>
            </g>
          </g>
          <g
             id="ytick_6-3"
             style="stroke-linecap:butt;stroke-linejoin:round">
            <g
               id="line2d_12-6"
               style="stroke-linecap:butt;stroke-linejoin:round">
              <g
                 id="g147"
                 style="stroke-linecap:butt;stroke-linejoin:round">
                <use
                   xlink:href="#maf7d457b85"
                   x="57.599998"
                   y="41.472"
                   style="stroke:#000000;stroke-width:0.8;stroke-linecap:butt;stroke-linejoin:round"
                   id="use145" />
              </g>
            </g>
            <g
               id="text_13-1"
               style="stroke-linecap:butt;stroke-linejoin:round">
              <text
                 style="font-style:normal;font-variant:normal;font-weight:normal;font-stretch:normal;font-size:10px;line-height:normal;font-family:'DejaVu Sans', 'Bitstream Vera Sans', 'Computer Modern Sans Serif', 'Lucida Grande', Verdana, Geneva, Lucid, Arial, Helvetica, 'Avant Garde', sans-serif;text-anchor:end;stroke-linecap:butt;stroke-linejoin:round"
                 x="50.599998"
                 y="45.271217"
                 id="text150">100</text>
            </g>
          </g>
          <g
             id="text_14-0"
             style="stroke-linecap:butt;stroke-linejoin:round"
             transform="translate(-11.008407)">
            <text
               style="font-style:normal;font-variant:normal;font-weight:normal;font-stretch:normal;font-size:10px;line-height:normal;font-family:'DejaVu Sans', 'Bitstream Vera Sans', 'Computer Modern Sans Serif', 'Lucida Grande', Verdana, Geneva, Lucid, Arial, Helvetica, 'Avant Garde', sans-serif;text-anchor:middle;stroke-linecap:butt;stroke-linejoin:round"
               x="28.617188"
               y="174.528"
               transform="rotate(-90,28.617188,174.528)"
               id="text154">Sensitivity (%)</text>
          </g>
        </g>
        <g
           id="line2d_13-6"
           style="stroke-linecap:butt;stroke-linejoin:round"
           transform="translate(82.471918,44.206506)">
          <path
             d="m 73.832727,17.255808 h 3.279339 3.279339 3.279339 3.279339 l 3.279338,24.748416 h 3.279339 3.279339 3.279341 l 3.27934,1.596672 3.27934,0.532224 h 3.27934 l 3.27933,0.266112 3.27934,0.798336 h 3.27934 3.27934 3.27934 l 3.27934,0.266112 3.27934,0.798336 h 3.27933 3.27934 3.27934 l 3.27934,2.128896 h 3.27934 3.27934 3.27934 l 3.27934,0.532224 h 3.27934 3.27933 3.27934 3.27934 l 3.27934,1.33056 h 3.27934 l 3.27934,0.266112 h 3.27934 l 3.27934,1.064448 3.27934,0.266112 h 3.27933 3.27934 l 3.27934,1.33056 h 3.27934 3.27934 3.27934 l 3.27934,2.927232 3.27934,0.532224 3.27933,0.266112 3.27934,0.532224 3.27934,0.266112 3.27934,3.193344 3.27934,1.33056 3.27934,0.266112 h 3.27934 l 3.27934,3.193344 h 3.27934 l 3.27933,0.266112 3.27934,0.266112 3.27934,2.395008 3.27934,0.266112 3.27934,0.266112 3.27934,0.266112 3.27934,0.266112 3.27934,3.193344 3.27934,0.532224 3.27933,0.266112 3.27934,0.532224 3.27934,1.862784 3.27934,1.064448 3.27934,1.064448 3.27934,0.266112 3.27934,2.66112 3.27934,0.798336 3.27934,0.532224 3.27933,0.798336 3.27934,0.532224 3.27934,1.596672 3.27934,0.266112 3.27934,0.532224 3.27934,0.798336 3.27934,2.128896 3.27934,0.798336 3.27934,0.532224 3.27933,0.798336 3.27934,2.927232 3.27934,1.33056 3.27934,1.596672 3.27934,0.798336 3.27934,1.596672 3.27934,0.266112 3.27933,0.532222 3.27934,0.79834 3.27934,1.06445 3.27934,1.59667 3.27934,1.06445 3.27934,0.79833 3.27934,0.79834 3.27934,0.26611 3.27934,1.06445 3.27933,1.59667 3.27934,1.33056 3.27934,0.79834"
             clip-path="url(#p4785ca9589)"
             style="fill:none;stroke:#edd1cb;stroke-width:1.5;stroke-linecap:square;stroke-linejoin:round"
             id="path158" />
        </g>
        <g
           id="line2d_14-3"
           style="stroke-linecap:butt;stroke-linejoin:round"
           transform="translate(82.471918,44.206506)">
          <path
             d="m 89.335888,-1 0.893533,35.8192 3.279339,3.99168 3.279339,1.596672 3.279341,0.532224 3.27934,4.257792 3.27934,0.266112 3.27934,0.266112 h 3.27933 l 3.27934,1.862784 3.27934,0.266112 3.27934,0.266112 h 3.27934 3.27934 l 3.27934,1.596672 h 3.27933 l 3.27934,0.532224 h 3.27934 l 3.27934,3.193344 3.27934,0.532224 h 3.27934 l 3.27934,0.266112 3.27934,5.588352 h 3.27934 3.27933 3.27934 l 3.27934,0.266112 3.27934,2.927232 3.27934,0.266112 3.27934,0.266112 3.27934,0.532224 3.27934,2.66112 h 3.27934 l 3.27933,0.532224 3.27934,0.266112 3.27934,2.128896 h 3.27934 l 3.27934,0.798336 3.27934,0.266112 3.27934,2.395008 3.27934,0.266112 3.27933,0.532224 h 3.27934 l 3.27934,0.532224 3.27934,3.193344 3.27934,1.064448 3.27934,0.266112 3.27934,0.532224 3.27934,3.99168 3.27934,0.798336 3.27933,0.532224 3.27934,0.266112 3.27934,2.927232 3.27934,0.532224 3.27934,0.532224 3.27934,0.798336 3.27934,0.266112 3.27934,2.128896 3.27934,0.266112 3.27933,0.532224 3.27934,0.266112 3.27934,3.459456 3.27934,2.128896 3.27934,0.532224 3.27934,0.266112 3.27934,2.927232 3.27934,0.53222 3.27934,0.79834 3.27933,0.79834 3.27934,0.79833 3.27934,3.45946 3.27934,0.79833 3.27934,1.59668 3.27934,0.26611 3.27934,2.66112 3.27934,0.79833 3.27934,0.26612 3.27933,1.06444 3.27934,1.86279 3.27934,0.53222 3.27934,0.53223 3.27934,1.33056 3.27934,2.12889 3.27934,1.06445 3.27933,1.33056 3.27934,0.26611 3.27934,0.26611 3.27934,1.86279 3.27934,2.12889 3.27934,0.53223 3.27934,0.79833 3.27934,2.1289 3.27934,0.53222 3.27933,1.06445 3.27934,0.79834 3.27934,2.66112"
             clip-path="url(#p4785ca9589)"
             style="fill:none;stroke:#daa4ac;stroke-width:1.5;stroke-linecap:square;stroke-linejoin:round"
             id="path161" />
        </g>
        <g
           id="line2d_15-2"
           style="stroke-linecap:butt;stroke-linejoin:round"
           transform="translate(82.471918,44.206506)">
          <path
             d="m 89.897737,-1 0.331684,23.578048 3.279339,8.515584 3.279339,3.725568 3.279341,0.266112 3.27934,10.378368 3.27934,2.395008 3.27934,0.532224 3.27933,0.532224 3.27934,4.257792 h 3.27934 3.27934 l 3.27934,0.266112 h 3.27934 l 3.27934,4.257792 3.27933,0.266112 h 3.27934 3.27934 l 3.27934,6.386688 h 3.27934 3.27934 3.27934 l 3.27934,6.120576 3.27934,0.798336 3.27933,0.266112 h 3.27934 3.27934 l 3.27934,4.523904 3.27934,0.266112 3.27934,0.532224 3.27934,0.266112 3.27934,5.588352 3.27934,1.064448 h 3.27933 l 3.27934,0.266112 3.27934,5.588352 3.27934,0.266112 3.27934,0.266112 h 3.27934 l 3.27934,4.257792 3.27934,0.532224 3.27933,0.266112 h 3.27934 3.27934 l 3.27934,4.257792 3.27934,1.064444 3.27934,0.53223 3.27934,0.26611 3.27934,3.99168 3.27934,0.53222 3.27933,0.79834 3.27934,0.79834 3.27934,5.05612 3.27934,0.26612 3.27934,2.66112 3.27934,1.33056 3.27934,1.06444 3.27934,5.32224 3.27934,1.06445 3.27933,0.79834 3.27934,1.33056 3.27934,5.05613 3.27934,1.06444 3.27934,0.53223 3.27934,1.59667 3.27934,3.72557 3.27934,1.59667 3.27934,1.86278 3.27933,1.33056 3.27934,1.06445 3.27934,3.45946 3.27934,1.59667 3.27934,1.33056 3.27934,0.79834 3.27934,3.72556 3.27934,1.06445 3.27934,1.86279 3.27933,0.26611 3.27934,2.12889 3.27934,0.79834 3.27934,0.53222 3.27934,1.06445 3.27934,2.39501 3.27934,1.06445 3.27933,0.79833 h 3.27934 l 3.27934,1.59668 3.27934,1.59667 3.27934,0.79833 3.27934,2.66112 3.27934,1.33056 3.27934,1.86279 3.27934,2.12889 3.27933,1.06445 3.27934,1.06445 3.27934,1.86278"
             clip-path="url(#p4785ca9589)"
             style="fill:none;stroke:#945785;stroke-width:1.5;stroke-linecap:square;stroke-linejoin:round"
             id="path164" />
        </g>
        <g
           id="line2d_16-0"
           style="stroke-linecap:butt;stroke-linejoin:round"
           transform="translate(82.471918,44.206506)">
          <path
             d="m 89.794048,-1 0.435373,32.891968 3.279339,7.451136 3.279339,2.66112 h 3.279341 l 3.27934,12.773376 3.27934,1.33056 3.27934,0.798336 3.27933,0.266112 3.27934,9.31392 3.27934,0.798336 3.27934,0.798336 h 3.27934 3.27934 l 3.27934,6.6528 3.27933,0.798336 3.27934,0.266112 h 3.27934 l 3.27934,9.846144 3.27934,0.532224 3.27934,0.266112 h 3.27934 l 3.27934,9.846144 3.27934,0.532224 3.27933,1.596672 3.27934,0.266112 3.27934,0.266112 3.27934,7.185028 3.27934,1.33056 3.27934,0.53222 3.27934,0.26611 3.27934,7.98336 3.27934,1.33056 3.27933,0.53223 3.27934,0.26611 3.27934,7.18502 3.27934,1.06445 3.27934,0.26611 3.27934,0.79834 3.27934,5.58835 3.27934,1.59667 3.27933,1.33056 3.27934,2.1289 3.27934,1.33056 3.27934,8.78169 3.27934,1.86279 3.27934,1.33056 3.27934,1.59667 3.27934,7.71725 3.27934,1.59667 3.27933,1.06445 3.27934,1.59667 3.27934,5.32224 3.27934,1.06445 3.27934,2.12889 3.27934,0.53223 3.27934,1.86278 3.27934,6.38669 3.27934,2.1289 3.27933,1.59667 3.27934,1.33056 3.27934,4.25779 3.27934,1.06445 3.27934,1.06445 3.27934,1.06444 3.27934,3.19335 3.27934,2.39501 3.27934,1.06444 3.27933,1.33056 3.27934,0.79834 3.27934,4.5239 3.27934,1.06445 3.27934,2.1289 3.27934,1.59667 3.27934,2.39501 3.27934,2.39501 3.27934,2.92723 3.27933,1.86278 3.27934,2.92723 3.27934,1.86279 3.27934,2.39501 3.27934,1.86278 3.27934,2.1289 3.27934,2.92723 3.27933,1.59667 3.27934,1.06445 3.27934,2.66112 3.27934,4.25779 3.27934,1.06445 3.27934,2.39501 3.27934,1.86278 3.27934,3.99168 3.27934,2.1289 3.27933,1.33056 3.27934,1.33056 3.27934,3.19334"
             clip-path="url(#p4785ca9589)"
             style="fill:none;stroke:#2d1e3e;stroke-width:1.5;stroke-linecap:square;stroke-linejoin:round"
             id="path167" />
        </g>
        <g
           id="line2d_21-6"
           style="fill:#d40000;stroke:#ef0000;stroke-linecap:butt;stroke-linejoin:round;stroke-opacity:1"
           transform="translate(82.471918,44.206506)">
          <path
             d="M 214.51636,307.584 V 41.472"
             clip-path="url(#p4785ca9589)"
             style="fill:#d40000;stroke:#ef0000;stroke-width:1.5;stroke-linecap:square;stroke-linejoin:round;stroke-opacity:1"
             id="path174" />
        </g>
        <g
           id="patch_3-1"
           style="stroke-linecap:butt;stroke-linejoin:round"
           transform="translate(82.471918,44.206506)">
          <path
             d="M 57.6,307.584 V 41.472"
             style="fill:none;stroke:#000000;stroke-width:0.8;stroke-linecap:square;stroke-linejoin:miter"
             id="path177" />
        </g>
        <g
           id="patch_4-5"
           style="stroke-linecap:butt;stroke-linejoin:round"
           transform="translate(82.471918,44.206506)">
          <path
             d="M 414.72,307.584 V 41.472"
             style="fill:none;stroke:#000000;stroke-width:0.8;stroke-linecap:square;stroke-linejoin:miter"
             id="path180" />
        </g>
        <g
           id="patch_5-5"
           style="stroke-linecap:butt;stroke-linejoin:round"
           transform="translate(82.471918,44.206506)">
          <path
             d="M 57.6,307.584 H 414.72"
             style="fill:none;stroke:#000000;stroke-width:0.8;stroke-linecap:square;stroke-linejoin:miter"
             id="path183" />
        </g>
        <g
           id="patch_6-4"
           style="stroke-linecap:butt;stroke-linejoin:round"
           transform="translate(82.471918,44.206506)">
          <path
             d="M 57.6,41.472 H 414.72"
             style="fill:none;stroke:#000000;stroke-width:0.8;stroke-linecap:square;stroke-linejoin:miter"
             id="path186" />
        </g>
      </g>
      <text
         xml:space="preserve"
         style="font-size:11.4458px;font-family:Helvetica;-inkscape-font-specification:Helvetica;text-align:center;text-anchor:middle;fill:#0000ff;fill-opacity:0.791007;stroke:#ef0000;stroke-width:0.286145;stroke-opacity:1"
         x="244.55356"
         y="-16.338654"
         id="text3222"><tspan
           sodipodi:role="line"
           id="tspan3220"
           style="fill:#f00000;fill-opacity:0.791007;stroke:none;stroke-width:0.286145"
           x="244.55356"
           y="-16.338654">Cutoff used</tspan><tspan
           sodipodi:role="line"
           style="fill:#f00000;fill-opacity:0.791007;stroke:none;stroke-width:0.286145"
           x="244.55356"
           y="-2.0314038"
           id="tspan3224">in this study</tspan></text>
    </g>
  </g>
  <defs
     id="defs614">
    <clipPath
       id="pf5db5eb8dc">
      <rect
         x="57.599998"
         y="41.472"
         width="357.12"
         height="266.112"
         id="rect611" />
    </clipPath>
  </defs>
</svg>
