<?xml version="1.0" encoding="utf-8" standalone="no"?>
<!DOCTYPE svg PUBLIC "-//W3C//DTD SVG 1.1//EN"
  "http://www.w3.org/Graphics/SVG/1.1/DTD/svg11.dtd">
<svg xmlns:xlink="http://www.w3.org/1999/xlink" width="216pt" height="216pt" viewBox="0 0 216 216" xmlns="http://www.w3.org/2000/svg" version="1.1">
 <metadata>
  <rdf:RDF xmlns:dc="http://purl.org/dc/elements/1.1/" xmlns:cc="http://creativecommons.org/ns#" xmlns:rdf="http://www.w3.org/1999/02/22-rdf-syntax-ns#">
   <cc:Work>
    <dc:type rdf:resource="http://purl.org/dc/dcmitype/StillImage"/>
    <dc:date>2023-09-01T15:41:19.331079</dc:date>
    <dc:format>image/svg+xml</dc:format>
    <dc:creator>
     <cc:Agent>
      <dc:title>Matplotlib v3.6.0, https://matplotlib.org/</dc:title>
     </cc:Agent>
    </dc:creator>
   </cc:Work>
  </rdf:RDF>
 </metadata>
 <defs>
  <style type="text/css">*{stroke-linejoin: round; stroke-linecap: butt}</style>
 </defs>
 <g id="figure_1">
  <g id="patch_1">
   <path d="M 0 216 
L 216 216 
L 216 0 
L 0 0 
z
" style="fill: #ffffff"/>
  </g>
  <g id="axes_1">
   <g id="patch_2">
    <path d="M 27 192.24 
L 194.4 192.24 
L 194.4 25.92 
L 27 25.92 
z
" style="fill: #ffffff"/>
   </g>
   <g id="PathCollection_1">
    <defs>
     <path id="C0_0_ceec3b7cbb" d="M 0 4.1833 
C 1.109424 4.1833 2.173559 3.742521 2.95804 2.95804 
C 3.742521 2.173559 4.1833 1.109424 4.1833 -0 
C 4.1833 -1.109424 3.742521 -2.173559 2.95804 -2.95804 
C 2.173559 -3.742521 1.109424 -4.1833 0 -4.1833 
C -1.109424 -4.1833 -2.173559 -3.742521 -2.95804 -2.95804 
C -3.742521 -2.173559 -4.1833 -1.109424 -4.1833 0 
C -4.1833 1.109424 -3.742521 2.173559 -2.95804 2.95804 
C -2.173559 3.742521 -1.109424 4.1833 0 4.1833 
z
"/>
    </defs>
    <g clip-path="url(#p1c9024dc6c)">
     <use xlink:href="#C0_0_ceec3b7cbb" x="104.902754" y="129.902979" style="fill: #ff7f0e; fill-opacity: 0.5; stroke: #000000; stroke-opacity: 0.5; stroke-width: 0.669328"/>
    </g>
    <g clip-path="url(#p1c9024dc6c)">
     <use xlink:href="#C0_0_ceec3b7cbb" x="186.790909" y="48.698375" style="fill: #2ca02c; fill-opacity: 0.5; stroke: #000000; stroke-opacity: 0.5; stroke-width: 0.669328"/>
    </g>
    <g clip-path="url(#p1c9024dc6c)">
     <use xlink:href="#C0_0_ceec3b7cbb" x="65.184617" y="169.461625" style="fill: #d62728; fill-opacity: 0.5; stroke: #000000; stroke-opacity: 0.5; stroke-width: 0.669328"/>
    </g>
    <g clip-path="url(#p1c9024dc6c)">
     <use xlink:href="#C0_0_ceec3b7cbb" x="150.679395" y="84.729389" style="fill: #9467bd; fill-opacity: 0.5; stroke: #000000; stroke-opacity: 0.5; stroke-width: 0.669328"/>
    </g>
    <g clip-path="url(#p1c9024dc6c)">
     <use xlink:href="#C0_0_ceec3b7cbb" x="119.008017" y="113.384772" style="fill: #8c564b; fill-opacity: 0.5; stroke: #000000; stroke-opacity: 0.5; stroke-width: 0.669328"/>
    </g>
   </g>
   <g id="PathCollection_2"/>
   <g id="PathCollection_3"/>
   <g id="PathCollection_4"/>
   <g id="PathCollection_5"/>
   <g id="PathCollection_6"/>
   <g id="PathCollection_7"/>
   <g id="PathCollection_8"/>
   <g id="matplotlib.axis_1">
    <g id="xtick_1">
     <g id="line2d_1">
      <defs>
       <path id="m1b973ca916" d="M 0 0 
L 0 3.5 
" style="stroke: #000000; stroke-width: 0.8"/>
      </defs>
      <g>
       <use xlink:href="#m1b973ca916" x="60.110418" y="192.24" style="stroke: #000000; stroke-width: 0.8"/>
      </g>
     </g>
     <g id="text_1">
      <!-- $\mathdefault{10^{1}}$ -->
      <g transform="translate(51.310418 206.838437)">
       <text>
        <tspan style="font: 10px 'DejaVu Sans'" x="0 6.362305" y="-0.06406250000000036">10</tspan>
        <tspan style="font: 7px 'DejaVu Sans'" x="12.820312" y="-3.8921875000000004">1</tspan>
       </text>
      </g>
     </g>
    </g>
    <g id="xtick_2">
     <g id="line2d_2">
      <g>
       <use xlink:href="#m1b973ca916" x="124.193763" y="192.24" style="stroke: #000000; stroke-width: 0.8"/>
      </g>
     </g>
     <g id="text_2">
      <!-- $\mathdefault{10^{2}}$ -->
      <g transform="translate(115.393763 206.838437)">
       <text>
        <tspan style="font: 10px 'DejaVu Sans'" x="0 6.362305" y="-0.9765625">10</tspan>
        <tspan style="font: 7px 'DejaVu Sans'" x="12.820312" y="-4.8046875">2</tspan>
       </text>
      </g>
     </g>
    </g>
    <g id="xtick_3">
     <g id="line2d_3">
      <g>
       <use xlink:href="#m1b973ca916" x="188.277108" y="192.24" style="stroke: #000000; stroke-width: 0.8"/>
      </g>
     </g>
     <g id="text_3">
      <!-- $\mathdefault{10^{3}}$ -->
      <g transform="translate(179.477108 206.838437)">
       <text>
        <tspan style="font: 10px 'DejaVu Sans'" x="0 6.362305" y="-0.9765625">10</tspan>
        <tspan style="font: 7px 'DejaVu Sans'" x="12.820312" y="-4.8046875">3</tspan>
       </text>
      </g>
     </g>
    </g>
    <g id="xtick_4">
     <g id="line2d_4">
      <defs>
       <path id="ma21453d18d" d="M 0 0 
L 0 2 
" style="stroke: #000000; stroke-width: 0.6"/>
      </defs>
      <g>
       <use xlink:href="#ma21453d18d" x="34.609091" y="192.24" style="stroke: #000000; stroke-width: 0.6"/>
      </g>
     </g>
    </g>
    <g id="xtick_5">
     <g id="line2d_5">
      <g>
       <use xlink:href="#ma21453d18d" x="40.819409" y="192.24" style="stroke: #000000; stroke-width: 0.6"/>
      </g>
     </g>
    </g>
    <g id="xtick_6">
     <g id="line2d_6">
      <g>
       <use xlink:href="#ma21453d18d" x="45.893608" y="192.24" style="stroke: #000000; stroke-width: 0.6"/>
      </g>
     </g>
    </g>
    <g id="xtick_7">
     <g id="line2d_7">
      <g>
       <use xlink:href="#ma21453d18d" x="50.183782" y="192.24" style="stroke: #000000; stroke-width: 0.6"/>
      </g>
     </g>
    </g>
    <g id="xtick_8">
     <g id="line2d_8">
      <g>
       <use xlink:href="#ma21453d18d" x="53.9001" y="192.24" style="stroke: #000000; stroke-width: 0.6"/>
      </g>
     </g>
    </g>
    <g id="xtick_9">
     <g id="line2d_9">
      <g>
       <use xlink:href="#ma21453d18d" x="57.178125" y="192.24" style="stroke: #000000; stroke-width: 0.6"/>
      </g>
     </g>
    </g>
    <g id="xtick_10">
     <g id="line2d_10">
      <g>
       <use xlink:href="#ma21453d18d" x="79.401427" y="192.24" style="stroke: #000000; stroke-width: 0.6"/>
      </g>
     </g>
    </g>
    <g id="xtick_11">
     <g id="line2d_11">
      <g>
       <use xlink:href="#ma21453d18d" x="90.685944" y="192.24" style="stroke: #000000; stroke-width: 0.6"/>
      </g>
     </g>
    </g>
    <g id="xtick_12">
     <g id="line2d_12">
      <g>
       <use xlink:href="#ma21453d18d" x="98.692436" y="192.24" style="stroke: #000000; stroke-width: 0.6"/>
      </g>
     </g>
    </g>
    <g id="xtick_13">
     <g id="line2d_13">
      <g>
       <use xlink:href="#ma21453d18d" x="104.902754" y="192.24" style="stroke: #000000; stroke-width: 0.6"/>
      </g>
     </g>
    </g>
    <g id="xtick_14">
     <g id="line2d_14">
      <g>
       <use xlink:href="#ma21453d18d" x="109.976953" y="192.24" style="stroke: #000000; stroke-width: 0.6"/>
      </g>
     </g>
    </g>
    <g id="xtick_15">
     <g id="line2d_15">
      <g>
       <use xlink:href="#ma21453d18d" x="114.267127" y="192.24" style="stroke: #000000; stroke-width: 0.6"/>
      </g>
     </g>
    </g>
    <g id="xtick_16">
     <g id="line2d_16">
      <g>
       <use xlink:href="#ma21453d18d" x="117.983445" y="192.24" style="stroke: #000000; stroke-width: 0.6"/>
      </g>
     </g>
    </g>
    <g id="xtick_17">
     <g id="line2d_17">
      <g>
       <use xlink:href="#ma21453d18d" x="121.26147" y="192.24" style="stroke: #000000; stroke-width: 0.6"/>
      </g>
     </g>
    </g>
    <g id="xtick_18">
     <g id="line2d_18">
      <g>
       <use xlink:href="#ma21453d18d" x="143.484772" y="192.24" style="stroke: #000000; stroke-width: 0.6"/>
      </g>
     </g>
    </g>
    <g id="xtick_19">
     <g id="line2d_19">
      <g>
       <use xlink:href="#ma21453d18d" x="154.769289" y="192.24" style="stroke: #000000; stroke-width: 0.6"/>
      </g>
     </g>
    </g>
    <g id="xtick_20">
     <g id="line2d_20">
      <g>
       <use xlink:href="#ma21453d18d" x="162.775781" y="192.24" style="stroke: #000000; stroke-width: 0.6"/>
      </g>
     </g>
    </g>
    <g id="xtick_21">
     <g id="line2d_21">
      <g>
       <use xlink:href="#ma21453d18d" x="168.986099" y="192.24" style="stroke: #000000; stroke-width: 0.6"/>
      </g>
     </g>
    </g>
    <g id="xtick_22">
     <g id="line2d_22">
      <g>
       <use xlink:href="#ma21453d18d" x="174.060298" y="192.24" style="stroke: #000000; stroke-width: 0.6"/>
      </g>
     </g>
    </g>
    <g id="xtick_23">
     <g id="line2d_23">
      <g>
       <use xlink:href="#ma21453d18d" x="178.350473" y="192.24" style="stroke: #000000; stroke-width: 0.6"/>
      </g>
     </g>
    </g>
    <g id="xtick_24">
     <g id="line2d_24">
      <g>
       <use xlink:href="#ma21453d18d" x="182.066791" y="192.24" style="stroke: #000000; stroke-width: 0.6"/>
      </g>
     </g>
    </g>
    <g id="xtick_25">
     <g id="line2d_25">
      <g>
       <use xlink:href="#ma21453d18d" x="185.344815" y="192.24" style="stroke: #000000; stroke-width: 0.6"/>
      </g>
     </g>
    </g>
    <g id="text_4">
     <text style="font: 10px 'sans-serif'; text-anchor: middle" x="110.7" y="220.516562" transform="rotate(-0 110.7 220.516562)">MT reads without 16S/12S</text>
    </g>
   </g>
   <g id="matplotlib.axis_2">
    <g id="ytick_1">
     <g id="line2d_26">
      <defs>
       <path id="m9073a1d4d2" d="M 0 0 
L -3.5 0 
" style="stroke: #000000; stroke-width: 0.8"/>
      </defs>
      <g>
       <use xlink:href="#m9073a1d4d2" x="27" y="178.825998" style="stroke: #000000; stroke-width: 0.8"/>
      </g>
     </g>
     <g id="text_5">
      <!-- $\mathdefault{10^{1}}$ -->
      <g transform="translate(2.4 182.625217)">
       <text>
        <tspan style="font: 10px 'DejaVu Sans'" x="0 6.362305" y="-0.06406250000000036">10</tspan>
        <tspan style="font: 7px 'DejaVu Sans'" x="12.820312" y="-3.8921875000000004">1</tspan>
       </text>
      </g>
     </g>
    </g>
    <g id="ytick_2">
     <g id="line2d_27">
      <g>
       <use xlink:href="#m9073a1d4d2" x="27" y="114.742653" style="stroke: #000000; stroke-width: 0.8"/>
      </g>
     </g>
     <g id="text_6">
      <!-- $\mathdefault{10^{2}}$ -->
      <g transform="translate(2.4 118.541872)">
       <text>
        <tspan style="font: 10px 'DejaVu Sans'" x="0 6.362305" y="-0.9765625">10</tspan>
        <tspan style="font: 7px 'DejaVu Sans'" x="12.820312" y="-4.8046875">2</tspan>
       </text>
      </g>
     </g>
    </g>
    <g id="ytick_3">
     <g id="line2d_28">
      <g>
       <use xlink:href="#m9073a1d4d2" x="27" y="50.659308" style="stroke: #000000; stroke-width: 0.8"/>
      </g>
     </g>
     <g id="text_7">
      <!-- $\mathdefault{10^{3}}$ -->
      <g transform="translate(2.4 54.458526)">
       <text>
        <tspan style="font: 10px 'DejaVu Sans'" x="0 6.362305" y="-0.9765625">10</tspan>
        <tspan style="font: 7px 'DejaVu Sans'" x="12.820312" y="-4.8046875">3</tspan>
       </text>
      </g>
     </g>
    </g>
    <g id="ytick_4">
     <g id="line2d_29">
      <defs>
       <path id="md892169ef4" d="M 0 0 
L -2 0 
" style="stroke: #000000; stroke-width: 0.6"/>
      </defs>
      <g>
       <use xlink:href="#md892169ef4" x="27" y="188.752634" style="stroke: #000000; stroke-width: 0.6"/>
      </g>
     </g>
    </g>
    <g id="ytick_5">
     <g id="line2d_30">
      <g>
       <use xlink:href="#md892169ef4" x="27" y="185.036316" style="stroke: #000000; stroke-width: 0.6"/>
      </g>
     </g>
    </g>
    <g id="ytick_6">
     <g id="line2d_31">
      <g>
       <use xlink:href="#md892169ef4" x="27" y="181.758291" style="stroke: #000000; stroke-width: 0.6"/>
      </g>
     </g>
    </g>
    <g id="ytick_7">
     <g id="line2d_32">
      <g>
       <use xlink:href="#md892169ef4" x="27" y="159.534989" style="stroke: #000000; stroke-width: 0.6"/>
      </g>
     </g>
    </g>
    <g id="ytick_8">
     <g id="line2d_33">
      <g>
       <use xlink:href="#md892169ef4" x="27" y="148.250472" style="stroke: #000000; stroke-width: 0.6"/>
      </g>
     </g>
    </g>
    <g id="ytick_9">
     <g id="line2d_34">
      <g>
       <use xlink:href="#md892169ef4" x="27" y="140.24398" style="stroke: #000000; stroke-width: 0.6"/>
      </g>
     </g>
    </g>
    <g id="ytick_10">
     <g id="line2d_35">
      <g>
       <use xlink:href="#md892169ef4" x="27" y="134.033662" style="stroke: #000000; stroke-width: 0.6"/>
      </g>
     </g>
    </g>
    <g id="ytick_11">
     <g id="line2d_36">
      <g>
       <use xlink:href="#md892169ef4" x="27" y="128.959463" style="stroke: #000000; stroke-width: 0.6"/>
      </g>
     </g>
    </g>
    <g id="ytick_12">
     <g id="line2d_37">
      <g>
       <use xlink:href="#md892169ef4" x="27" y="124.669289" style="stroke: #000000; stroke-width: 0.6"/>
      </g>
     </g>
    </g>
    <g id="ytick_13">
     <g id="line2d_38">
      <g>
       <use xlink:href="#md892169ef4" x="27" y="120.952971" style="stroke: #000000; stroke-width: 0.6"/>
      </g>
     </g>
    </g>
    <g id="ytick_14">
     <g id="line2d_39">
      <g>
       <use xlink:href="#md892169ef4" x="27" y="117.674946" style="stroke: #000000; stroke-width: 0.6"/>
      </g>
     </g>
    </g>
    <g id="ytick_15">
     <g id="line2d_40">
      <g>
       <use xlink:href="#md892169ef4" x="27" y="95.451644" style="stroke: #000000; stroke-width: 0.6"/>
      </g>
     </g>
    </g>
    <g id="ytick_16">
     <g id="line2d_41">
      <g>
       <use xlink:href="#md892169ef4" x="27" y="84.167127" style="stroke: #000000; stroke-width: 0.6"/>
      </g>
     </g>
    </g>
    <g id="ytick_17">
     <g id="line2d_42">
      <g>
       <use xlink:href="#md892169ef4" x="27" y="76.160635" style="stroke: #000000; stroke-width: 0.6"/>
      </g>
     </g>
    </g>
    <g id="ytick_18">
     <g id="line2d_43">
      <g>
       <use xlink:href="#md892169ef4" x="27" y="69.950317" style="stroke: #000000; stroke-width: 0.6"/>
      </g>
     </g>
    </g>
    <g id="ytick_19">
     <g id="line2d_44">
      <g>
       <use xlink:href="#md892169ef4" x="27" y="64.876118" style="stroke: #000000; stroke-width: 0.6"/>
      </g>
     </g>
    </g>
    <g id="ytick_20">
     <g id="line2d_45">
      <g>
       <use xlink:href="#md892169ef4" x="27" y="60.585943" style="stroke: #000000; stroke-width: 0.6"/>
      </g>
     </g>
    </g>
    <g id="ytick_21">
     <g id="line2d_46">
      <g>
       <use xlink:href="#md892169ef4" x="27" y="56.869626" style="stroke: #000000; stroke-width: 0.6"/>
      </g>
     </g>
    </g>
    <g id="ytick_22">
     <g id="line2d_47">
      <g>
       <use xlink:href="#md892169ef4" x="27" y="53.591601" style="stroke: #000000; stroke-width: 0.6"/>
      </g>
     </g>
    </g>
    <g id="ytick_23">
     <g id="line2d_48">
      <g>
       <use xlink:href="#md892169ef4" x="27" y="31.368299" style="stroke: #000000; stroke-width: 0.6"/>
      </g>
     </g>
    </g>
    <g id="text_8">
     <text style="font: 10px 'sans-serif'; text-anchor: middle" x="-3.679688" y="109.08" transform="rotate(-90 -3.679688 109.08)">MT reads with 16S/12S</text>
    </g>
   </g>
   <g id="line2d_49">
    <path d="M 46.696416 192.24 
L 194.4 44.536416 
" clip-path="url(#p1c9024dc6c)" style="fill: none; stroke: #1f77b4; stroke-width: 1.5; stroke-linecap: square"/>
   </g>
   <g id="patch_3">
    <path d="M 27 192.24 
L 27 25.92 
" style="fill: none; stroke: #000000; stroke-width: 0.8; stroke-linejoin: miter; stroke-linecap: square"/>
   </g>
   <g id="patch_4">
    <path d="M 194.4 192.24 
L 194.4 25.92 
" style="fill: none; stroke: #000000; stroke-width: 0.8; stroke-linejoin: miter; stroke-linecap: square"/>
   </g>
   <g id="patch_5">
    <path d="M 27 192.24 
L 194.4 192.24 
" style="fill: none; stroke: #000000; stroke-width: 0.8; stroke-linejoin: miter; stroke-linecap: square"/>
   </g>
   <g id="patch_6">
    <path d="M 27 25.92 
L 194.4 25.92 
" style="fill: none; stroke: #000000; stroke-width: 0.8; stroke-linejoin: miter; stroke-linecap: square"/>
   </g>
   <g id="text_9">
    <text style="font: 12px 'sans-serif'; text-anchor: middle" x="110.7" y="19.92" transform="rotate(-0 110.7 19.92)">HJ200066-20200112-1</text>
   </g>
   <g id="legend_1">
    <g id="patch_7">
     <path d="M 24.75625 169.2925 
L 187.4 169.2925 
Q 189.4 169.2925 189.4 167.2925 
L 189.4 50.8675 
Q 189.4 48.8675 187.4 48.8675 
L 24.75625 48.8675 
Q 22.75625 48.8675 22.75625 50.8675 
L 22.75625 167.2925 
Q 22.75625 169.2925 24.75625 169.2925 
z
" style="fill: #ffffff; opacity: 0.8; stroke: #cccccc; stroke-linejoin: miter"/>
    </g>
    <g id="text_10">
     <text style="font: 10px 'sans-serif'; text-anchor: start" x="86.833594" y="60.465937" transform="rotate(-0 86.833594 60.465937)">Species</text>
    </g>
    <g id="PathCollection_9">
     <defs>
      <path id="m53cebbb51c" d="M 0 3 
C 0.795609 3 1.55874 2.683901 2.12132 2.12132 
C 2.683901 1.55874 3 0.795609 3 0 
C 3 -0.795609 2.683901 -1.55874 2.12132 -2.12132 
C 1.55874 -2.683901 0.795609 -3 0 -3 
C -0.795609 -3 -1.55874 -2.683901 -2.12132 -2.12132 
C -2.683901 -1.55874 -3 -0.795609 -3 0 
C -3 0.795609 -2.683901 1.55874 -2.12132 2.12132 
C -1.55874 2.683901 -0.795609 3 0 3 
z
" style="stroke: #1f77b4"/>
     </defs>
     <g>
      <use xlink:href="#m53cebbb51c" x="36.75625" y="72.519063" style="fill: #1f77b4; stroke: #1f77b4"/>
     </g>
    </g>
    <g id="text_11">
     <text style="font: 10px 'sans-serif'; text-anchor: start" x="54.75625" y="75.144063" transform="rotate(-0 54.75625 75.144063)">Hystrix brachyura</text>
    </g>
    <g id="PathCollection_10">
     <defs>
      <path id="mdb22cb414c" d="M 0 3 
C 0.795609 3 1.55874 2.683901 2.12132 2.12132 
C 2.683901 1.55874 3 0.795609 3 0 
C 3 -0.795609 2.683901 -1.55874 2.12132 -2.12132 
C 1.55874 -2.683901 0.795609 -3 0 -3 
C -0.795609 -3 -1.55874 -2.683901 -2.12132 -2.12132 
C -2.683901 -1.55874 -3 -0.795609 -3 0 
C -3 0.795609 -2.683901 1.55874 -2.12132 2.12132 
C -1.55874 2.683901 -0.795609 3 0 3 
z
" style="stroke: #ff7f0e"/>
     </defs>
     <g>
      <use xlink:href="#mdb22cb414c" x="36.75625" y="87.197188" style="fill: #ff7f0e; stroke: #ff7f0e"/>
     </g>
    </g>
    <g id="text_12">
     <text style="font: 10px 'sans-serif'; text-anchor: start" x="54.75625" y="89.822188" transform="rotate(-0 54.75625 89.822188)">Erinaceus amurensis</text>
    </g>
    <g id="PathCollection_11">
     <defs>
      <path id="m2973558c25" d="M 0 3 
C 0.795609 3 1.55874 2.683901 2.12132 2.12132 
C 2.683901 1.55874 3 0.795609 3 0 
C 3 -0.795609 2.683901 -1.55874 2.12132 -2.12132 
C 1.55874 -2.683901 0.795609 -3 0 -3 
C -0.795609 -3 -1.55874 -2.683901 -2.12132 -2.12132 
C -2.683901 -1.55874 -3 -0.795609 -3 0 
C -3 0.795609 -2.683901 1.55874 -2.12132 2.12132 
C -1.55874 2.683901 -0.795609 3 0 3 
z
" style="stroke: #2ca02c"/>
     </defs>
     <g>
      <use xlink:href="#m2973558c25" x="36.75625" y="101.875313" style="fill: #2ca02c; stroke: #2ca02c"/>
     </g>
    </g>
    <g id="text_13">
     <text style="font: 10px 'sans-serif'; text-anchor: start" x="54.75625" y="104.500313" transform="rotate(-0 54.75625 104.500313)">Canis lupus</text>
    </g>
    <g id="PathCollection_12">
     <defs>
      <path id="m228a6ff350" d="M 0 3 
C 0.795609 3 1.55874 2.683901 2.12132 2.12132 
C 2.683901 1.55874 3 0.795609 3 0 
C 3 -0.795609 2.683901 -1.55874 2.12132 -2.12132 
C 1.55874 -2.683901 0.795609 -3 0 -3 
C -0.795609 -3 -1.55874 -2.683901 -2.12132 -2.12132 
C -2.683901 -1.55874 -3 -0.795609 -3 0 
C -3 0.795609 -2.683901 1.55874 -2.12132 2.12132 
C -1.55874 2.683901 -0.795609 3 0 3 
z
" style="stroke: #d62728"/>
     </defs>
     <g>
      <use xlink:href="#m228a6ff350" x="36.75625" y="116.553438" style="fill: #d62728; stroke: #d62728"/>
     </g>
    </g>
    <g id="text_14">
     <text style="font: 10px 'sans-serif'; text-anchor: start" x="54.75625" y="119.178438" transform="rotate(-0 54.75625 119.178438)">Homo sapiens</text>
    </g>
    <g id="PathCollection_13">
     <defs>
      <path id="m4f01db6acd" d="M 0 3 
C 0.795609 3 1.55874 2.683901 2.12132 2.12132 
C 2.683901 1.55874 3 0.795609 3 0 
C 3 -0.795609 2.683901 -1.55874 2.12132 -2.12132 
C 1.55874 -2.683901 0.795609 -3 0 -3 
C -0.795609 -3 -1.55874 -2.683901 -2.12132 -2.12132 
C -2.683901 -1.55874 -3 -0.795609 -3 0 
C -3 0.795609 -2.683901 1.55874 -2.12132 2.12132 
C -1.55874 2.683901 -0.795609 3 0 3 
z
" style="stroke: #9467bd"/>
     </defs>
     <g>
      <use xlink:href="#m4f01db6acd" x="36.75625" y="131.231563" style="fill: #9467bd; stroke: #9467bd"/>
     </g>
    </g>
    <g id="text_15">
     <text style="font: 10px 'sans-serif'; text-anchor: start" x="54.75625" y="133.856563" transform="rotate(-0 54.75625 133.856563)">Nyctereutes procyonoides</text>
    </g>
    <g id="PathCollection_14">
     <defs>
      <path id="ma0b710b998" d="M 0 3 
C 0.795609 3 1.55874 2.683901 2.12132 2.12132 
C 2.683901 1.55874 3 0.795609 3 0 
C 3 -0.795609 2.683901 -1.55874 2.12132 -2.12132 
C 1.55874 -2.683901 0.795609 -3 0 -3 
C -0.795609 -3 -1.55874 -2.683901 -2.12132 -2.12132 
C -2.683901 -1.55874 -3 -0.795609 -3 0 
C -3 0.795609 -2.683901 1.55874 -2.12132 2.12132 
C -1.55874 2.683901 -0.795609 3 0 3 
z
" style="stroke: #8c564b"/>
     </defs>
     <g>
      <use xlink:href="#ma0b710b998" x="36.75625" y="145.909688" style="fill: #8c564b; stroke: #8c564b"/>
     </g>
    </g>
    <g id="text_16">
     <text style="font: 10px 'sans-serif'; text-anchor: start" x="54.75625" y="148.534688" transform="rotate(-0 54.75625 148.534688)">Rhizomys pruinosus</text>
    </g>
    <g id="PathCollection_15">
     <defs>
      <path id="m0f7fa4e5df" d="M 0 3 
C 0.795609 3 1.55874 2.683901 2.12132 2.12132 
C 2.683901 1.55874 3 0.795609 3 0 
C 3 -0.795609 2.683901 -1.55874 2.12132 -2.12132 
C 1.55874 -2.683901 0.795609 -3 0 -3 
C -0.795609 -3 -1.55874 -2.683901 -2.12132 -2.12132 
C -2.683901 -1.55874 -3 -0.795609 -3 0 
C -3 0.795609 -2.683901 1.55874 -2.12132 2.12132 
C -1.55874 2.683901 -0.795609 3 0 3 
z
" style="stroke: #e377c2"/>
     </defs>
     <g>
      <use xlink:href="#m0f7fa4e5df" x="36.75625" y="160.587813" style="fill: #e377c2; stroke: #e377c2"/>
     </g>
    </g>
    <g id="text_17">
     <text style="font: 10px 'sans-serif'; text-anchor: start" x="54.75625" y="163.212813" transform="rotate(-0 54.75625 163.212813)">Paguma larvata</text>
    </g>
   </g>
  </g>
 </g>
 <defs>
  <clipPath id="p1c9024dc6c">
   <rect x="27" y="25.92" width="167.4" height="166.32"/>
  </clipPath>
 </defs>
</svg>
