<?xml version="1.0" encoding="utf-8" standalone="no"?>
<!DOCTYPE svg PUBLIC "-//W3C//DTD SVG 1.1//EN"
  "http://www.w3.org/Graphics/SVG/1.1/DTD/svg11.dtd">
<svg xmlns:xlink="http://www.w3.org/1999/xlink" width="216pt" height="216pt" viewBox="0 0 216 216" xmlns="http://www.w3.org/2000/svg" version="1.1">
 <metadata>
  <rdf:RDF xmlns:dc="http://purl.org/dc/elements/1.1/" xmlns:cc="http://creativecommons.org/ns#" xmlns:rdf="http://www.w3.org/1999/02/22-rdf-syntax-ns#">
   <cc:Work>
    <dc:type rdf:resource="http://purl.org/dc/dcmitype/StillImage"/>
    <dc:date>2023-09-01T15:41:24.214408</dc:date>
    <dc:format>image/svg+xml</dc:format>
    <dc:creator>
     <cc:Agent>
      <dc:title>Matplotlib v3.6.0, https://matplotlib.org/</dc:title>
     </cc:Agent>
    </dc:creator>
   </cc:Work>
  </rdf:RDF>
 </metadata>
 <defs>
  <style type="text/css">*{stroke-linejoin: round; stroke-linecap: butt}</style>
 </defs>
 <g id="figure_1">
  <g id="patch_1">
   <path d="M 0 216 
L 216 216 
L 216 0 
L 0 0 
z
" style="fill: #ffffff"/>
  </g>
  <g id="axes_1">
   <g id="patch_2">
    <path d="M 27 192.24 
L 194.4 192.24 
L 194.4 25.92 
L 27 25.92 
z
" style="fill: #ffffff"/>
   </g>
   <g id="PathCollection_1">
    <defs>
     <path id="C0_0_321b048de0" d="M 0 4.1833 
C 1.109424 4.1833 2.173559 3.742521 2.95804 2.95804 
C 3.742521 2.173559 4.1833 1.109424 4.1833 -0 
C 4.1833 -1.109424 3.742521 -2.173559 2.95804 -2.95804 
C 2.173559 -3.742521 1.109424 -4.1833 0 -4.1833 
C -1.109424 -4.1833 -2.173559 -3.742521 -2.95804 -2.95804 
C -3.742521 -2.173559 -4.1833 -1.109424 -4.1833 0 
C -4.1833 1.109424 -3.742521 2.173559 -2.95804 2.95804 
C -2.173559 3.742521 -1.109424 4.1833 0 4.1833 
z
"/>
    </defs>
    <g clip-path="url(#p2d51f134bf)">
     <use xlink:href="#C0_0_321b048de0" x="116.316303" y="135.795798" style="fill: #ff7f0e; fill-opacity: 0.5; stroke: #000000; stroke-opacity: 0.5; stroke-width: 0.669328"/>
    </g>
    <g clip-path="url(#p2d51f134bf)">
     <use xlink:href="#C0_0_321b048de0" x="186.790909" y="58.049678" style="fill: #2ca02c; fill-opacity: 0.5; stroke: #000000; stroke-opacity: 0.5; stroke-width: 0.669328"/>
    </g>
    <g clip-path="url(#p2d51f134bf)">
     <use xlink:href="#C0_0_321b048de0" x="92.771271" y="150.00686" style="fill: #d62728; fill-opacity: 0.5; stroke: #000000; stroke-opacity: 0.5; stroke-width: 0.669328"/>
    </g>
    <g clip-path="url(#p2d51f134bf)">
     <use xlink:href="#C0_0_321b048de0" x="94.891413" y="156.88379" style="fill: #9467bd; fill-opacity: 0.5; stroke: #000000; stroke-opacity: 0.5; stroke-width: 0.669328"/>
    </g>
    <g clip-path="url(#p2d51f134bf)">
     <use xlink:href="#C0_0_321b048de0" x="94.891413" y="160.110322" style="fill: #8c564b; fill-opacity: 0.5; stroke: #000000; stroke-opacity: 0.5; stroke-width: 0.669328"/>
    </g>
   </g>
   <g id="PathCollection_2"/>
   <g id="PathCollection_3"/>
   <g id="PathCollection_4"/>
   <g id="PathCollection_5"/>
   <g id="PathCollection_6"/>
   <g id="PathCollection_7"/>
   <g id="PathCollection_8"/>
   <g id="matplotlib.axis_1">
    <g id="xtick_1">
     <g id="line2d_1">
      <defs>
       <path id="m57f6cf2554" d="M 0 0 
L 0 3.5 
" style="stroke: #000000; stroke-width: 0.8"/>
      </defs>
      <g>
       <use xlink:href="#m57f6cf2554" x="34.609091" y="192.24" style="stroke: #000000; stroke-width: 0.8"/>
      </g>
     </g>
     <g id="text_1">
      <!-- $\mathdefault{10^{0}}$ -->
      <g transform="translate(25.809091 206.838437)">
       <text>
        <tspan style="font: 10px 'DejaVu Sans'" x="0 6.362305" y="-0.9765625">10</tspan>
        <tspan style="font: 7px 'DejaVu Sans'" x="12.820312" y="-4.8046875">0</tspan>
       </text>
      </g>
     </g>
    </g>
    <g id="xtick_2">
     <g id="line2d_2">
      <g>
       <use xlink:href="#m57f6cf2554" x="80.943397" y="192.24" style="stroke: #000000; stroke-width: 0.8"/>
      </g>
     </g>
     <g id="text_2">
      <!-- $\mathdefault{10^{1}}$ -->
      <g transform="translate(72.143397 206.838437)">
       <text>
        <tspan style="font: 10px 'DejaVu Sans'" x="0 6.362305" y="-0.06406250000000036">10</tspan>
        <tspan style="font: 7px 'DejaVu Sans'" x="12.820312" y="-3.8921875000000004">1</tspan>
       </text>
      </g>
     </g>
    </g>
    <g id="xtick_3">
     <g id="line2d_3">
      <g>
       <use xlink:href="#m57f6cf2554" x="127.277703" y="192.24" style="stroke: #000000; stroke-width: 0.8"/>
      </g>
     </g>
     <g id="text_3">
      <!-- $\mathdefault{10^{2}}$ -->
      <g transform="translate(118.477703 206.838437)">
       <text>
        <tspan style="font: 10px 'DejaVu Sans'" x="0 6.362305" y="-0.9765625">10</tspan>
        <tspan style="font: 7px 'DejaVu Sans'" x="12.820312" y="-4.8046875">2</tspan>
       </text>
      </g>
     </g>
    </g>
    <g id="xtick_4">
     <g id="line2d_4">
      <g>
       <use xlink:href="#m57f6cf2554" x="173.612008" y="192.24" style="stroke: #000000; stroke-width: 0.8"/>
      </g>
     </g>
     <g id="text_4">
      <!-- $\mathdefault{10^{3}}$ -->
      <g transform="translate(164.812008 206.838437)">
       <text>
        <tspan style="font: 10px 'DejaVu Sans'" x="0 6.362305" y="-0.9765625">10</tspan>
        <tspan style="font: 7px 'DejaVu Sans'" x="12.820312" y="-4.8046875">3</tspan>
       </text>
      </g>
     </g>
    </g>
    <g id="xtick_5">
     <g id="line2d_5">
      <defs>
       <path id="mc5a89531fb" d="M 0 0 
L 0 2 
" style="stroke: #000000; stroke-width: 0.6"/>
      </defs>
      <g>
       <use xlink:href="#mc5a89531fb" x="27.431816" y="192.24" style="stroke: #000000; stroke-width: 0.6"/>
      </g>
     </g>
    </g>
    <g id="xtick_6">
     <g id="line2d_6">
      <g>
       <use xlink:href="#mc5a89531fb" x="30.118833" y="192.24" style="stroke: #000000; stroke-width: 0.6"/>
      </g>
     </g>
    </g>
    <g id="xtick_7">
     <g id="line2d_7">
      <g>
       <use xlink:href="#mc5a89531fb" x="32.488949" y="192.24" style="stroke: #000000; stroke-width: 0.6"/>
      </g>
     </g>
    </g>
    <g id="xtick_8">
     <g id="line2d_8">
      <g>
       <use xlink:href="#mc5a89531fb" x="48.557107" y="192.24" style="stroke: #000000; stroke-width: 0.6"/>
      </g>
     </g>
    </g>
    <g id="xtick_9">
     <g id="line2d_9">
      <g>
       <use xlink:href="#mc5a89531fb" x="56.716173" y="192.24" style="stroke: #000000; stroke-width: 0.6"/>
      </g>
     </g>
    </g>
    <g id="xtick_10">
     <g id="line2d_10">
      <g>
       <use xlink:href="#mc5a89531fb" x="62.505123" y="192.24" style="stroke: #000000; stroke-width: 0.6"/>
      </g>
     </g>
    </g>
    <g id="xtick_11">
     <g id="line2d_11">
      <g>
       <use xlink:href="#mc5a89531fb" x="66.995381" y="192.24" style="stroke: #000000; stroke-width: 0.6"/>
      </g>
     </g>
    </g>
    <g id="xtick_12">
     <g id="line2d_12">
      <g>
       <use xlink:href="#mc5a89531fb" x="70.664189" y="192.24" style="stroke: #000000; stroke-width: 0.6"/>
      </g>
     </g>
    </g>
    <g id="xtick_13">
     <g id="line2d_13">
      <g>
       <use xlink:href="#mc5a89531fb" x="73.766122" y="192.24" style="stroke: #000000; stroke-width: 0.6"/>
      </g>
     </g>
    </g>
    <g id="xtick_14">
     <g id="line2d_14">
      <g>
       <use xlink:href="#mc5a89531fb" x="76.453139" y="192.24" style="stroke: #000000; stroke-width: 0.6"/>
      </g>
     </g>
    </g>
    <g id="xtick_15">
     <g id="line2d_15">
      <g>
       <use xlink:href="#mc5a89531fb" x="78.823255" y="192.24" style="stroke: #000000; stroke-width: 0.6"/>
      </g>
     </g>
    </g>
    <g id="xtick_16">
     <g id="line2d_16">
      <g>
       <use xlink:href="#mc5a89531fb" x="94.891413" y="192.24" style="stroke: #000000; stroke-width: 0.6"/>
      </g>
     </g>
    </g>
    <g id="xtick_17">
     <g id="line2d_17">
      <g>
       <use xlink:href="#mc5a89531fb" x="103.050479" y="192.24" style="stroke: #000000; stroke-width: 0.6"/>
      </g>
     </g>
    </g>
    <g id="xtick_18">
     <g id="line2d_18">
      <g>
       <use xlink:href="#mc5a89531fb" x="108.839429" y="192.24" style="stroke: #000000; stroke-width: 0.6"/>
      </g>
     </g>
    </g>
    <g id="xtick_19">
     <g id="line2d_19">
      <g>
       <use xlink:href="#mc5a89531fb" x="113.329687" y="192.24" style="stroke: #000000; stroke-width: 0.6"/>
      </g>
     </g>
    </g>
    <g id="xtick_20">
     <g id="line2d_20">
      <g>
       <use xlink:href="#mc5a89531fb" x="116.998495" y="192.24" style="stroke: #000000; stroke-width: 0.6"/>
      </g>
     </g>
    </g>
    <g id="xtick_21">
     <g id="line2d_21">
      <g>
       <use xlink:href="#mc5a89531fb" x="120.100428" y="192.24" style="stroke: #000000; stroke-width: 0.6"/>
      </g>
     </g>
    </g>
    <g id="xtick_22">
     <g id="line2d_22">
      <g>
       <use xlink:href="#mc5a89531fb" x="122.787444" y="192.24" style="stroke: #000000; stroke-width: 0.6"/>
      </g>
     </g>
    </g>
    <g id="xtick_23">
     <g id="line2d_23">
      <g>
       <use xlink:href="#mc5a89531fb" x="125.157561" y="192.24" style="stroke: #000000; stroke-width: 0.6"/>
      </g>
     </g>
    </g>
    <g id="xtick_24">
     <g id="line2d_24">
      <g>
       <use xlink:href="#mc5a89531fb" x="141.225719" y="192.24" style="stroke: #000000; stroke-width: 0.6"/>
      </g>
     </g>
    </g>
    <g id="xtick_25">
     <g id="line2d_25">
      <g>
       <use xlink:href="#mc5a89531fb" x="149.384785" y="192.24" style="stroke: #000000; stroke-width: 0.6"/>
      </g>
     </g>
    </g>
    <g id="xtick_26">
     <g id="line2d_26">
      <g>
       <use xlink:href="#mc5a89531fb" x="155.173734" y="192.24" style="stroke: #000000; stroke-width: 0.6"/>
      </g>
     </g>
    </g>
    <g id="xtick_27">
     <g id="line2d_27">
      <g>
       <use xlink:href="#mc5a89531fb" x="159.663993" y="192.24" style="stroke: #000000; stroke-width: 0.6"/>
      </g>
     </g>
    </g>
    <g id="xtick_28">
     <g id="line2d_28">
      <g>
       <use xlink:href="#mc5a89531fb" x="163.332801" y="192.24" style="stroke: #000000; stroke-width: 0.6"/>
      </g>
     </g>
    </g>
    <g id="xtick_29">
     <g id="line2d_29">
      <g>
       <use xlink:href="#mc5a89531fb" x="166.434734" y="192.24" style="stroke: #000000; stroke-width: 0.6"/>
      </g>
     </g>
    </g>
    <g id="xtick_30">
     <g id="line2d_30">
      <g>
       <use xlink:href="#mc5a89531fb" x="169.12175" y="192.24" style="stroke: #000000; stroke-width: 0.6"/>
      </g>
     </g>
    </g>
    <g id="xtick_31">
     <g id="line2d_31">
      <g>
       <use xlink:href="#mc5a89531fb" x="171.491867" y="192.24" style="stroke: #000000; stroke-width: 0.6"/>
      </g>
     </g>
    </g>
    <g id="xtick_32">
     <g id="line2d_32">
      <g>
       <use xlink:href="#mc5a89531fb" x="187.560024" y="192.24" style="stroke: #000000; stroke-width: 0.6"/>
      </g>
     </g>
    </g>
    <g id="text_5">
     <text style="font: 10px 'sans-serif'; text-anchor: middle" x="110.7" y="220.516562" transform="rotate(-0 110.7 220.516562)">MT reads without 16S/12S</text>
    </g>
   </g>
   <g id="matplotlib.axis_2">
    <g id="ytick_1">
     <g id="line2d_33">
      <defs>
       <path id="m563c6e3d42" d="M 0 0 
L -3.5 0 
" style="stroke: #000000; stroke-width: 0.8"/>
      </defs>
      <g>
       <use xlink:href="#m563c6e3d42" x="27" y="176.87073" style="stroke: #000000; stroke-width: 0.8"/>
      </g>
     </g>
     <g id="text_6">
      <!-- $\mathdefault{10^{1}}$ -->
      <g transform="translate(2.4 180.669949)">
       <text>
        <tspan style="font: 10px 'DejaVu Sans'" x="0 6.362305" y="-0.06406250000000036">10</tspan>
        <tspan style="font: 7px 'DejaVu Sans'" x="12.820312" y="-3.8921875000000004">1</tspan>
       </text>
      </g>
     </g>
    </g>
    <g id="ytick_2">
     <g id="line2d_34">
      <g>
       <use xlink:href="#m563c6e3d42" x="27" y="130.536425" style="stroke: #000000; stroke-width: 0.8"/>
      </g>
     </g>
     <g id="text_7">
      <!-- $\mathdefault{10^{2}}$ -->
      <g transform="translate(2.4 134.335643)">
       <text>
        <tspan style="font: 10px 'DejaVu Sans'" x="0 6.362305" y="-0.9765625">10</tspan>
        <tspan style="font: 7px 'DejaVu Sans'" x="12.820312" y="-4.8046875">2</tspan>
       </text>
      </g>
     </g>
    </g>
    <g id="ytick_3">
     <g id="line2d_35">
      <g>
       <use xlink:href="#m563c6e3d42" x="27" y="84.202119" style="stroke: #000000; stroke-width: 0.8"/>
      </g>
     </g>
     <g id="text_8">
      <!-- $\mathdefault{10^{3}}$ -->
      <g transform="translate(2.4 88.001338)">
       <text>
        <tspan style="font: 10px 'DejaVu Sans'" x="0 6.362305" y="-0.9765625">10</tspan>
        <tspan style="font: 7px 'DejaVu Sans'" x="12.820312" y="-4.8046875">3</tspan>
       </text>
      </g>
     </g>
    </g>
    <g id="ytick_4">
     <g id="line2d_36">
      <g>
       <use xlink:href="#m563c6e3d42" x="27" y="37.867813" style="stroke: #000000; stroke-width: 0.8"/>
      </g>
     </g>
     <g id="text_9">
      <!-- $\mathdefault{10^{4}}$ -->
      <g transform="translate(2.4 41.667032)">
       <text>
        <tspan style="font: 10px 'DejaVu Sans'" x="0 6.362305" y="-0.06406250000000036">10</tspan>
        <tspan style="font: 7px 'DejaVu Sans'" x="12.820312" y="-3.8921875000000004">4</tspan>
       </text>
      </g>
     </g>
    </g>
    <g id="ytick_5">
     <g id="line2d_37">
      <defs>
       <path id="m6bc70d9eb9" d="M 0 0 
L -2 0 
" style="stroke: #000000; stroke-width: 0.6"/>
      </defs>
      <g>
       <use xlink:href="#m6bc70d9eb9" x="27" y="190.818746" style="stroke: #000000; stroke-width: 0.6"/>
      </g>
     </g>
    </g>
    <g id="ytick_6">
     <g id="line2d_38">
      <g>
       <use xlink:href="#m6bc70d9eb9" x="27" y="187.149938" style="stroke: #000000; stroke-width: 0.6"/>
      </g>
     </g>
    </g>
    <g id="ytick_7">
     <g id="line2d_39">
      <g>
       <use xlink:href="#m6bc70d9eb9" x="27" y="184.048005" style="stroke: #000000; stroke-width: 0.6"/>
      </g>
     </g>
    </g>
    <g id="ytick_8">
     <g id="line2d_40">
      <g>
       <use xlink:href="#m6bc70d9eb9" x="27" y="181.360989" style="stroke: #000000; stroke-width: 0.6"/>
      </g>
     </g>
    </g>
    <g id="ytick_9">
     <g id="line2d_41">
      <g>
       <use xlink:href="#m6bc70d9eb9" x="27" y="178.990872" style="stroke: #000000; stroke-width: 0.6"/>
      </g>
     </g>
    </g>
    <g id="ytick_10">
     <g id="line2d_42">
      <g>
       <use xlink:href="#m6bc70d9eb9" x="27" y="162.922715" style="stroke: #000000; stroke-width: 0.6"/>
      </g>
     </g>
    </g>
    <g id="ytick_11">
     <g id="line2d_43">
      <g>
       <use xlink:href="#m6bc70d9eb9" x="27" y="154.763648" style="stroke: #000000; stroke-width: 0.6"/>
      </g>
     </g>
    </g>
    <g id="ytick_12">
     <g id="line2d_44">
      <g>
       <use xlink:href="#m6bc70d9eb9" x="27" y="148.974699" style="stroke: #000000; stroke-width: 0.6"/>
      </g>
     </g>
    </g>
    <g id="ytick_13">
     <g id="line2d_45">
      <g>
       <use xlink:href="#m6bc70d9eb9" x="27" y="144.484441" style="stroke: #000000; stroke-width: 0.6"/>
      </g>
     </g>
    </g>
    <g id="ytick_14">
     <g id="line2d_46">
      <g>
       <use xlink:href="#m6bc70d9eb9" x="27" y="140.815632" style="stroke: #000000; stroke-width: 0.6"/>
      </g>
     </g>
    </g>
    <g id="ytick_15">
     <g id="line2d_47">
      <g>
       <use xlink:href="#m6bc70d9eb9" x="27" y="137.713699" style="stroke: #000000; stroke-width: 0.6"/>
      </g>
     </g>
    </g>
    <g id="ytick_16">
     <g id="line2d_48">
      <g>
       <use xlink:href="#m6bc70d9eb9" x="27" y="135.026683" style="stroke: #000000; stroke-width: 0.6"/>
      </g>
     </g>
    </g>
    <g id="ytick_17">
     <g id="line2d_49">
      <g>
       <use xlink:href="#m6bc70d9eb9" x="27" y="132.656566" style="stroke: #000000; stroke-width: 0.6"/>
      </g>
     </g>
    </g>
    <g id="ytick_18">
     <g id="line2d_50">
      <g>
       <use xlink:href="#m6bc70d9eb9" x="27" y="116.588409" style="stroke: #000000; stroke-width: 0.6"/>
      </g>
     </g>
    </g>
    <g id="ytick_19">
     <g id="line2d_51">
      <g>
       <use xlink:href="#m6bc70d9eb9" x="27" y="108.429342" style="stroke: #000000; stroke-width: 0.6"/>
      </g>
     </g>
    </g>
    <g id="ytick_20">
     <g id="line2d_52">
      <g>
       <use xlink:href="#m6bc70d9eb9" x="27" y="102.640393" style="stroke: #000000; stroke-width: 0.6"/>
      </g>
     </g>
    </g>
    <g id="ytick_21">
     <g id="line2d_53">
      <g>
       <use xlink:href="#m6bc70d9eb9" x="27" y="98.150135" style="stroke: #000000; stroke-width: 0.6"/>
      </g>
     </g>
    </g>
    <g id="ytick_22">
     <g id="line2d_54">
      <g>
       <use xlink:href="#m6bc70d9eb9" x="27" y="94.481327" style="stroke: #000000; stroke-width: 0.6"/>
      </g>
     </g>
    </g>
    <g id="ytick_23">
     <g id="line2d_55">
      <g>
       <use xlink:href="#m6bc70d9eb9" x="27" y="91.379394" style="stroke: #000000; stroke-width: 0.6"/>
      </g>
     </g>
    </g>
    <g id="ytick_24">
     <g id="line2d_56">
      <g>
       <use xlink:href="#m6bc70d9eb9" x="27" y="88.692377" style="stroke: #000000; stroke-width: 0.6"/>
      </g>
     </g>
    </g>
    <g id="ytick_25">
     <g id="line2d_57">
      <g>
       <use xlink:href="#m6bc70d9eb9" x="27" y="86.32226" style="stroke: #000000; stroke-width: 0.6"/>
      </g>
     </g>
    </g>
    <g id="ytick_26">
     <g id="line2d_58">
      <g>
       <use xlink:href="#m6bc70d9eb9" x="27" y="70.254103" style="stroke: #000000; stroke-width: 0.6"/>
      </g>
     </g>
    </g>
    <g id="ytick_27">
     <g id="line2d_59">
      <g>
       <use xlink:href="#m6bc70d9eb9" x="27" y="62.095037" style="stroke: #000000; stroke-width: 0.6"/>
      </g>
     </g>
    </g>
    <g id="ytick_28">
     <g id="line2d_60">
      <g>
       <use xlink:href="#m6bc70d9eb9" x="27" y="56.306087" style="stroke: #000000; stroke-width: 0.6"/>
      </g>
     </g>
    </g>
    <g id="ytick_29">
     <g id="line2d_61">
      <g>
       <use xlink:href="#m6bc70d9eb9" x="27" y="51.815829" style="stroke: #000000; stroke-width: 0.6"/>
      </g>
     </g>
    </g>
    <g id="ytick_30">
     <g id="line2d_62">
      <g>
       <use xlink:href="#m6bc70d9eb9" x="27" y="48.147021" style="stroke: #000000; stroke-width: 0.6"/>
      </g>
     </g>
    </g>
    <g id="ytick_31">
     <g id="line2d_63">
      <g>
       <use xlink:href="#m6bc70d9eb9" x="27" y="45.045088" style="stroke: #000000; stroke-width: 0.6"/>
      </g>
     </g>
    </g>
    <g id="ytick_32">
     <g id="line2d_64">
      <g>
       <use xlink:href="#m6bc70d9eb9" x="27" y="42.358071" style="stroke: #000000; stroke-width: 0.6"/>
      </g>
     </g>
    </g>
    <g id="ytick_33">
     <g id="line2d_65">
      <g>
       <use xlink:href="#m6bc70d9eb9" x="27" y="39.987954" style="stroke: #000000; stroke-width: 0.6"/>
      </g>
     </g>
    </g>
    <g id="text_10">
     <text style="font: 10px 'sans-serif'; text-anchor: middle" x="-3.679688" y="109.08" transform="rotate(-90 -3.679688 109.08)">MT reads with 16S/12S</text>
    </g>
   </g>
   <g id="line2d_66">
    <path d="M 65.574127 192.24 
L 194.4 63.414127 
" clip-path="url(#p2d51f134bf)" style="fill: none; stroke: #1f77b4; stroke-width: 1.5; stroke-linecap: square"/>
   </g>
   <g id="patch_3">
    <path d="M 27 192.24 
L 27 25.92 
" style="fill: none; stroke: #000000; stroke-width: 0.8; stroke-linejoin: miter; stroke-linecap: square"/>
   </g>
   <g id="patch_4">
    <path d="M 194.4 192.24 
L 194.4 25.92 
" style="fill: none; stroke: #000000; stroke-width: 0.8; stroke-linejoin: miter; stroke-linecap: square"/>
   </g>
   <g id="patch_5">
    <path d="M 27 192.24 
L 194.4 192.24 
" style="fill: none; stroke: #000000; stroke-width: 0.8; stroke-linejoin: miter; stroke-linecap: square"/>
   </g>
   <g id="patch_6">
    <path d="M 27 25.92 
L 194.4 25.92 
" style="fill: none; stroke: #000000; stroke-width: 0.8; stroke-linejoin: miter; stroke-linecap: square"/>
   </g>
   <g id="text_11">
    <text style="font: 12px 'sans-serif'; text-anchor: middle" x="110.7" y="19.92" transform="rotate(-0 110.7 19.92)">Q69</text>
   </g>
   <g id="legend_1">
    <g id="patch_7">
     <path d="M 24.75625 151.345 
L 187.4 151.345 
Q 189.4 151.345 189.4 149.345 
L 189.4 32.92 
Q 189.4 30.92 187.4 30.92 
L 24.75625 30.92 
Q 22.75625 30.92 22.75625 32.92 
L 22.75625 149.345 
Q 22.75625 151.345 24.75625 151.345 
z
" style="fill: #ffffff; opacity: 0.8; stroke: #cccccc; stroke-linejoin: miter"/>
    </g>
    <g id="text_12">
     <text style="font: 10px 'sans-serif'; text-anchor: start" x="86.833594" y="42.518438" transform="rotate(-0 86.833594 42.518438)">Species</text>
    </g>
    <g id="PathCollection_9">
     <defs>
      <path id="m9aad14de31" d="M 0 3 
C 0.795609 3 1.55874 2.683901 2.12132 2.12132 
C 2.683901 1.55874 3 0.795609 3 0 
C 3 -0.795609 2.683901 -1.55874 2.12132 -2.12132 
C 1.55874 -2.683901 0.795609 -3 0 -3 
C -0.795609 -3 -1.55874 -2.683901 -2.12132 -2.12132 
C -2.683901 -1.55874 -3 -0.795609 -3 0 
C -3 0.795609 -2.683901 1.55874 -2.12132 2.12132 
C -1.55874 2.683901 -0.795609 3 0 3 
z
" style="stroke: #1f77b4"/>
     </defs>
     <g>
      <use xlink:href="#m9aad14de31" x="36.75625" y="54.571563" style="fill: #1f77b4; stroke: #1f77b4"/>
     </g>
    </g>
    <g id="text_13">
     <text style="font: 10px 'sans-serif'; text-anchor: start" x="54.75625" y="57.196563" transform="rotate(-0 54.75625 57.196563)">Hystrix brachyura</text>
    </g>
    <g id="PathCollection_10">
     <defs>
      <path id="m9eec8ef5e4" d="M 0 3 
C 0.795609 3 1.55874 2.683901 2.12132 2.12132 
C 2.683901 1.55874 3 0.795609 3 0 
C 3 -0.795609 2.683901 -1.55874 2.12132 -2.12132 
C 1.55874 -2.683901 0.795609 -3 0 -3 
C -0.795609 -3 -1.55874 -2.683901 -2.12132 -2.12132 
C -2.683901 -1.55874 -3 -0.795609 -3 0 
C -3 0.795609 -2.683901 1.55874 -2.12132 2.12132 
C -1.55874 2.683901 -0.795609 3 0 3 
z
" style="stroke: #ff7f0e"/>
     </defs>
     <g>
      <use xlink:href="#m9eec8ef5e4" x="36.75625" y="69.249688" style="fill: #ff7f0e; stroke: #ff7f0e"/>
     </g>
    </g>
    <g id="text_14">
     <text style="font: 10px 'sans-serif'; text-anchor: start" x="54.75625" y="71.874688" transform="rotate(-0 54.75625 71.874688)">Erinaceus amurensis</text>
    </g>
    <g id="PathCollection_11">
     <defs>
      <path id="mce7fe5e705" d="M 0 3 
C 0.795609 3 1.55874 2.683901 2.12132 2.12132 
C 2.683901 1.55874 3 0.795609 3 0 
C 3 -0.795609 2.683901 -1.55874 2.12132 -2.12132 
C 1.55874 -2.683901 0.795609 -3 0 -3 
C -0.795609 -3 -1.55874 -2.683901 -2.12132 -2.12132 
C -2.683901 -1.55874 -3 -0.795609 -3 0 
C -3 0.795609 -2.683901 1.55874 -2.12132 2.12132 
C -1.55874 2.683901 -0.795609 3 0 3 
z
" style="stroke: #2ca02c"/>
     </defs>
     <g>
      <use xlink:href="#mce7fe5e705" x="36.75625" y="83.927813" style="fill: #2ca02c; stroke: #2ca02c"/>
     </g>
    </g>
    <g id="text_15">
     <text style="font: 10px 'sans-serif'; text-anchor: start" x="54.75625" y="86.552813" transform="rotate(-0 54.75625 86.552813)">Canis lupus</text>
    </g>
    <g id="PathCollection_12">
     <defs>
      <path id="m3d7fba6145" d="M 0 3 
C 0.795609 3 1.55874 2.683901 2.12132 2.12132 
C 2.683901 1.55874 3 0.795609 3 0 
C 3 -0.795609 2.683901 -1.55874 2.12132 -2.12132 
C 1.55874 -2.683901 0.795609 -3 0 -3 
C -0.795609 -3 -1.55874 -2.683901 -2.12132 -2.12132 
C -2.683901 -1.55874 -3 -0.795609 -3 0 
C -3 0.795609 -2.683901 1.55874 -2.12132 2.12132 
C -1.55874 2.683901 -0.795609 3 0 3 
z
" style="stroke: #d62728"/>
     </defs>
     <g>
      <use xlink:href="#m3d7fba6145" x="36.75625" y="98.605938" style="fill: #d62728; stroke: #d62728"/>
     </g>
    </g>
    <g id="text_16">
     <text style="font: 10px 'sans-serif'; text-anchor: start" x="54.75625" y="101.230938" transform="rotate(-0 54.75625 101.230938)">Homo sapiens</text>
    </g>
    <g id="PathCollection_13">
     <defs>
      <path id="m4fce799e23" d="M 0 3 
C 0.795609 3 1.55874 2.683901 2.12132 2.12132 
C 2.683901 1.55874 3 0.795609 3 0 
C 3 -0.795609 2.683901 -1.55874 2.12132 -2.12132 
C 1.55874 -2.683901 0.795609 -3 0 -3 
C -0.795609 -3 -1.55874 -2.683901 -2.12132 -2.12132 
C -2.683901 -1.55874 -3 -0.795609 -3 0 
C -3 0.795609 -2.683901 1.55874 -2.12132 2.12132 
C -1.55874 2.683901 -0.795609 3 0 3 
z
" style="stroke: #9467bd"/>
     </defs>
     <g>
      <use xlink:href="#m4fce799e23" x="36.75625" y="113.284063" style="fill: #9467bd; stroke: #9467bd"/>
     </g>
    </g>
    <g id="text_17">
     <text style="font: 10px 'sans-serif'; text-anchor: start" x="54.75625" y="115.909063" transform="rotate(-0 54.75625 115.909063)">Nyctereutes procyonoides</text>
    </g>
    <g id="PathCollection_14">
     <defs>
      <path id="mfbf37283a3" d="M 0 3 
C 0.795609 3 1.55874 2.683901 2.12132 2.12132 
C 2.683901 1.55874 3 0.795609 3 0 
C 3 -0.795609 2.683901 -1.55874 2.12132 -2.12132 
C 1.55874 -2.683901 0.795609 -3 0 -3 
C -0.795609 -3 -1.55874 -2.683901 -2.12132 -2.12132 
C -2.683901 -1.55874 -3 -0.795609 -3 0 
C -3 0.795609 -2.683901 1.55874 -2.12132 2.12132 
C -1.55874 2.683901 -0.795609 3 0 3 
z
" style="stroke: #8c564b"/>
     </defs>
     <g>
      <use xlink:href="#mfbf37283a3" x="36.75625" y="127.962188" style="fill: #8c564b; stroke: #8c564b"/>
     </g>
    </g>
    <g id="text_18">
     <text style="font: 10px 'sans-serif'; text-anchor: start" x="54.75625" y="130.587188" transform="rotate(-0 54.75625 130.587188)">Rhizomys pruinosus</text>
    </g>
    <g id="PathCollection_15">
     <defs>
      <path id="mcd793dedfa" d="M 0 3 
C 0.795609 3 1.55874 2.683901 2.12132 2.12132 
C 2.683901 1.55874 3 0.795609 3 0 
C 3 -0.795609 2.683901 -1.55874 2.12132 -2.12132 
C 1.55874 -2.683901 0.795609 -3 0 -3 
C -0.795609 -3 -1.55874 -2.683901 -2.12132 -2.12132 
C -2.683901 -1.55874 -3 -0.795609 -3 0 
C -3 0.795609 -2.683901 1.55874 -2.12132 2.12132 
C -1.55874 2.683901 -0.795609 3 0 3 
z
" style="stroke: #e377c2"/>
     </defs>
     <g>
      <use xlink:href="#mcd793dedfa" x="36.75625" y="142.640313" style="fill: #e377c2; stroke: #e377c2"/>
     </g>
    </g>
    <g id="text_19">
     <text style="font: 10px 'sans-serif'; text-anchor: start" x="54.75625" y="145.265313" transform="rotate(-0 54.75625 145.265313)">Paguma larvata</text>
    </g>
   </g>
  </g>
 </g>
 <defs>
  <clipPath id="p2d51f134bf">
   <rect x="27" y="25.92" width="167.4" height="166.32"/>
  </clipPath>
 </defs>
</svg>
